<?xml version="1.0" standalone="no"?><!DOCTYPE svg PUBLIC "-//W3C//DTD SVG 1.1//EN" "http://www.w3.org/Graphics/SVG/1.1/DTD/svg11.dtd"><svg class="icon" width="200px" height="200.00px" viewBox="0 0 1024 1024" version="1.1" xmlns="http://www.w3.org/2000/svg"><path d="M901.847127 307.829398c146.85696 146.85696 146.872955 285.172656 0.015995 432.037613-146.872955 146.88895-632.861287 146.872955-779.718247 0-146.85696-146.85696-146.872955-285.172656 0-432.037613 388.251638-388.259636 391.450613-388.259636 779.702252 0z" fill="#43B530" /><path d="M122.144875 360.812427C57.805484 425.135824 21.657063 487.83574 13.691614 550.335721c7.965449 62.491983 44.11387 125.191899 108.453261 189.53129 146.85696 146.872955 632.845292 146.88895 779.718247 0 64.323396-64.323396 100.471818-127.023313 108.437266-189.515296-7.965449-62.491983-44.11387-125.191899-108.445263-189.53129C513.595489-27.447208 510.396514-27.447208 122.144875 360.812427z" fill="#107510" /><path d="M122.144875 360.812427c-40.035176 40.019181-69.137854 79.414563-87.332026 118.506041 18.194172 39.115471 47.304848 78.502855 87.332026 118.522036 146.85696 146.872955 632.845292 146.88895 779.718247 0 40.019181-40.019181 69.121859-79.414563 87.324029-118.506041-18.20217-39.115471-47.312845-78.502855-87.340024-118.522036-388.251638-388.259636-391.450613-388.259636-779.702252 0z" fill="#1A8E1C" /><path d="M512.011996 862.019884h-0.015995c-175.591756 0-328.230864-43.554049-398.336408-113.675588C37.180091 671.864793 0 598.432315 0 523.848205s37.172093-148.024586 113.659593-224.496091C309.876743 103.126967 408.365196 4.638514 511.996001 4.638514s202.119259 98.480455 398.336408 294.7136c76.479503 76.479503 113.659593 149.911981 113.667591 224.496091s-37.172093 148.024586-113.651596 224.496091c-70.113542 70.121539-222.75265 113.675588-398.336408 113.675588zM511.996001 28.630829c-93.697987 0-195.873259 102.175272-381.373841 287.683851C58.869143 388.067697 23.992315 455.949954 23.992315 523.848205c0 67.890254 34.876829 135.780508 106.629845 207.533524 65.77893 65.786928 211.908123 106.64584 381.373841 106.64584 169.465718 0.007997 315.602908-40.858912 381.381839-106.64584 71.753017-71.753017 106.629845-139.635273 106.621848-207.533524 0-67.890254-34.884826-135.788505-106.637843-207.533525C707.869261 130.814099 605.693989 28.630829 511.996001 28.630829z" fill="#33363A" /><path d="M694.529534 307.829398c68.769972 146.85696 68.769972 285.172656 0.007997 432.037613-68.769972 146.88895-296.313087 146.872955-365.067065 0-68.769972-146.85696-68.77797-285.172656-0.007997-432.037613 181.78977-388.259636 183.285291-388.259636 365.067065 0z" fill="#43B530" /><path d="M349.456065 360.812427c-30.12635 64.323396-67.042525 127.023313-70.769332 189.515296 3.726806 62.491983 20.649386 125.191899 50.783733 189.531291 68.761975 146.872955 296.30509 146.88895 365.067065 0 30.118353-64.323396 47.04893-127.023313 50.775736-189.515296-3.726806-62.491983-40.650979-125.191899-70.777329-189.531291-181.781773-388.259636-143.290102-388.259636-325.079873 0z" fill="#1A8E1C" /><path d="M512.003999 862.019884s0.007997 0 0 0c-85.484618 0-159.596879-44.857632-193.402051-117.074499-70.641373-150.847682-70.641373-291.37067-0.007998-442.202357C414.427254 98.072586 458.181239 4.638514 512.003999 4.638514S609.564749 98.056591 705.398052 302.743028c70.633375 150.839684 70.641373 291.354675 0.007998 442.202357-33.805172 72.216868-107.92543 117.0745-193.402051 117.074499z m0-833.389055c-38.563648-0.007997-88.667599 107.005725-171.673011 284.28494-67.378418 143.897908-67.378418 277.950969 0.007997 421.864872 29.81445 63.683601 95.601378 103.246929 171.673011 103.246928s141.850563-39.563327 171.665014-103.246928c67.378418-143.905905 67.37042-277.958966-0.007998-421.864872C600.6636 135.636554 550.559649 28.630829 512.003999 28.630829z" fill="#33363A" /><path d="M905.541944 707.925243c0 165.355035-176.199561 299.432088-393.545943 299.432088-217.354379 0-393.545942-134.085051-393.545942-299.432088 0-165.387024 176.191564-363.555549 393.545942-363.555549 217.346381 0 393.545942 198.168524 393.545943 363.555549z" fill="#80EDAC" /><path d="M905.541944 707.925243c0 165.355035-176.199561 299.432088-393.545943 299.432088-217.354379 0-393.545942-134.085051-393.545942-299.432088 0-165.387024 176.191564-279.334526 393.545942-279.334526 217.346381 0 393.545942 113.947501 393.545943 279.334526z" fill="#6ADB9A" /><path d="M595.465265 732.509368c0 11.140432-37.515983 13.139791-83.805156 13.139791S427.86295 743.6498 427.86295 732.509368c0-11.148429 37.515983-40.283097 83.805156-40.283097s83.797159 29.12667 83.797159 40.283097z" fill="#80EDAC" /><path d="M905.541944 707.925243c0 165.355035-176.199561 299.432088-393.545943 299.432088-217.354379 0-393.545942-134.085051-393.545942-299.432088 0-165.403019 50.071961 146.673019 393.545942 146.673018s393.545942-312.076038 393.545943-146.673018z" fill="#47C67B" /><path d="M620.625206 824.38394c0 31.134027-48.64042 56.357948-108.629205 56.357947s-108.629205-25.22392-108.629204-56.357947" fill="#BA503A" /><path d="M511.996001 1019.353488c-223.616373 0-405.5421-139.70725-405.5421-311.428245 0-170.105513 180.902055-375.551706 405.5421-375.551706s405.5421 205.446193 405.5421 375.551706c0 171.720996-181.925727 311.428246-405.5421 311.428245z m0-662.987636c-211.3563 0-381.549785 192.322397-381.549785 351.559391 0 158.493233 171.161175 287.435931 381.549785 287.43593s381.549785-128.942698 381.549785-287.43593c0-159.236994-170.193485-351.559391-381.549785-351.559391z" fill="#33363A" /><path d="M382.741403 677.18309a64.379378 64.379378 0 0 1-64.395373 64.387376 64.371381 64.371381 0 0 1-64.387376-64.387376 64.395373 64.395373 0 0 1 128.782749 0z" fill="#AD2707" /><path d="M286.324287 656.253794m-26.239595 0a26.239595 26.239595 0 1 0 52.47919 0 26.239595 26.239595 0 1 0-52.47919 0Z" fill="#FFFFFF" /><path d="M318.34603 600.799556c-25.855718 0-48.720394 12.947853-62.539968 32.669536a37.563968 37.563968 0 0 0-2.567178 3.982724 75.815715 75.815715 0 0 0-11.276388 39.731274c0 42.122508 34.269023 76.383533 76.383534 76.383533 42.122508 0 76.391531-34.261026 76.391531-76.383533s-34.269023-76.383533-76.391531-76.383534z m0 128.774752a52.447201 52.447201 0 0 1-48.352512-32.261666c5.502238-0.143954 12.196093-1.599488 19.737677-3.166986a37.188088 37.188088 0 0 0 7.765513-1.519513c6.549902-1.183621 13.547661-2.135316 20.857319-2.135316 19.297819 0 36.564288 6.501917 48.36051 6.821815a52.47919 52.47919 0 0 1-48.368507 32.261666z" fill="#33363A" /><path d="M286.316289 656.261791m-14.23544 0a14.23544 14.23544 0 1 0 28.470881 0 14.23544 14.23544 0 1 0-28.470881 0Z" fill="#FFFFFF" /><path d="M770.033349 677.18309a64.371381 64.371381 0 0 1-64.387376 64.387376 64.379378 64.379378 0 0 1-64.395374-64.387376 64.379378 64.379378 0 0 1 64.395374-64.387376 64.379378 64.379378 0 0 1 64.387376 64.387376z" fill="#AD2707" /><path d="M673.616232 656.253794m-26.231597 0a26.231598 26.231598 0 1 0 52.463195 0 26.231598 26.231598 0 1 0-52.463195 0Z" fill="#FFFFFF" /><path d="M705.645973 600.799556c-25.9117 0-48.816364 12.995837-62.635937 32.7815a37.883865 37.883865 0 0 0-2.399232 3.726806 75.83171 75.83171 0 0 0-11.356362 39.86723c0 42.122508 34.269023 76.383533 76.391531 76.383534 42.11451 0 76.383533-34.261026 76.383533-76.383534s-34.269023-76.375536-76.383533-76.375536z m0 128.774752a52.463195 52.463195 0 0 1-48.36051-32.261666c5.502238-0.143954 12.188096-1.599488 19.729681-3.166986 2.695137-0.239923 5.286307-0.743762 7.789505-1.519513 6.541905-1.183621 13.539663-2.135316 20.841324-2.135316 19.289821 0 36.556291 6.501917 48.352512 6.821815a52.447201 52.447201 0 0 1-48.352512 32.261666z" fill="#33363A" /><path d="M673.62423 642.026351c-7.853484 0-14.243438 6.381956-14.243438 14.227443 0 7.853484 6.389953 14.243438 14.243438 14.243437a14.23544 14.23544 0 0 0 0-28.47088z" fill="#FFFFFF" /><path d="M492.266321 785.476402c-3.18298 0-6.365961-1.255598-8.725205-3.758796l-11.996158-12.699932a11.996157 11.996157 0 1 1 17.442413-16.474723l11.996158 12.699932a11.996157 11.996157 0 0 1-8.717208 20.233519zM531.725682 785.476402a11.980163 11.980163 0 0 1-8.717208-20.233519l11.996157-12.699932a11.996157 11.996157 0 0 1 17.442413 16.474723l-11.996157 12.699932c-2.359244 2.503198-5.534227 3.758796-8.725205 3.758796z" fill="#33363A" /><path d="M268.314056 457.797362c20.79334-14.635312 42.938246-24.504151 64.43536-29.774463 3.342929-19.833647 0.263915-38.739591-10.436657-53.934724-23.200569-32.973438-74.600105-38.443686-124.728048-16.82661-37.284057 39.891222-49.488148 90.13113-26.28758 123.088573 10.700572 15.211128 27.447208 24.496154 47.256863 28.039019 12.212088-18.458088 28.982716-35.96448 49.760062-50.591795z" fill="#9CFFC4" /><path d="M293.64994 395.433338c-20.76135-29.50255-64.107466-36.924173-108.909115-22.680735-26.935372 36.772221-33.7172 78.782765-13.443694 107.605532 8.893151 12.651947 22.000953 21.137229 37.531978 25.69577 9.005116-9.636913 21.241196-1.527511 32.84548-9.700893 3.398911-2.391234 4.854445-21.681055 8.325333-23.824369a203.750736 203.750736 0 0 1 18.306136-14.731281 198.384455 198.384455 0 0 1 36.93217-20.401465c0.551823-15.395069-3.055021-29.87843-11.588288-41.962559z" fill="#80EDAC" /><path d="M218.577987 520.393312c-0.703775 0-1.415547-0.06398-2.127319-0.183942-23.792379-4.254637-42.794292-15.650987-54.958396-32.941448-26.159621-37.164096-15.17114-92.698308 27.335244-138.179739a12.156106 12.156106 0 0 1 4.006717-2.823096c57.165689-24.656102 113.131762-16.2348 139.291383 20.929296 12.164104 17.274467 16.474723 39.003507 12.452011 62.827875A12.060137 12.060137 0 0 1 330.758054 439.859108a11.996157 11.996157 0 0 1-9.836849-13.827571c2.943057-17.466405 0.03199-33.037418-8.413305-45.041573-18.82597-26.743434-62.915847-32.245671-107.853453-13.691614-32.653541 36.036457-42.362431 79.406565-23.544459 106.142001 8.453292 12.012152 22.128912 20.017588 39.563328 23.136589a11.996157 11.996157 0 0 1-2.095329 23.816372z" fill="#33363A" /><path d="M755.677947 457.797362c-20.801337-14.635312-42.938246-24.504151-64.435361-29.774463-3.350927-19.833647-0.271913-38.739591 10.436657-53.934724 23.192571-32.973438 74.600105-38.443686 124.728048-16.82661 37.27606 39.891222 49.488148 90.13113 26.28758 123.088573-10.70857 15.211128-27.447208 24.496154-47.26486 28.039019-12.204091-18.458088-28.982716-35.96448-49.752064-50.591795z" fill="#9CFFC4" /><path d="M730.342062 395.433338c20.76135-29.50255 64.107466-36.924173 108.901118-22.680735 26.94337 36.772221 33.725197 78.782765 13.451691 107.605532-8.901149 12.651947-22.00895 21.137229-37.531978 25.69577-9.013113-9.636913-21.241196-1.527511-32.845479-9.700893-3.406909-2.391234-4.854445-21.681055-8.325333-23.824369a204.886372 204.886372 0 0 0-18.306137-14.731281 198.440437 198.440437 0 0 0-36.940167-20.401465c-0.543826-15.395069 3.063019-29.87843 11.596285-41.962559z" fill="#80EDAC" /><path d="M805.406018 520.393312a11.996157 11.996157 0 0 1-2.103326-23.800377c17.426418-3.119001 31.110035-11.116439 39.571325-23.136589 18.817972-26.735436 9.101085-70.113542-23.544458-106.142001-44.937606-18.554057-89.035481-13.059817-107.845456 13.691614-8.46129 12.004155-11.36436 27.56717-8.421303 45.033575A11.980163 11.980163 0 0 1 693.241946 439.859108a12.044142 12.044142 0 0 1-13.827571-9.828852c-4.022711-23.832366 0.27991-45.561406 12.460009-62.84387 26.143626-37.156098 82.125694-45.569404 139.283386-20.921299 1.511516 0.647793 2.879078 1.615483 4.014714 2.823096 42.498387 45.489429 53.486867 101.023641 27.327247 138.179739-12.172101 17.298459-31.174015 28.686811-54.966394 32.941448a12.811896 12.811896 0 0 1-2.127319 0.183942z" fill="#33363A" /><path d="M460.30056 552.05517a60.636577 60.636577 0 0 1-60.62858-60.636578c0-33.477277 42.210479-45.561406 75.695754-45.561406s45.561406 12.092127 45.561406 45.561406a60.636577 60.636577 0 0 1-60.62858 60.636578z" fill="#47C67B" /><path d="M580.190158 530.718004m-21.329168 0a21.329168 21.329168 0 1 0 42.658336 0 21.329168 21.329168 0 1 0-42.658336 0Z" fill="#47C67B" /><path d="M663.267547 514.843089m-15.882912 0a15.882913 15.882913 0 1 0 31.765825 0 15.882913 15.882913 0 1 0-31.765825 0Z" fill="#47C67B" /><path d="M554.190486 644.721488m-10.460649 0a10.460649 10.460649 0 1 0 20.921298 0 10.460649 10.460649 0 1 0-20.921298 0Z" fill="#47C67B" /><path d="M370.929187 534.836685m-20.001593 0a20.001593 20.001593 0 1 0 40.003186 0 20.001593 20.001593 0 1 0-40.003186 0Z" fill="#47C67B" /><path d="M334.164963 811.811966l-40.419053 23.792379-2.855086-46.801009" fill="#FFFFFF" /><path d="M689.82704 811.811966l40.419053 23.792379 2.863083-46.801009" fill="#FFFFFF" /><path d="M759.060863 742.706102a11.996157 11.996157 0 0 0-16.050858 5.502238c-0.271913 0.559821-28.454886 56.022055-123.416469 54.222631-64.323396-1.127639-93.945908 12.068134-107.605532 24.744074-13.659625-12.64395-43.274139-25.799736-107.58154-24.744074-94.049875 1.783429-122.22485-51.85539-123.456456-54.286611a11.996157 11.996157 0 0 0-21.521106 10.604603c0.551823 1.135636 6.501917 12.539983 20.329488 25.647785-0.631798 1.583493-0.959693 3.310939-0.847729 5.134355l2.855086 46.801009a11.996157 11.996157 0 0 0 18.058216 9.604924l40.419053-23.792379c1.359565-0.799744 2.487203-1.839411 3.390914-3.015034 13.843566 3.806781 29.726478 6.341969 47.880663 6.997758 1.607485 37.483993 53.878742 66.602666 120.473411 66.602666 66.602666 0 118.889918-29.12667 120.473411-66.618661 18.146188-0.679782 34.013105-3.222968 47.840676-7.021751 0.911708 1.191618 2.055342 2.24728 3.430901 3.055022l40.419053 23.792379a11.996157 11.996157 0 0 0 18.058216-9.604924l2.855085-46.801009a11.860201 11.860201 0 0 0-0.847728-5.134355c13.843566-13.107801 19.777665-24.512148 20.337485-25.647785a11.98816 11.98816 0 0 0-5.49424-16.042861z m-454.534407 72.624737l-0.791746-12.899868c3.686819 2.207293 7.669543 4.318617 11.908186 6.357964l-11.11644 6.541904z m207.469545 53.414891c-55.10235 0-93.937911-21.880991-96.393124-42.314446 63.835553 0.727767 82.517569 17.658344 84.229021 24.496153-0.127959-0.519833-0.111964-0.823736-0.111965-0.823736l12.284066-1.119641 12.284065 1.119641s0.015995 0.295905-0.111964 0.823736c1.711452-6.829812 20.529424-23.928335 84.22902-24.520146-2.439219 20.441452-41.282777 42.338438-96.409119 42.338439z m207.469545-53.414891l-11.156426-6.565897c4.254637-2.039347 8.253356-4.158668 11.948173-6.36596l-0.791747 12.931857z" fill="#33363A" /></svg>