<?xml version="1.0" standalone="no"?><!DOCTYPE svg PUBLIC "-//W3C//DTD SVG 1.1//EN" "http://www.w3.org/Graphics/SVG/1.1/DTD/svg11.dtd"><svg class="icon" width="200px" height="200.00px" viewBox="0 0 1024 1024" version="1.1" xmlns="http://www.w3.org/2000/svg"><path d="M236.359432 631.36274c0 25.227288-50.26466 45.667089-112.240858 45.667089-61.992025 0-112.256684-20.447714-112.256684-45.667089s98.65389-99.706346 160.645915-99.706346c61.999938 0.007913 63.851627 74.486971 63.851627 99.706346z" fill="#EA81BD" /><path d="M236.359432 631.36274c0 25.227288-50.26466 45.667089-112.240858 45.667089-61.992025 0-112.256684-20.447714-112.256684-45.667089s103.89243-14.67899 165.884455-14.67899c61.999938 0 58.613088-10.540385 58.613087 14.67899z" fill="#D363A9" /><path d="M124.126488 688.907545C63.954499 688.907545 0 668.736793 0 631.36274c0-35.514451 108.307997-111.576149 172.515718-111.576149 28.273871 0 75.713517 14.496986 75.713518 111.576149 0 37.374053-63.938673 57.544805-124.102748 57.544805z m48.38923-145.373435c-57.758462 0-146.829464 70.071404-148.776112 87.963154 0 13.650274 39.107045 33.670675 100.386882 33.670675 61.271924 0 100.371055-20.020401 100.371055-33.797286-0.007913-58.288646-17.49609-87.836543-51.981825-87.836543z" fill="#33363A" /><path d="M787.656394 631.36274c0 25.227288 50.248833 45.667089 112.240858 45.667089s112.240858-20.447714 112.240858-45.667089-98.65389-99.706346-160.645915-99.706346c-61.984112 0.007913-63.835801 74.486971-63.835801 99.706346z" fill="#EA81BD" /><path d="M787.656394 631.36274c0 25.227288 50.248833 45.667089 112.240858 45.667089s112.240858-20.447714 112.240858-45.667089-103.89243-14.67899-165.884455-14.67899-58.597261-10.540385-58.597261 14.67899z" fill="#D363A9" /><path d="M899.897252 688.907545c-60.164075 0-124.110661-20.170752-124.110661-57.536892 0-97.079163 47.431733-111.576149 75.697691-111.576149 64.207722 0 172.515718 76.053785 172.515718 111.576149 0 37.36614-63.938673 57.536892-124.102748 57.536892z m-48.405057-145.373435c-34.477821 0-51.958085 29.547897-51.958085 87.836543 0 13.776885 39.099131 33.797286 100.371055 33.797286s100.371055-20.020401 100.371055-33.797286c-1.962474-17.765139-91.025563-87.836543-148.784025-87.836543z" fill="#33363A" /><path d="M162.022812 837.311737a171.360391 51.760255 0 1 0 342.720782 0 171.360391 51.760255 0 1 0-342.720782 0Z" fill="#EA81BD" /><path d="M504.743594 837.311737c0 28.574573-76.718494 0-171.352478 0-94.641897 0-171.360391 28.574573-171.360391 0 0-28.590399 76.718494-51.760255 171.360391-51.760255 94.633983 0 171.352478 23.169856 171.352478 51.760255z" fill="#D363A9" /><path d="M333.391116 900.941795c-91.057216 0-183.230194-21.856264-183.230194-63.630058s92.172978-63.630058 183.230194-63.630058c91.049303 0 183.222281 21.856264 183.222281 63.630058s-92.172978 63.630058-183.222281 63.630058z m0-103.52051c-103.196068 0-159.490588 26.350963-159.490587 39.890452s56.294519 39.890452 159.490587 39.890451 159.482674-26.350963 159.482675-39.890451-56.294519-39.890452-159.482675-39.890452z" fill="#33363A" /><path d="M519.264319 837.311737a171.360391 51.760255 0 1 0 342.720782 0 171.360391 51.760255 0 1 0-342.720782 0Z" fill="#EA81BD" /><path d="M519.264319 837.311737c0 28.574573 76.718494 0 171.360391 0 94.633983 0 171.352478 28.574573 171.352478 0 0-28.590399-76.718494-51.760255-171.352478-51.760255-94.641897 0-171.360391 23.169856-171.360391 51.760255z" fill="#D363A9" /><path d="M690.62471 900.941795c-91.057216 0-183.230194-21.856264-183.230194-63.630058s92.172978-63.630058 183.230194-63.630058c91.049303 0 183.222281 21.856264 183.222281 63.630058s-92.165064 63.630058-183.222281 63.630058z m0-103.52051c-103.196068 0-159.490588 26.350963-159.490587 39.890452s56.294519 39.890452 159.490587 39.890451 159.482674-26.350963 159.482675-39.890451-56.286606-39.890452-159.482675-39.890452z" fill="#33363A" /><path d="M159.751723 134.951748c-44.757071 61.493493-54.142129 145.341782-16.863033 217.533925 37.263269 72.223795 111.030138 113.13505 187.099749 112.272511 44.757071-61.493493 54.142129-145.325956 16.863034-217.533925-37.271182-72.207969-111.022225-113.119224-187.09975-112.272511z" fill="#9E3256" /><path d="M159.751723 134.951748c-44.757071 61.493493 37.041699 132.498655 74.320794 204.690798 37.263269 72.223795 19.854224 125.978177 95.923836 125.115638 44.757071-61.493493 54.142129-145.325956 16.863033-217.533925S235.829248 134.105035 159.751723 134.951748z" fill="#FFCAE8" /><path d="M159.751723 134.951748c-44.757071 61.493493 37.041699 132.498655 74.320794 204.690798 37.263269 72.223795 19.854224 125.978177 95.923836 125.115638 44.757071-61.493493 25.33016-92.687336-11.948936-164.895305-37.271182-72.223795-82.218169-165.757844-158.295694-164.911131z" fill="#EFA3CC" /><path d="M357.399771 241.772063c-38.276158-74.146703-113.981763-119.813792-197.782572-118.690118a11.88563 11.88563 0 0 0-9.46419 4.882446c-49.275509 67.705357-56.096689 155.818862-17.812618 229.965565 37.872585 73.402862 112.494081 118.713857 195.202869 118.713857l2.579704-0.015826a11.88563 11.88563 0 0 0 9.464189-4.882446c49.267596-67.697444 56.096689-155.818862 17.812618-229.973478z m-1.044542 73.814349c0.063306 0.458966 0.087045 0.917931 0.142437 1.376897a193.715187 193.715187 0 0 1 1.709252 24.562579c0.007913 2.271089-0.126611 4.542178-0.19783 6.813267-0.063306 2.049519-0.047479 4.106952-0.182004 6.148558-0.166177 2.650923-0.490619 5.286019-0.759667 7.921115-0.17409 1.661772-0.269049 3.339371-0.482706 4.993231a195.012952 195.012952 0 0 1-4.550091 23.256901c-0.189917 0.743841-0.324441 1.503508-0.522271 2.247349a194.09502 194.09502 0 0 1-3.711292 12.115112l-0.118698 0.379834a196.532286 196.532286 0 0 1-4.629223 12.154678l-0.047479 0.126612a198.581806 198.581806 0 0 1-19.134123 35.126704c-38.339464-1.18698-43.854966-19.118296-55.28163-56.310346-5.6342-18.350716-12.028067-39.154524-23.977002-62.32438-10.564125-20.463541-24.49136-40.681772-37.951717-60.227381-33.306667-48.365491-62.261074-90.416247-40.563074-127.109764 3.671726 0.071219 7.319712 0.300702 10.951872 0.56975 0.775494 0.055392 1.558901 0.055392 2.326481 0.126611 3.798337 0.324441 7.557108 0.81506 11.300053 1.353158 0.648883 0.094958 1.305678 0.134524 1.946648 0.237396 3.82999 0.59349 7.6125 1.337331 11.371271 2.152391 0.538098 0.118698 1.092022 0.189917 1.63012 0.308615 3.996167 0.894192 7.936942 1.938735 11.846063 3.070322 0.292788 0.087045 0.585577 0.142438 0.878366 0.229483 3.790424 1.123675 7.525455 2.389787 11.22092 3.727118 0.39566 0.142438 0.807147 0.253222 1.194894 0.39566 3.640073 1.345244 7.224753 2.84084 10.769868 4.399741 0.427313 0.189917 0.870452 0.340268 1.297765 0.530184 3.43433 1.535161 6.789527 3.21276 10.120985 4.945751 0.514358 0.269049 1.044543 0.490619 1.558901 0.759668 3.244413 1.725078 6.417607 3.584681 9.559148 5.491762 0.553924 0.340268 1.139501 0.633056 1.701339 0.973324 2.84084 1.764644 5.594634 3.655899 8.340515 5.562981 0.81506 0.561837 1.661772 1.068282 2.461005 1.645946 2.737968 1.962474 5.380977 4.059473 8.016074 6.164384 0.751754 0.601403 1.543074 1.147414 2.286915 1.756731 2.445179 2.017867 4.7954 4.162344 7.145622 6.306822 0.862539 0.783407 1.772557 1.511422 2.627183 2.318569 2.152391 2.033693 4.193997 4.186084 6.259343 6.322648 0.973324 1.004977 1.994127 1.946648 2.943711 2.975364 1.669686 1.80421 3.2365 3.719205 4.834966 5.586721 1.250286 1.456029 2.555964 2.864579 3.774598 4.360174 1.550988 1.914995 2.983277 3.940775 4.463046 5.926988 1.163241 1.550988 2.381874 3.046583 3.497635 4.637137 2.286915 3.252326 4.44722 6.615437 6.544218 10.03394 0.237396 0.387747 0.506445 0.751754 0.743841 1.147414a197.885444 197.885444 0 0 1 26.643752 74.732281zM153.436988 347.04139A194.356156 194.356156 0 0 1 139.517666 202.577973c8.744088 28.265958 28.289697 56.808878 47.59791 84.853266 13.040957 18.952119 26.532967 38.537294 36.408643 57.65559 10.975611 21.2786 17.037124 41.006213 22.386448 58.415257 4.162344 13.547402 8.174338 26.414268 14.06176 37.524405A194.459028 194.459028 0 0 1 153.436988 347.04139z" fill="#33363A" /><path d="M864.25619 134.951748c44.757071 61.493493 54.142129 145.341782 16.863034 217.533925-37.263269 72.223795-111.022225 113.13505-187.09975 112.272511-44.764984-61.493493-54.142129-145.325956-16.863034-217.533925 37.271182-72.207969 111.030138-113.119224 187.09975-112.272511z" fill="#9E3256" /><path d="M864.25619 134.951748c44.757071 61.493493-37.033786 132.498655-74.312881 204.690798-37.263269 72.223795-19.854224 125.978177-95.923835 125.115638-44.764984-61.493493-54.142129-145.325956-16.863034-217.533925 37.271182-72.207969 111.030138-113.119224 187.09975-112.272511z" fill="#FFCAE8" /><path d="M864.25619 134.951748c44.757071 61.493493-37.033786 132.498655-74.312881 204.690798-37.263269 72.223795-19.854224 125.978177-95.923835 125.115638-44.764984-61.493493-25.338073-92.687336 11.941022-164.895305 37.263269-72.223795 82.226083-165.757844 158.295694-164.911131z" fill="#EFA3CC" /><path d="M873.854904 127.964391a11.88563 11.88563 0 0 0-9.46419-4.882446c-83.420976-1.068282-159.498501 44.551328-197.774659 118.690118-38.284072 74.16253-31.462891 162.283948 17.812618 229.973478 2.207783 3.030756 5.713332 4.834966 9.46419 4.882446l2.579704 0.015826c82.700875 0 157.330283-45.310995 195.194955-118.705944 38.284072-74.146703 31.454978-162.268122-17.812618-229.973478zM694.296436 240.893697c0.007913-0.007913 0.007913-0.007913 0 0 2.318568-3.82999 4.755834-7.557108 7.295972-11.189267l0.150351-0.197831a195.163303 195.163303 0 0 1 16.435721-20.329016l0.150351-0.15035c2.927885-3.149454 5.942815-6.20395 9.060616-9.147662l0.126611-0.110785c3.125715-2.943711 6.338475-5.784551 9.646194-8.506692l0.253222-0.189917a196.643071 196.643071 0 0 1 10.041853-7.723285c0.364007-0.261136 0.751754-0.490619 1.123675-0.751754 3.165281-2.239436 6.378041-4.415567 9.669933-6.457173 0.585577-0.364007 1.202807-0.672622 1.788384-1.028717a196.168279 196.168279 0 0 1 9.456276-5.436369c0.743841-0.39566 1.527248-0.728015 2.279002-1.115762 3.094062-1.590554 6.20395-3.165281 9.392971-4.589657 0.949584-0.427313 1.938735-0.775494 2.888319-1.18698 3.030756-1.297765 6.061513-2.59553 9.163488-3.742945 1.123675-0.4194 2.286915-0.743841 3.418503-1.139501 2.975364-1.036629 5.950728-2.089085 8.989398-2.983277 1.163241-0.340268 2.358134-0.59349 3.529288-0.917932 3.046583-0.838799 6.093166-1.693425 9.195141-2.381873 1.202807-0.269049 2.429353-0.443139 3.632159-0.688449 3.109888-0.633056 6.211864-1.281939 9.369232-1.772557 1.18698-0.182004 2.3977-0.269049 3.592593-0.435226 3.21276-0.435226 6.417607-0.878365 9.669933-1.163241 1.004977-0.087045 2.02578-0.087045 3.03867-0.158264 3.402677-0.245309 6.813267-0.466879 10.25551-0.538098 21.698 36.693518-7.256406 78.744274-40.555161 127.117678-13.460357 19.553522-27.379679 39.76384-37.943804 60.227381-11.948935 23.161942-18.342802 43.965751-23.977002 62.316466-11.426664 37.19205-16.934252 55.131279-55.28163 56.310346a198.233625 198.233625 0 0 1-19.134122-35.118791c-0.126611-0.308615-0.229483-0.625143-0.356094-0.933757-21.72174-52.472443-19.767179-112.137986 7.058576-164.111898 2.065346-4.019907 4.265216-7.952768 6.575871-11.774845z m176.274489 106.155606c-22.995765 44.567154-61.200705 77.486075-106.519613 93.977188 5.887422-11.102222 9.899416-23.977002 14.06176-37.524405 5.341411-17.409045 11.402924-37.128744 22.386449-58.407344 9.875676-19.126209 23.359772-38.719298 36.400729-57.65559 19.308213-28.044388 38.853822-56.587308 47.597911-84.861179a194.451114 194.451114 0 0 1-13.927236 144.47133z" fill="#33363A" /><path d="M901.408674 554.849989c0 163.613366-174.343668 296.278199-389.400761 296.278199-215.065006 0-389.40076-132.672746-389.40076-296.278199 0-163.645019 174.335755-359.726253 389.40076-359.726252 215.057093 0 389.40076 196.081234 389.400761 359.726252z" fill="#FFCAE8" /><path d="M901.408674 554.849989c0 163.613366-174.343668 296.278199-389.400761 296.278199-215.065006 0-389.40076-132.672746-389.40076-296.278199 0-163.645019 174.335755-276.392322 389.40076-276.392322 215.057093 0 389.40076 112.747303 389.400761 276.392322z" fill="#EFA3CC" /><path d="M901.408674 554.849989c0 163.613366-174.343668 296.278199-389.400761 296.278199-215.065006 0-389.40076-132.672746-389.40076-296.278199 0-163.660845 49.544558 145.128126 389.40076 145.128126 339.848289-0.007913 389.40076-308.788971 389.400761-145.128126z" fill="#EA81BD" /><path d="M512.007913 862.997991c-221.261043 0-401.270564-138.235727-401.270563-308.148002 0-168.313808 178.996631-371.596056 401.270563-371.596056s401.270564 203.282248 401.270564 371.596056c0 169.912275-180.009521 308.148002-401.270564 308.148002z m0-656.004451c-209.130104 0-377.530957 190.296683-377.530957 347.856449 0 156.823839 169.358351 284.408395 377.530957 284.408396s377.530957-127.584557 377.530958-284.408396c0-157.56768-168.400853-347.85645-377.530958-347.856449z" fill="#33363A" /><path d="M384.114741 537.765386a63.701277 63.701277 0 0 1-63.725016 63.70919 63.701277 63.701277 0 0 1-63.70919-63.70919 63.701277 63.701277 0 0 1 63.70919-63.70919 63.717103 63.717103 0 0 1 63.725016 63.70919z" fill="#14A594" /><path d="M288.713177 517.056536m-25.963216 0a25.963216 25.963216 0 1 0 51.926432 0 25.963216 25.963216 0 1 0-51.926432 0Z" fill="#FFFFFF" /><path d="M320.389725 462.194306c-25.630861 0-48.286359 12.85104-61.960372 32.420389-0.878365 1.18698-1.653859 2.429353-2.389787 3.719205a74.993416 74.993416 0 0 0-11.228834 39.431486c0 41.678835 33.908071 75.578993 75.578993 75.578993 41.686748 0 75.594819-33.900158 75.59482-75.578993s-33.908071-75.57108-75.59482-75.57108z m0 127.410467a51.894779 51.894779 0 0 1-47.843219-31.921857c5.444283-0.142438 12.067633-1.58264 19.529782-3.133628 2.658836-0.237396 5.222713-0.735928 7.699546-1.503509 6.472999-1.171154 13.389138-2.112825 20.621804-2.112825 19.094557 0 36.17916 6.433433 47.859046 6.749962a51.934345 51.934345 0 0 1-47.866959 31.921857z" fill="#33363A" /><path d="M288.705264 517.064449m-14.0855 0a14.0855 14.0855 0 1 0 28.171 0 14.0855 14.0855 0 1 0-28.171 0Z" fill="#FFFFFF" /><path d="M767.327378 537.765386a63.693363 63.693363 0 0 1-63.70919 63.70919 63.701277 63.701277 0 0 1-63.717103-63.70919 63.717103 63.717103 0 0 1 127.426293 0z" fill="#14A594" /><path d="M671.925814 517.056536m-25.955303 0a25.955303 25.955303 0 1 0 51.910606 0 25.955303 25.955303 0 1 0-51.910606 0Z" fill="#FFFFFF" /><path d="M703.618188 462.194306c-25.638775 0-48.294272 12.85104-61.968285 32.420389-0.878365 1.18698-1.653859 2.429353-2.389787 3.719205a74.993416 74.993416 0 0 0-11.228834 39.431486c0 41.678835 33.908071 75.578993 75.586906 75.578993 41.670922 0 75.578993-33.900158 75.578993-75.578993s-33.908071-75.57108-75.578993-75.57108z m0 127.410467a51.910606 51.910606 0 0 1-47.851133-31.921857c5.444283-0.142438 12.067633-1.58264 19.529783-3.133628 2.658836-0.237396 5.2148-0.735928 7.683719-1.495596 6.480912-1.171154 13.404964-2.120738 20.637631-2.120738 19.086643 0 36.171247 6.433433 47.84322 6.749962a51.894779 51.894779 0 0 1-47.84322 31.921857z" fill="#33363A" /><path d="M671.925814 517.064449m-14.0855 0a14.0855 14.0855 0 1 0 28.170999 0 14.0855 14.0855 0 1 0-28.170999 0Z" fill="#FFFFFF" /><path d="M571.85546 552.468115c0 8.00816-26.93654 9.44045-60.187814 9.44045-33.235449 0-60.179902-1.440203-60.179902-9.44045 0-7.992334 26.944453-28.91484 60.179902-28.91484 33.243362-0.007913 60.187815 20.922506 60.187814 28.91484z" fill="#FFCAE8" /><path d="M441.612068 616.68375a70.387932 70.387932 0 0 0 70.387932 70.387932 70.395846 70.395846 0 0 0 70.403759-70.387932H441.612068z" fill="#9E3256" /><path d="M512 698.933572c-45.358474 0-82.265649-36.899261-82.265649-82.257735a11.869803 11.869803 0 0 1 11.869803-11.869803h140.791692a11.869803 11.869803 0 0 1 11.869803 11.869803c0.007913 45.358474-36.899261 82.257735-82.265649 82.257735z m-57.315323-70.380019c5.499675 26.588359 29.11267 46.648326 57.315323 46.648326 28.202652 0 51.815647-20.052054 57.323236-46.648326H454.684677z" fill="#33363A" /><path d="M512 286.972273m-152.012612 0a152.012612 152.012612 0 1 0 304.025224 0 152.012612 152.012612 0 1 0-304.025224 0Z" fill="#FFCAE8" /><path d="M512 347.136348m-152.012612 0a152.012612 152.012612 0 1 0 304.025224 0 152.012612 152.012612 0 1 0-304.025224 0Z" fill="#EFA3CC" /><path d="M512.007913 123.081945c-42.248586 0-80.690921 16.206238-109.787765 42.557201-0.799233 0.443139-1.638033 0.767581-2.342308 1.40855-65.988192 60.464777-70.490804 163.360143-10.041853 229.372075a131.493679 131.493679 0 0 0 91.753577 42.786683 131.287935 131.287935 0 0 0 95.140429-34.620259 107.421718 107.421718 0 0 0 34.992179-75.025069 107.492937 107.492937 0 0 0-28.329263-77.834255c-33.124664-36.147507-89.490402-38.616426-125.645822-5.499676-29.880251 27.427158-31.921857 74.028005-4.550092 103.908257a11.869803 11.869803 0 1 0 17.504003-16.040061c-18.532719-20.226144-17.147909-51.791908 3.086149-70.364193 26.509227-24.269791 67.831968-22.449754 92.101759 4.043647a83.927421 83.927421 0 0 1 22.1174 60.757565 83.80081 83.80081 0 0 1-27.316374 58.557695 107.912337 107.912337 0 0 1-78.063738 28.408396 107.872771 107.872771 0 0 1-75.294118-35.110878c-23.375599-25.52799-35.261228-57.505239-36.163333-89.656579 0.403573-1.18698 0.664709-2.445179 0.664709-3.766684 0-77.280331 62.87039-140.150722 140.150722-140.150722 77.272418 0 140.134895 62.87039 140.134895 140.150722a11.869803 11.869803 0 1 0 23.739606 0c0.02374-90.360854-73.489908-163.882415-163.850762-163.882415z" fill="#33363A" /></svg>