<?xml version="1.0" standalone="no"?><!DOCTYPE svg PUBLIC "-//W3C//DTD SVG 1.1//EN" "http://www.w3.org/Graphics/SVG/1.1/DTD/svg11.dtd"><svg class="icon" width="200px" height="200.00px" viewBox="0 0 1024 1024" version="1.1" xmlns="http://www.w3.org/2000/svg"><path d="M914.839501 215.41412c50.677645 69.636593 61.309431 164.583904 19.095459 246.345872-42.197913 81.778029-125.726492 128.103387-211.880898 127.131751-50.693705-69.652653-61.309431-164.567844-19.087429-246.345872 42.205943-81.778029 125.718462-128.103387 211.872868-127.131751z" fill="#4F4B48" /><path d="M722.054062 588.891743c-50.693705-69.652653-61.309431-164.567844-19.087429-246.345872 42.205943-81.778029 125.718462-128.103387 211.872868-127.131751" fill="#33363A" /><path d="M724.800339 600.944848l-2.874758-0.01606a12.061135 12.061135 0 0 1-9.60394-4.954541c-55.479615-76.229264-63.156343-175.464622-20.051035-258.961081 42.663655-82.645274 126.706158-133.668212 219.830648-133.668211l2.874758 0.01606c3.806244 0.04818 7.363556 1.879032 9.60394 4.954541 55.479615 76.229264 63.164373 175.464622 20.059064 258.961081-42.647595 82.653304-126.706158 133.668212-219.838677 133.668211z m183.815873-373.477623c-82.685424 1.252688-156.987477 47.040033-194.945522 120.60332-37.974106 73.555258-32.272771 160.649179 14.60666 228.768093 82.693454-1.252688 156.995507-47.040033 194.945523-120.60332 37.982136-73.555258 32.272771-160.641149-14.606661-228.768093z" fill="#33363A" /><path d="M877.78082 302.580312c31.196744 42.848347 37.733205 101.28302 11.747963 151.615373-25.969182 50.332353-77.385591 78.855091-130.408011 78.244807-31.196744-42.864407-37.725175-101.28302-11.747963-151.615373 25.969182-50.340383 77.377561-78.855091 130.408011-78.244807z" fill="#EFA3CC" /><path d="M760.839203 544.493597l-1.862972-0.00803a12.037045 12.037045 0 0 1-9.595909-4.954541c-35.179649-48.340901-40.045859-111.264372-12.711569-164.230581 27.045208-52.412136 80.33262-84.773237 139.385607-84.773238l1.862971 0.00803a12.045075 12.045075 0 0 1 9.59591 4.954541c35.187679 48.340901 40.053889 111.264372 12.711569 164.230582-27.053238 52.420166-80.33262 84.773237-139.385607 84.773237z m110.686209-229.803969c-48.18833 1.59798-91.261518 28.643188-113.456576 71.660165-22.203088 43.000917-19.28818 93.790983 7.291285 133.989414 48.17227-1.59798 91.253488-28.643188 113.456576-71.660166 22.211118-43.016978 19.30424-93.790983-7.291285-133.989413z" fill="#33363A" /><path d="M109.152469 215.41412c-50.685675 69.636593-61.317461 164.583904-19.095459 246.345872C132.254923 543.529991 215.783502 589.863379 301.929878 588.891743c50.693705-69.652653 61.309431-164.567844 19.103489-246.345872-42.205943-81.778029-125.734522-128.103387-211.880898-127.131751z" fill="#4F4B48" /><path d="M301.929878 588.891743c50.693705-69.652653 61.309431-164.567844 19.103489-246.345872-42.205943-81.778029-125.726492-128.103387-211.880898-127.131751" fill="#33363A" /><path d="M299.183601 600.944848c-93.140549 0-177.175022-51.022937-219.830647-133.668211C36.239615 383.796237 43.924373 284.56088 99.412018 208.323586a12.069165 12.069165 0 0 1 9.60394-4.954541l2.874758-0.01606c93.140549 0 177.175022 51.022937 219.838678 133.668212 43.097278 83.496459 35.40449 182.723787-20.067095 258.95305a12.069165 12.069165 0 0 1-9.60394 4.954541c-0.955576 0.01606-1.919182 0.01606-2.874758 0.01606z m-183.815873-373.477623c-46.879432 68.126944-52.588797 155.220866-14.606661 228.760063 37.958046 73.555258 112.252068 119.342602 194.937492 120.61135 46.871402-68.118914 52.588797-155.212836 14.622721-228.768093-37.958046-73.555258-112.268128-119.342602-194.953552-120.60332z" fill="#33363A" /><path d="M146.21115 302.580312c-31.196744 42.848347-37.733205 101.28302-11.755994 151.615373 25.969182 50.332353 77.385591 78.855091 130.408012 78.244807 31.196744-42.864407 37.733205-101.28302 11.755993-151.615373-25.977212-50.340383-77.377561-78.855091-130.408011-78.244807z" fill="#EFA3CC" /><path d="M263.144737 544.493597c-59.052987 0-112.332369-32.345041-139.385607-84.781267-27.34232-52.966209-22.46808-115.897711 12.719599-164.222552a12.053105 12.053105 0 0 1 9.59591-4.954541l1.862971-0.00803c59.052987 0 112.332369 32.345041 139.385607 84.781268 27.33429 52.958179 22.46005 115.881651-12.719599 164.222551a12.045075 12.045075 0 0 1-9.595909 4.954541l-1.862972 0.00803zM152.458528 314.689628c-26.595525 40.1904-29.502404 90.972436-7.299315 133.981383 22.195058 43.016978 65.284306 70.062186 113.456576 71.668196 26.595525-40.20646 29.502404-90.980466 7.299315-133.981384-22.195058-43.025008-65.284306-70.070216-113.456576-71.668195z" fill="#33363A" /><path d="M907.146713 619.534414c0 166.029313-176.918061 300.6531-395.150728 300.6531-218.240698 0-395.150728-134.631818-395.150728-300.6531 0-166.061433 176.910031-365.038041 395.150728-365.038041 218.232668 0 395.150728 198.976608 395.150728 365.038041z" fill="#FBFCF2" /><path d="M907.146713 619.534414c0 166.029313-176.918061 300.6531-395.150728 300.6531-218.240698 0-395.150728-134.631818-395.150728-300.6531 0-166.061433 176.910031-280.473585 395.150728-280.473585 218.232668 0 395.150728 114.412152 395.150728 280.473585z" fill="#EAE4C5" /><path d="M907.146713 619.534414c0 166.029313-176.918061 300.6531-395.150728 300.6531-218.240698 0-395.150728-134.631818-395.150728-300.6531 0-166.077493 50.284173 147.271116 395.150728 147.271116 344.874585 0 395.150728-313.348609 395.150728-147.271116z" fill="#DDD2B1" /><path d="M511.995985 932.232589c-224.528227 0-407.195803-140.276943-407.195803-312.698175 0-170.799162 181.6317-377.083116 407.195803-377.083116s407.195803 206.283953 407.195803 377.083116c0 172.429263-182.667576 312.698175-407.195803 312.698175z m0-665.691141c-212.21816 0-383.105653 193.106641-383.105653 352.992966 0 159.13953 171.859129 288.608025 383.105653 288.608025s383.105653-129.468495 383.105653-288.608025c0-159.886325-170.887493-352.992966-383.105653-352.992966z" fill="#33363A" /><path d="M382.214318 602.205566a64.641902 64.641902 0 0 1-64.665993 64.649932 64.641902 64.641902 0 1 1 0-129.299864 64.649932 64.649932 0 0 1 64.665993 64.649932z" fill="#A35616" /><path d="M285.404035 581.190925m-26.338563 0a26.338564 26.338564 0 1 0 52.677127 0 26.338564 26.338564 0 1 0-52.677127 0Z" fill="#FFFFFF" /><path d="M317.548325 525.510559c-26.041452 0-49.063605 13.072921-62.931501 32.979415a39.154524 39.154524 0 0 0-2.312654 3.597463 76.156994 76.156994 0 0 0-11.450852 40.118129c0 42.294273 34.400734 76.695007 76.695007 76.695007 42.302303 0 76.711067-34.400734 76.711068-76.695007s-34.408764-76.695007-76.711068-76.695007z m0 129.299864a52.661068 52.661068 0 0 1-48.549682-32.393221c5.524674-0.144541 12.245826-1.60601 19.826194-3.1799a37.339732 37.339732 0 0 0 7.797178-1.525709c6.576611-1.188447 13.594875-2.144023 20.92631-2.144024 19.376511 0 36.713388 6.528431 48.565742 6.849633a52.693188 52.693188 0 0 1-48.565742 32.393221z" fill="#33363A" /><path d="M285.396005 581.198955m-14.293489 0a14.293489 14.293489 0 1 0 28.586978 0 14.293489 14.293489 0 1 0-28.586978 0Z" fill="#FFFFFF" /><path d="M771.077517 602.205566a64.633872 64.633872 0 0 1-64.649933 64.649932 64.641902 64.641902 0 0 1-64.657962-64.649932 64.641902 64.641902 0 0 1 64.657962-64.649932 64.641902 64.641902 0 0 1 64.649933 64.649932z" fill="#A35616" /><path d="M674.275264 581.190925m-26.338563 0a26.338564 26.338564 0 1 0 52.677127 0 26.338564 26.338564 0 1 0-52.677127 0Z" fill="#FFFFFF" /><path d="M706.435615 525.510559c-26.001302 0-48.991335 13.032771-62.867262 32.883055-0.907396 1.212538-1.694341 2.489315-2.449165 3.806243a76.100783 76.100783 0 0 0-11.378581 39.997679c0 42.294273 34.408764 76.695007 76.703038 76.695007s76.695007-34.400734 76.695007-76.695007-34.416794-76.686977-76.703037-76.686977z m0 129.299864a52.677128 52.677128 0 0 1-48.557713-32.393221c5.524674-0.144541 12.245826-1.60601 19.818164-3.1799 2.698097-0.240901 5.299833-0.746795 7.813238-1.525709 6.568581-1.188447 13.594875-2.144023 20.926311-2.144024 19.36848 0 36.705358 6.528431 48.549682 6.849633a52.677128 52.677128 0 0 1-48.549682 32.393221z" fill="#33363A" /><path d="M674.283295 581.198955m-14.293489 0a14.293489 14.293489 0 1 0 28.586977 0 14.293489 14.293489 0 1 0-28.586977 0Z" fill="#FFFFFF" /><path d="M642.315666 680.466433c0 11.169799-58.346343 13.177312-130.319681 13.177312-71.981368 0-130.335741-2.007512-130.335741-13.177312 0-11.18586 58.362403-40.399181 130.335741-40.399181 71.981368 0 130.319681 29.213322 130.319681 40.399181z" fill="#FBFCF2" /><path d="M845.275178 684.232526l160.022836-123.510198-184.482368 52.805609" fill="#EAE4C5" /><path d="M845.283208 696.277601a12.045075 12.045075 0 0 1-7.363556-21.584774l110.244556-85.094439-124.032151 35.508881a12.045075 12.045075 0 1 1-6.632822-23.158664l184.490398-52.805609a12.045075 12.045075 0 0 1 10.671936 21.119031l-160.030865 123.502169a11.964774 11.964774 0 0 1-7.347496 2.513405z" fill="#33363A" /><path d="M178.716792 684.232526L18.685926 560.722328l184.490398 52.805609" fill="#EAE4C5" /><path d="M178.708762 696.277601c-2.569616 0-5.163322-0.819065-7.347496-2.513405L11.3304 570.253997a12.045075 12.045075 0 0 1 10.671937-21.119031l184.490398 52.805608a12.045075 12.045075 0 0 1-6.632822 23.158665L75.819732 589.598388l110.244555 85.094439a12.045075 12.045075 0 0 1-7.355525 21.584774z" fill="#33363A" /><path d="M849.763976 684.682209l162.190949 125.172419-186.979713-53.528313" fill="#DDD2B1" /><path d="M1011.954925 821.899703c-1.100117 0-2.208264-0.152571-3.316411-0.465743l-186.971683-53.528313a12.045075 12.045075 0 0 1 6.632822-23.158664l126.513437 36.223555-112.39661-86.748629a12.045075 12.045075 0 1 1 14.719082-19.071369l162.182919 125.172419a12.045075 12.045075 0 0 1-7.363556 21.576744z" fill="#33363A" /><path d="M174.227994 684.682209L12.045075 809.854628l186.963653-53.528313" fill="#DDD2B1" /><path d="M12.045075 821.899703a12.045075 12.045075 0 0 1-7.355526-21.576744l162.182919-125.172419a12.045075 12.045075 0 0 1 14.719082 19.071369L69.19494 780.962508l126.497377-36.223555a12.045075 12.045075 0 0 1 6.632822 23.158664l-186.963653 53.528313a11.579332 11.579332 0 0 1-3.316411 0.473773z" fill="#33363A" /><path d="M709.776115 355.530462l5.107112-202.068177-75.402169 176.460347" fill="#EAE4C5" /><path d="M709.784145 367.575537h-0.313172a12.061135 12.061135 0 0 1-11.739933-12.350217l3.525192-139.208946-50.701735 118.635958a12.012955 12.012955 0 0 1-15.811168 6.335709 12.037045 12.037045 0 0 1-6.33571-15.811168l75.410199-176.460348a12.085225 12.085225 0 0 1 13.635025-7.034324 12.061135 12.061135 0 0 1 9.483489 12.077195l-5.115142 202.076208a12.061135 12.061135 0 0 1-12.037045 11.739933z" fill="#33363A" /><path d="M314.207825 355.530462l-5.115142-202.068177 75.410199 176.460347" fill="#EAE4C5" /><path d="M314.199795 367.575537a12.045075 12.045075 0 0 1-12.037045-11.739933l-5.115142-202.068177a12.045075 12.045075 0 0 1 23.118514-5.042872l75.410199 176.460348a12.037045 12.037045 0 0 1-6.33571 15.811168 12.012955 12.012955 0 0 1-15.811168-6.335709L322.727708 216.016374l3.525192 139.208946a12.053105 12.053105 0 0 1-11.739934 12.350217h-0.313171z" fill="#33363A" /><path d="M636.734781 394.082731c0 58.282103-47.272904 105.538947-105.555007 105.538947h-38.367578c-58.298163 0-105.555007-47.256844-105.555007-105.538947V209.375522c0-58.298163 47.256844-105.563037 105.555007-105.563036h38.367578c58.282103 0 105.555007 47.272904 105.555007 105.563036v184.707209z" fill="#FFD039" /><path d="M531.179774 164.913136h-38.367578c-58.298163 0-105.555007 47.272904-105.555007 105.571067v123.598528c0 58.282103 47.256844 105.538947 105.555007 105.538947h38.367578c58.282103 0 105.555007-47.256844 105.555007-105.538947V270.476173c0-58.298163-47.272904-105.563037-105.555007-105.563037z" fill="#FFB000" /><path d="M627.170991 213.358427c0 7.307345-5.918147 13.233522-13.217462 13.233523h-213.037225a13.225492 13.225492 0 1 1 0-26.450985h213.037225a13.225492 13.225492 0 0 1 13.217462 13.217462zM627.170991 283.211832c0 7.307345-5.918147 13.233522-13.217462 13.233522h-213.037225a13.225492 13.225492 0 1 1 0-26.450984h213.037225c7.291285 0 13.217462 5.926177 13.217462 13.217462zM627.170991 359.714118c0 7.307345-5.918147 13.241552-13.217462 13.241552h-213.037225a13.225492 13.225492 0 1 1 0-26.459015h213.037225c7.291285 0 13.217462 5.926177 13.217462 13.217463zM627.170991 436.224434c0 7.307345-5.918147 13.233522-13.217462 13.233522h-213.037225a13.225492 13.225492 0 1 1 0-26.450985h213.037225a13.225492 13.225492 0 0 1 13.217462 13.217463z" fill="#EA7B1F" /><path d="M531.179774 511.658723h-38.367578c-64.842653 0-117.600082-52.741368-117.600082-117.584022V209.375522c0-64.850683 52.749398-117.608112 117.600082-117.608111h38.367578c64.842653 0 117.600082 52.757428 117.600082 117.608111v184.707209c0 64.834623-52.749398 117.575991-117.600082 117.575992z m-38.367578-395.809192c-51.560951 0-93.509932 41.957011-93.509932 93.517961v184.707209c0 51.552921 41.948981 93.493872 93.509932 93.493872h38.367578c51.560951 0 93.509932-41.940951 93.509932-93.493872V209.375522c0-51.568981-41.948981-93.517962-93.509932-93.517961h-38.367578z" fill="#33363A" /><path d="M441.227155 205.529129h-7.652638a12.045075 12.045075 0 0 1 0-24.09015h7.652638a12.045075 12.045075 0 0 1 0 24.09015zM590.409423 205.529129h-7.644608a12.045075 12.045075 0 0 1 0-24.09015h7.644608a12.045075 12.045075 0 0 1 0 24.09015zM545.473263 205.529129h-66.946526a12.045075 12.045075 0 0 1 0-24.09015h66.946526a12.045075 12.045075 0 0 1 0 24.09015zM441.227155 282.039444h-7.652638a12.045075 12.045075 0 0 1 0-24.090149h7.652638a12.045075 12.045075 0 0 1 0 24.090149zM590.409423 282.039444h-7.644608a12.045075 12.045075 0 0 1 0-24.090149h7.644608a12.045075 12.045075 0 0 1 0 24.090149z" fill="#33363A" /><path d="M545.473263 282.039444h-66.946526a12.045075 12.045075 0 0 1 0-24.090149h66.946526a12.045075 12.045075 0 0 1 0 24.090149z" fill="#33363A" /><path d="M441.227155 358.54173h-7.652638a12.045075 12.045075 0 0 1 0-24.090149h7.652638a12.045075 12.045075 0 0 1 0 24.090149zM590.409423 358.54173h-7.644608a12.045075 12.045075 0 0 1 0-24.090149h7.644608a12.045075 12.045075 0 0 1 0 24.090149z" fill="#33363A" /><path d="M545.473263 358.54173h-66.946526a12.045075 12.045075 0 0 1 0-24.090149h66.946526a12.045075 12.045075 0 0 1 0 24.090149z" fill="#33363A" /><path d="M441.227155 435.044016h-7.652638a12.045075 12.045075 0 0 1 0-24.09015h7.652638a12.045075 12.045075 0 0 1 0 24.09015zM590.409423 435.044016h-7.644608a12.045075 12.045075 0 0 1 0-24.09015h7.644608a12.045075 12.045075 0 0 1 0 24.09015z" fill="#33363A" /><path d="M545.473263 435.044016h-66.946526a12.045075 12.045075 0 0 1 0-24.09015h66.946526a12.045075 12.045075 0 0 1 0 24.09015z" fill="#33363A" /><path d="M679.631308 693.981007a12.045075 12.045075 0 0 0 0 24.09015c8.857145 0 16.0601 7.202955 16.0601 16.0601s-7.202955 16.0601-16.0601 16.0601H344.352632c-8.857145 0-16.0601-7.202955-16.0601-16.0601s7.202955-16.0601 16.0601-16.0601a12.045075 12.045075 0 0 0 0-24.09015c-22.138848 0-40.15025 18.011402-40.15025 40.15025s18.011402 40.15025 40.15025 40.15025h9.049866v13.410183a12.045075 12.045075 0 0 0 24.09015 0v-13.410183h269.006674v13.410183a12.045075 12.045075 0 0 0 24.09015 0v-13.410183h9.041836c22.138848 0 40.15025-18.011402 40.15025-40.15025s-18.011402-40.15025-40.15025-40.15025z" fill="#33363A" /></svg>