<?xml version="1.0" standalone="no"?><!DOCTYPE svg PUBLIC "-//W3C//DTD SVG 1.1//EN" "http://www.w3.org/Graphics/SVG/1.1/DTD/svg11.dtd"><svg class="icon" width="200px" height="200.00px" viewBox="0 0 1024 1024" version="1.1" xmlns="http://www.w3.org/2000/svg"><path d="M726.722339 47.496893H518.407553L403.612042 248.951996h93.278865l-122.368408 248.623437 321.57969-287.754081H591.628257z" fill="#FFD400" /><path d="M478.611776 117.335838l-74.999734 131.616158h93.278865l-122.368408 248.623437 243.526756-217.915137H536.879012l58.114977-69.838944h-3.365732l76.963078-92.485514z" fill="#FFB000" /><path d="M374.514485 509.595906a12.012459 12.012459 0 0 1-10.778357-17.325508l113.841887-231.297929h-73.95796a12.028486 12.028486 0 0 1-10.449797-17.9666L507.957756 41.550766a12.0365 12.0365 0 0 1 10.449797-6.074345h208.314786a12.020472 12.020472 0 0 1 9.239736 19.713574L617.271931 197.80088h78.830258a12.012459 12.012459 0 0 1 8.013648 20.979731l-321.587704 287.754081a11.97239 11.97239 0 0 1-8.013648 3.061214z m49.780783-272.664382h72.595639a12.012459 12.012459 0 0 1 10.778357 17.325508L412.643423 447.329859l251.997183-225.488035h-73.012349a12.020472 12.020472 0 0 1-9.239737-19.713574l118.682131-142.610884H525.395454L424.295268 236.931524z" fill="#33363A" /><path d="M906.348264 676.456089c0 165.690191-176.556698 300.039004-394.343616 300.039004-217.794932 0-394.343616-134.356826-394.343617-300.039004 0-165.722246 176.548684-364.292436 394.343617-364.292435 217.786918 0 394.343616 198.578204 394.343616 364.292435z" fill="#FFF800" /><path d="M906.348264 676.456089c0 165.690191-176.556698 300.039004-394.343616 300.039004-217.794932 0-394.343616-134.356826-394.343617-300.039004 0-165.722246 176.548684-279.900706 394.343617-279.900706 217.786918 0.008014 394.343616 114.186474 394.343616 279.900706z" fill="#FFD400" /><path d="M595.979668 597.938364c0 11.163012-37.592024 13.166424-83.97502 13.166424s-83.97502-2.003412-83.97502-13.166424c0-11.179039 37.592024-40.364746 83.97502-40.364746S595.979668 586.759324 595.979668 597.938364z" fill="#FFF800" /><path d="M906.348264 676.456089c0 165.690191-176.556698 300.039004-394.343616 300.039004-217.794932 0-394.343616-134.356826-394.343617-300.039004 0-165.738273 50.173452 146.970309 394.343617 146.970309S906.348264 510.72583 906.348264 676.456089z" fill="#FFB000" /><path d="M512.004648 988.523579c-224.069619 0-406.364089-139.990421-406.364089-312.059476 0-170.450298 181.26071-376.312908 406.364089-376.312908S918.368737 506.013805 918.368737 676.456089c0 172.077069-182.29447 312.06749-406.364089 312.06749z m0-664.339453c-211.784696 0-382.323144 192.712213-382.323144 352.271963 0 158.814481 171.5081 288.018532 382.323144 288.018532S894.327792 835.278584 894.327792 676.456089c0-159.55975-170.546462-352.271963-382.323144-352.271963z" fill="#33363A" /><path d="M73.706171 378.829193c51.167144 84.471866 122.857241 134.132444 192.207353 142.731089 11.956363-86.178773-6.987901-186.173076-58.163059-270.644942C156.583321 166.419433 84.893224 116.758855 15.551126 108.192265c-11.964377 86.146719 6.987901 186.165062 58.155045 270.636928z" fill="#FFD400" /><path d="M15.551126 108.192265c-11.956363 86.146719 6.987901 186.157049 58.163058 270.628915 51.167144 84.471866 122.857241 134.132444 192.207354 142.731089L15.551126 108.192265z" fill="#FFB000" /><path d="M277.1727 411.0681c-8.342208-58.772096-28.793038-116.310091-59.132711-166.395392-51.423581-84.89659-124.692367-138.988715-201.022366-148.412765a11.996431 11.996431 0 0 0-13.374779 10.273497c-12.909987 92.974347 8.879122 194.491243 59.781816 278.514345 34.77122 57.425803 79.82395 101.148268 130.293907 126.439342a12.012459 12.012459 0 0 0 10.770343-21.492605c-46.407037-23.263621-88.069994-63.860763-120.493215-117.407961a415.299307 415.299307 0 0 1-36.598331-77.836565c48.883254-8.013648 105.43557 16.964893 98.680064-104.07325 18.73591 18.928237 36.085458 41.166111 51.39954 66.449172 28.680847 47.328607 48.001753 101.725251 55.895196 157.315928 0.937597 6.571192 7.043997 11.098903 13.591148 10.209388a12.004445 12.004445 0 0 0 10.209388-13.583134z" fill="#33363A" /><path d="M950.295111 378.829193c-51.167144 84.471866-122.857241 134.132444-192.207353 142.731089-11.956363-86.178773 6.979888-186.173076 58.163059-270.644942 51.175158-84.487893 122.865255-134.148472 192.215367-142.707048 11.94835 86.130691-6.987901 186.149035-58.171073 270.620901z" fill="#FFD400" /><path d="M1008.466184 108.192265c11.94835 86.146719-6.987901 186.157049-58.171073 270.628915-51.167144 84.471866-122.857241 134.132444-192.207353 142.731089l250.378426-413.360004z" fill="#FFB000" /><path d="M1020.366452 106.541453a12.012459 12.012459 0 0 0-13.374779-10.273497c-76.33 9.42405-149.606799 63.516176-201.03038 148.412766-30.347686 50.109342-50.798516 107.655351-59.124697 166.395392a12.020472 12.020472 0 0 0 23.800535 3.38176c7.869403-55.566637 27.206336-109.963281 55.887183-157.315929 15.314082-25.28306 32.66363-47.520934 51.39954-66.449171-6.763519 121.038143 49.79681 96.059602 98.688078 104.073249a415.299307 415.299307 0 0 1-36.598331 77.836566c-32.439248 53.563225-74.102205 94.160367-120.493215 117.40796a12.020472 12.020472 0 1 0 10.770343 21.492605c50.453929-25.28306 95.50666-69.005525 130.293907-126.439342 50.89468-84.015088 72.691803-185.531984 59.781816-278.522359z" fill="#33363A" /><path d="M263.565525 703.397975m-56.199715 0a56.199715 56.199715 0 1 0 112.39943 0 56.199715 56.199715 0 1 0-112.39943 0Z" fill="#FF1A1A" /><path d="M319.76524 703.397975a56.207729 56.207729 0 0 1-112.407444 0" fill="#D61D1D" /><path d="M760.435757 703.397975m-56.207729 0a56.207729 56.207729 0 1 0 112.415458 0 56.207729 56.207729 0 1 0-112.415458 0Z" fill="#FF1A1A" /><path d="M816.635472 703.397975a56.215742 56.215742 0 0 1-112.415457 0" fill="#D61D1D" /><path d="M589.232176 643.343695a12.020472 12.020472 0 0 0-12.020472 12.020472 20.771376 20.771376 0 0 1-20.763363 20.739322h-11.667872a20.771376 20.771376 0 0 1-20.755349-20.739322v-11.659858c0-0.584996-0.08815-1.145952-0.168286-1.706907l24.922446-12.469237a12.0365 12.0365 0 0 0-5.377158-22.774788h-62.802962a12.0365 12.0365 0 0 0-5.377158 22.774788l24.914433 12.469237c-0.080136 0.560955-0.168287 1.121911-0.168287 1.706907v11.659858a20.763363 20.763363 0 0 1-20.747335 20.739322h-11.675886a20.771376 20.771376 0 0 1-20.763362-20.739322 12.020472 12.020472 0 0 0-24.040945 0 44.844376 44.844376 0 0 0 44.804307 44.780266H479.220813a44.628007 44.628007 0 0 0 32.775821-14.360457 44.644034 44.644034 0 0 0 32.783835 14.360457h11.667872a44.844376 44.844376 0 0 0 44.804307-44.780266 12.020472 12.020472 0 0 0-12.020472-12.020472z" fill="#33363A" /><path d="M382.488065 562.109342a64.509868 64.509868 0 0 1-64.533909 64.517882 64.509868 64.509868 0 0 1-64.517882-64.517882 64.525896 64.525896 0 1 1 129.051791 0z" fill="#6D5C4D" /><path d="M285.867508 541.137625m-26.29278 0a26.29278 26.29278 0 1 0 52.58556 0 26.29278 26.29278 0 1 0-52.58556 0Z" fill="#FFFFFF" /><path d="M317.954156 485.554961c-26.004289 0-48.987432 13.062247-62.827003 32.944108a38.786058 38.786058 0 0 0-2.291903 3.5821 76.041508 76.041508 0 0 0-11.419449 40.028173c0 42.207885 34.330469 76.538354 76.538355 76.538355 42.215899 0 76.554382-34.330469 76.554381-76.538355 0-42.215899-34.346496-76.554382-76.554381-76.554381z m0 129.051791a52.569532 52.569532 0 0 1-48.458531-32.335071c5.457294-0.144246 12.108622-1.618757 19.553301-3.157377 2.852859-0.240409 5.60154-0.777324 8.246044-1.610743 6.483041-1.161979 13.422861-2.075535 20.651172-2.075535 19.336933 0 36.646413 6.52311 48.474558 6.843655a52.569532 52.569532 0 0 1-48.466544 32.335071z" fill="#33363A" /><path d="M285.867508 541.137625m-14.25628 0a14.25628 14.25628 0 1 0 28.51256 0 14.25628 14.25628 0 1 0-28.51256 0Z" fill="#FFFFFF" /><path d="M770.556995 562.109342a64.501855 64.501855 0 0 1-64.517882 64.517882 64.509868 64.509868 0 0 1-64.525896-64.517882 64.525896 64.525896 0 1 1 129.043778 0z" fill="#6D5C4D" /><path d="M673.952465 541.137625m-26.284766 0a26.284766 26.284766 0 1 0 52.569533 0 26.284766 26.284766 0 1 0-52.569533 0Z" fill="#FFFFFF" /><path d="M706.047127 485.554961c-25.988261 0-48.963391 13.054233-62.802962 32.920067a39.170713 39.170713 0 0 0-2.339985 3.64621 75.977399 75.977399 0 0 0-11.403422 39.988104c0 42.207885 34.338483 76.538354 76.546369 76.538355s76.538354-34.330469 76.538354-76.538355c-0.008014-42.215899-34.338483-76.554382-76.538354-76.554381z m0 129.051791a52.58556 52.58556 0 0 1-48.466545-32.335071c5.521404-0.152259 12.236841-1.610743 19.801725-3.181418 2.684572-0.240409 5.272981-0.745269 7.773239-1.514579 6.563178-1.18602 13.567106-2.147658 20.891581-2.147658 19.336933 0 36.630386 6.52311 48.45853 6.843655a52.569532 52.569532 0 0 1-48.45853 32.335071z" fill="#33363A" /><path d="M673.960479 541.137625m-14.25628 0a14.25628 14.25628 0 1 0 28.51256 0 14.25628 14.25628 0 1 0-28.51256 0Z" fill="#FFFFFF" /></svg>