<?xml version="1.0" standalone="no"?><!DOCTYPE svg PUBLIC "-//W3C//DTD SVG 1.1//EN" "http://www.w3.org/Graphics/SVG/1.1/DTD/svg11.dtd"><svg class="icon" width="200px" height="200.00px" viewBox="0 0 1024 1024" version="1.1" xmlns="http://www.w3.org/2000/svg"><path d="M314.13852 289.291767c0 111.41015 10.990526 179.810763-100.419624 179.810763S12.007129 378.792908 12.007129 267.382759 102.308746 65.654983 213.718896 65.654983s100.419624 112.226635 100.419624 223.636784z" fill="#A962E8" /><path d="M12.007129 267.382759c0 103.30934 77.670117 188.423877 177.809575 200.246896 84.218004-10.302117 75.076577-76.229261 75.076576-178.337888 0-103.261311 9.349551-207.154998-77.966292-221.803696C88.196367 80.599856 12.007129 165.058003 12.007129 267.382759z" fill="#8B4FE0" /><path d="M163.224915 305.957662c0 111.41015 161.912135 163.144867 50.501985 163.144868S12.007129 378.792908 12.007129 267.382759 102.308746 65.654983 213.718896 65.654983s-50.493981 128.89253-50.493981 240.302679z" fill="#E2CBAA" /><path d="M73.603702 305.957662c0-94.824302 117.181577-202.264094 83.393515-232.153841C73.219474 98.314374 12.007129 175.672305 12.007129 267.382759c0 93.479503 63.597761 172.070167 149.872987 194.963759 13.407961-17.258247-88.276414-68.040399-88.276414-156.388856z" fill="#F2EAC9" /><path d="M326.145649 289.291767c0-9.205466 0.072043-18.418936 0.15209-27.568369 0.600356-73.435602 1.168694-142.80479-36.42963-180.707295-16.257653-16.393734-38.767018-25.407085-66.903724-27.024045a125.306401 125.306401 0 0 0-9.245489-0.3362C95.872925 53.647853 0 149.536787 0 267.382759s95.872925 213.718896 213.718896 213.718895c10.19005 0 18.915231-0.352209 26.151527-1.456865 26.191551-3.073825 45.298896-11.198649 58.995028-25.014852 28.376849-28.633001 27.960602-76.845627 27.432288-137.889873-0.072043-8.813233-0.15209-17.978675-0.15209-27.448297zM24.014258 267.382759C24.014258 162.768644 109.112786 77.662112 213.718896 77.662112c2.529502 0 4.930928 0.120071 7.332353 0.240142 14.648698 1.000594 18.13877 4.906913 18.891217 6.227698 5.835465 10.222069-14.600669 44.778587-31.018417 72.53907-25.711266 43.473813-57.706263 97.569932-57.706263 149.28864 0 60.475908 42.289109 103.253307 70.26572 131.566118 5.987555 6.051593 13.039742 13.183828 16.842 18.034708a62.116882 62.116882 0 0 1-2.497483 0.400237c-6.756011 0.752447-14.104374 1.14468-22.101123 1.14468C109.112786 457.0954 24.014258 371.988868 24.014258 267.382759z m278.277228 49.581438c0.504299 57.618211 0.864513 99.242925-20.476158 120.767706-4.938932 4.986961-11.286701 8.973328-19.043307 12.023139-3.914324-8.533067-12.855633-17.626466-24.214377-29.121291-25.214971-25.519152-63.333604-64.070042-63.333605-114.676089 0-45.146806 30.145899-96.121072 54.368281-137.073387 18.330884-30.994403 33.772052-57.121916 35.124856-77.670117 2.873706 2.025202 5.619336 4.2105 8.092805 6.707983 30.554142 30.810294 30.025828 95.312592 29.4735 163.601138-0.080048 9.21347-0.15209 18.498984-0.15209 27.768488 0 9.541665 0.080048 18.771145 0.160095 27.67243z" fill="#33363A" /><path d="M709.86148 289.291767c0 111.41015-10.990526 179.810763 100.419624 179.810763s201.711766-90.301617 201.711767-201.711767-90.301617-201.735781-201.711767-201.73578S709.86148 177.881617 709.86148 289.291767z" fill="#A962E8" /><path d="M1011.992871 267.382759c0 103.30934-77.670117 188.423877-177.809575 200.246896-84.226009-10.302117-75.076577-76.229261-75.076576-178.337888 0-103.261311-9.349551-207.154998 77.966292-221.803696 98.730621 13.111785 174.919859 97.569932 174.919859 199.894688z" fill="#8B4FE0" /><path d="M860.775085 305.957662c0 111.41015-161.912135 163.144867-50.501985 163.144868s201.711766-90.301617 201.711766-201.711767-90.293612-201.735781-201.703762-201.73578 50.493981 128.89253 50.493981 240.302679z" fill="#E2CBAA" /><path d="M950.396298 305.957662c0-94.824302-117.181577-202.264094-83.393515-232.153841 83.785748 24.518558 144.990088 101.876489 144.990088 193.586942 0 93.479503-63.597761 172.070167-149.872987 194.96376-13.415966-17.266252 88.276414-68.048404 88.276414-156.396861z" fill="#F2EAC9" /><path d="M810.281104 481.109659c-27.440293 0-44.37835-2.521497-49.773553-15.433164-5.819455-13.92827 6.411807-26.311623 24.934805-45.042744 25.214971-25.519152 63.333604-64.070042 63.333605-114.676089 0-45.146806-30.145899-96.121072-54.368281-137.073387-24.558582-41.520653-43.954098-74.30812-31.202527-96.649386 7.132235-12.511429 22.525374-18.579031 47.075951-18.579031a12.007129 12.007129 0 1 1 0 24.014259c-20.908414 0-25.351052 4.946937-26.215565 6.46784-5.835465 10.222069 14.600669 44.778587 31.018417 72.53907 25.711266 43.473813 57.706263 97.569932 57.706263 149.28864 0 60.475908-42.289109 103.253307-70.26572 131.566117-5.987555 6.051593-13.039742 13.183828-16.842 18.034709 4.082424 0.768456 11.454801 1.536913 24.598605 1.536912a12.007129 12.007129 0 1 1 0 24.006254z" fill="#33363A" /><path d="M810.281104 481.109659c-40.191864 0-67.247928-8.412995-85.15456-26.471718-28.376849-28.633001-27.960602-76.845627-27.432288-137.889872 0.080048-8.829242 0.160095-17.98668 0.160095-27.464307 0-9.205466-0.072043-18.418936-0.15209-27.568368-0.600356-73.435602-1.168694-142.80479 36.42963-180.707295 18.010694-18.162784 43.625903-27.360245 76.141209-27.360246 117.845971 0 213.718896 95.888934 213.718895 213.734906 0.008005 117.845971-95.86492 213.7269-213.710891 213.7269z m0-403.447547c-26.247585 0-45.571058 6.627935-59.091085 20.252025-30.554142 30.810294-30.025828 95.312592-29.4735 163.601138 0.080048 9.21347 0.15209 18.498984 0.15209 27.768487 0 9.541665-0.080048 18.77915-0.160095 27.672431-0.504299 57.618211-0.864513 99.242925 20.476158 120.767706 12.911666 13.031738 35.188893 19.363497 68.096432 19.363497 104.60611 0 189.704637-85.106532 189.704638-189.704637 0-104.614115-85.106532-189.720647-189.704638-189.720647z" fill="#33363A" /><path d="M905.905882 631.270817c0 165.506269-176.360714 299.70595-393.905882 299.70595-217.553172 0-393.905882-134.207686-393.905882-299.70595 0-165.538288 176.352709-363.888059 393.905882-363.888058 217.545167 0 393.905882 198.357775 393.905882 363.888058z" fill="#BC7DFF" /><path d="M905.905882 631.270817c0 165.506269-176.360714 299.70595-393.905882 299.70595-217.553172 0-393.905882-134.207686-393.905882-299.70595 0-165.538288 176.352709-279.590007 393.905882-279.590007 217.545167 0.008005 393.905882 114.059723 393.905882 279.590007z" fill="#A962E8" /><path d="M905.905882 631.270817c0 165.506269-176.360714 299.70595-393.905882 299.70595-217.553172 0-393.905882-134.207686-393.905882-299.70595 0-165.554298 50.117757 146.807167 393.905882 146.807167s393.905882-312.35346 393.905882-146.807167z" fill="#F2EAC9" /><path d="M512 842.116006c-309.367687 0-380.906163-252.870142-392.136831-182.892592 18.539008 152.386479 186.983021 271.753354 392.136831 271.753353 205.145805 0 373.597824-119.366874 392.136831-271.753353-11.230668-69.977549-82.777149 182.892592-392.136831 182.892592z" fill="#FFFBEB" /><path d="M512 942.991901c-223.820894 0-405.913011-139.835027-405.913011-311.713079 0-37.854476 2.097245-54.480348 15.120978-59.363247 13.496013-5.050999 23.702073 6.619931 44.066165 29.897752 46.643695 53.311654 143.701323 164.265533 346.725868 164.265532s300.082174-110.945874 346.725868-164.265532c20.364091-23.277821 30.60217-34.940746 44.066165-29.897752 13.015728 4.882899 15.120978 21.508771 15.120978 59.363247 0 171.878053-182.092117 311.71308-405.913011 311.713079z m-380.730058-343.003658c-0.648385 5.811451-1.168694 15.417154-1.168694 31.282574 0 158.638191 171.31772 287.698821 381.898752 287.698821s381.898752-129.06063 381.898752-287.698821c0-15.86542-0.520309-25.479128-1.168694-31.282574-4.5467 4.618742-10.462212 11.382759-15.929458 17.626466-48.973078 55.985241-150.873581 172.470404-364.8006 172.470404S196.164473 673.59995 147.1994 617.614709c-5.467246-6.243707-11.382759-13.007723-15.929458-17.626466z" fill="#33363A" /><path d="M512 942.991901c-223.820894 0-405.913011-139.835027-405.913011-311.713079 0-170.261093 181.067509-375.895188 405.913011-375.895188s405.913011 205.634095 405.913011 375.895188c0 171.878053-182.092117 311.71308-405.913011 311.713079z m0-663.602013c-211.549608 0-381.898752 192.498296-381.898752 351.880929 0 158.638191 171.31772 287.698821 381.898752 287.698821s381.898752-129.06063 381.898752-287.698821c0-159.382633-170.349145-351.880929-381.898752-351.880929z" fill="#33363A" /><path d="M382.627185 673.471874a64.43826 64.43826 0 0 1-64.45427 64.446265 64.430255 64.430255 0 0 1-64.446265-64.446265 64.45427 64.45427 0 0 1 128.900535 0z" fill="#A5145D" /><path d="M318.172915 597.01848c-42.153028 0-76.453394 34.292361-76.453394 76.453394s34.300366 76.453394 76.453394 76.453394c42.161033 0 76.461399-34.292361 76.461399-76.453394s-34.300366-76.453394-76.461399-76.453394z m0 128.89253a52.495169 52.495169 0 0 1-48.396735-32.291173c11.80701-0.32019 29.089272-6.828054 48.396735-6.828054 19.307464 0 36.59773 6.507864 48.40474 6.828054a52.511179 52.511179 0 0 1-48.40474 32.291173z" fill="#33363A" /><path d="M286.121885 652.523436m-26.263594 0a26.263594 26.263594 0 1 0 52.527188 0 26.263594 26.263594 0 1 0-52.527188 0Z" fill="#FFFFFF" /><path d="M286.11388 690.794159a38.310747 38.310747 0 0 1-38.262718-38.270723 38.302742 38.302742 0 0 1 38.262718-38.254714 38.310747 38.310747 0 0 1 38.270723 38.254714 38.318752 38.318752 0 0 1-38.270723 38.270723z m0-52.519183c-7.852663 0-14.24846 6.387793-14.24846 14.240455 0 7.860667 6.395798 14.256465 14.24846 14.256465 7.860667 0 14.256465-6.395798 14.256465-14.256465 0-7.852663-6.387793-14.240455-14.256465-14.240455z" fill="#33363A" /><path d="M770.27335 673.471874a64.430255 64.430255 0 0 1-64.446265 64.446265 64.43826 64.43826 0 0 1-64.45427-64.446265 64.43826 64.43826 0 0 1 64.45427-64.446265 64.43826 64.43826 0 0 1 64.446265 64.446265z" fill="#A5145D" /><path d="M673.76805 652.523436m-26.255589 0a26.255589 26.255589 0 1 0 52.511178 0 26.255589 26.255589 0 1 0-52.511178 0Z" fill="#FFFFFF" /><path d="M705.827085 597.01848c-25.935399 0-48.861011 13.007723-62.693224 32.811482a37.918514 37.918514 0 0 0-2.401426 3.730214 75.901066 75.901066 0 0 0-11.366749 39.903693c0 42.161033 34.300366 76.453394 76.461399 76.453394 42.153028 0 76.453394-34.292361 76.453394-76.453394s-34.300366-76.445389-76.453394-76.445389z m0 128.89253a52.511179 52.511179 0 0 1-48.40474-32.291173c5.50727-0.144086 12.199243-1.600951 19.747725-3.169882 2.697602-0.240143 5.291142-0.744442 7.796629-1.520903 6.547888-1.184703 13.552047-2.137269 20.860386-2.137269 19.307464 0 36.589725 6.507864 48.396735 6.828054a52.495169 52.495169 0 0 1-48.396735 32.291173z" fill="#33363A" /><path d="M673.776055 638.274976c-7.860667 0-14.256465 6.387793-14.256465 14.240455 0 7.860667 6.395798 14.256465 14.256465 14.256465a14.24846 14.24846 0 0 0 0-28.49692z" fill="#FFFFFF" /><path d="M562.237829 958.345017H461.762171l-28.304806-123.105093h157.077265z" fill="#D3E0E2" /><path d="M562.237829 921.323036l19.795753-86.083112H441.966418l19.795753 86.083112z" fill="#FFFFFF" /><path d="M618.359151 765.470498a12.007129 12.007129 0 0 0-11.686939-9.245489H417.327788a12.007129 12.007129 0 0 0-5.371189 22.749507l88.444514 44.258278H433.457365a11.999124 11.999124 0 0 0-11.702948 14.696727l28.296801 123.105093a12.007129 12.007129 0 0 0 11.702949 9.317533h100.483662a12.007129 12.007129 0 0 0 11.702948-9.317533l28.296802-123.105093a11.999124 11.999124 0 0 0-11.702949-14.696727h-66.951753l88.460524-44.258278a12.007129 12.007129 0 0 0 6.31575-13.504018z m-118.36628 180.86739H471.319846l-22.781526-99.090835h51.454551v99.090835z m24.014258-99.090835h51.454551l-22.781526 99.090835h-28.673025v-99.090835z" fill="#33363A" /><path d="M844.229261 787.475564l159.526719-123.121104-183.909196 52.639255" fill="#FFFBEB" /><path d="M844.237266 799.482693a12.007129 12.007129 0 0 1-7.340358-21.516776l109.897251-84.826365-123.641412 35.397017a12.007129 12.007129 0 0 1-6.603921-23.085708l183.909196-52.639254a12.023139 12.023139 0 0 1 10.638316 21.0525l-159.526719 123.121103a12.007129 12.007129 0 0 1-7.332353 2.497483z" fill="#33363A" /><path d="M179.770739 787.475564L20.24402 664.35446l183.909196 52.639255" fill="#FFFBEB" /><path d="M179.762734 799.482693c-2.561521 0-5.147056-0.816485-7.332353-2.505488L12.911666 673.864107a12.007129 12.007129 0 0 1 10.638317-21.0525l183.909196 52.639254a12.007129 12.007129 0 0 1-6.603921 23.085708L77.205841 693.147556l109.897251 84.826366a12.007129 12.007129 0 0 1-7.340358 21.508771z" fill="#33363A" /><path d="M590.53463 703.609768c0 16.52181-35.164879 7.252306-78.53463 7.252306-43.377756 0-78.542635 9.269504-78.542635-7.252306 0-16.537819 35.164879-29.937776 78.542635-29.937775s78.53463 13.399956 78.53463 29.937775z" fill="#BC7DFF" /><path d="M515.041806 551.295332c-22.213189 0-43.87405-6.78803-62.469091-19.795754a108.728558 108.728558 0 0 1-45.034739-70.649949c-8.621119-48.820987 24.086301-95.576749 72.899284-104.237891 40.448016-7.132235 79.094963 19.931835 86.227197 60.291798a12.007129 12.007129 0 1 1-23.64604 4.170477c-4.834871-27.328226-31.066446-45.715143-58.402676-40.82424-35.77324 6.347769-59.75548 40.632125-53.431725 76.421375a84.914418 84.914418 0 0 0 35.156874 55.152747 84.930427 84.930427 0 0 0 63.813889 14.120384c28.889153-5.107032 54.056096-21.148557 70.866077-45.186829s23.261812-53.175573 18.162784-82.056721c-13.471999-76.125199-86.371283-127.115475-162.488477-113.659486a12.007129 12.007129 0 0 1-4.178481-23.654044c89.172946-15.705325 174.535631 43.962102 190.312998 133.135049a132.990963 132.990963 0 0 1-22.125137 99.995372 132.902911 132.902911 0 0 1-86.363278 55.072699c-6.443826 1.136675-12.895657 1.705012-19.299459 1.705013z" fill="#33363A" /></svg>