<?xml version="1.0" standalone="no"?><!DOCTYPE svg PUBLIC "-//W3C//DTD SVG 1.1//EN" "http://www.w3.org/Graphics/SVG/1.1/DTD/svg11.dtd"><svg class="icon" width="200px" height="200.00px" viewBox="0 0 1024 1024" version="1.1" xmlns="http://www.w3.org/2000/svg"><path d="M778.785695 192.171281l0.064105 0.032053C755.844057 89.114203 663.877173 12.01972 553.856671 12.01972c-127.352938 0-230.594319 103.249394-230.594319 230.594319 0 93.433289 55.603224 173.829189 135.502309 210.064637a231.275436 231.275436 0 0 1-5.60119-50.426731 229.376321 229.376321 0 0 1 48.126959-140.887143c11.89151 67.190234 70.443571 118.258017 141.063432 118.258017 79.193928 0 143.403271-64.20133 143.403271-143.395258 0-15.377228-2.492089-30.169497-6.971438-44.05628z" fill="#93F9EA" /><path d="M453.163471 402.251945a229.376321 229.376321 0 0 1 48.126959-140.887143c11.89151 67.190234 70.443571 118.258017 141.063432 118.258017 68.760811 0 126.166993-48.423445 140.101854-113.041459a147.0172 147.0172 0 0 0-3.670021-14.055059l0.064105 0.032053C755.844057 149.477236 663.877173 72.382753 553.856671 72.382753c-117.048032 0-213.66254 87.239127-228.550966 200.21648 10.216762 78.440692 59.834165 144.396901 128.378621 177.539275 0.312513-5.849597 0.849394-11.643102 1.594616-17.388528a230.39399 230.39399 0 0 1-2.115471-30.498035z" fill="#70D3E0" /><path d="M790.58906 189.6231l-0.008013-0.040065C766.068832 79.730808 666.513499 0 553.856671 0 420.077189 0 311.242632 108.834557 311.242632 242.614039c0 94.987839 55.955802 181.738164 142.561891 221.010595a11.971641 11.971641 0 0 0 12.540574-1.618655 12.01972 12.01972 0 0 0 4.15081-11.947602 219.856702 219.856702 0 0 1-5.312716-47.806432c0-40.266062 10.74563-78.753204 31.267298-112.648815a155.054386 155.054386 0 0 0 145.903373 102.031395c85.692589 0 155.422991-69.714375 155.422991-155.414977 0-15.745833-2.41997-31.419548-7.187793-46.596448zM642.353862 367.603099a131.063025 131.063025 0 0 1-123.065905-85.564379 11.955615 11.955615 0 0 0-0.608999-6.0339c-20.000814-52.277768 6.258267-111.086251 58.544048-131.087064a78.280429 78.280429 0 0 1 60.290915 1.642695 78.320495 78.320495 0 0 1 41.476047 43.831911 60.146678 60.146678 0 0 1-1.258064 46.364067 60.154691 60.154691 0 0 1-33.711308 31.908349c-23.742953 9.118961-50.458784-2.828641-59.553705-26.563581a34.536662 34.536662 0 0 1 19.872603-44.569121 12.027733 12.027733 0 0 0-8.598106-22.46085c-30.137444 11.522905-45.266265 45.442554-33.735347 75.612051 10.681524 27.901776 37.357289 45.073949 65.603631 45.07395a69.906691 69.906691 0 0 0 24.993004-4.631599c21.130668-8.085265 37.846091-23.903216 47.069223-44.569121s9.848157-43.655623 1.762892-64.762251a102.199671 102.199671 0 0 0-54.120791-57.181814 102.215698 102.215698 0 0 0-78.6891-2.163549c-55.739448 21.330996-87.455482 78.320495-79.338164 135.061585-31.427561 42.109085-48.142985 92.014962-48.142985 144.733453 0 9.519618 0.568933 19.087315 1.714814 28.62296-66.028328-39.007997-107.576493-110.581423-107.576493-188.260865C335.282072 122.088301 433.330934 24.03944 553.856671 24.03944 654.950528 24.03944 744.353204 95.324392 766.862133 193.693779c0.096158 0.729196 0.256421 1.458393 0.488802 2.171563a131.335472 131.335472 0 0 1 6.386478 40.370232c0 72.438845-58.944706 131.367525-131.383551 131.367525z" fill="#33363A" /><path d="M906.322936 711.952046c0 165.679818-176.545645 300.020221-394.318929 300.020221-217.781297 0-394.318929-134.348415-394.31893-300.020221 0-165.711871 176.537632-364.26963 394.31893-364.26963 217.765271 0 394.318929 198.557759 394.318929 364.26963z" fill="#93F9EA" /><path d="M906.322936 711.952046c0 165.679818-176.545645 300.020221-394.318929 300.020221-217.781297 0-394.318929-134.348415-394.31893-300.020221 0-165.711871 176.537632-279.883183 394.31893-279.883183 217.765271 0 394.318929 114.171312 394.318929 279.883183z" fill="#7FE5D8" /><path d="M596.302308 824.568808c0 11.162313-37.589671 13.1656-83.969762 13.1656s-83.969763-2.003287-83.969763-13.1656c0-11.178339 37.589671-40.362219 83.969763-40.362219s83.969763 29.191893 83.969762 40.362219z" fill="#93F9EA" /><path d="M906.322936 711.952046c0 165.679818-176.545645 300.020221-394.318929 300.020221-217.781297 0-394.318929-134.348415-394.31893-300.020221 0-165.727897 50.170311 146.961108 394.31893 146.961108s394.318929-312.689005 394.318929-146.961108z" fill="#70D3E0" /><path d="M512.004007 1023.991987c-224.055591 0-406.338649-139.981657-406.33865-312.039941 0-170.439628 181.249362-376.28935 406.33865-376.289349s406.338649 205.849722 406.338649 376.289349c0 172.058283-182.291071 312.039941-406.338649 312.039941z m0-664.289851c-211.771438 0-382.29921 192.700149-382.29921 352.24991 0 158.804539 171.497363 288.000501 382.29921 288.000501s382.29921-129.195962 382.299209-288.000501c0-159.549761-170.535785-352.24991-382.299209-352.24991z" fill="#33363A" /><path d="M382.487519 759.27769a64.50583 64.50583 0 0 1-64.521857 64.513843 64.497817 64.497817 0 0 1-64.513843-64.513843 64.50583 64.50583 0 0 1 64.513843-64.513843 64.513843 64.513843 0 0 1 64.521857 64.513843z" fill="#893015" /><path d="M285.881024 738.307285m-26.291134 0a26.291134 26.291134 0 1 0 52.582267 0 26.291134 26.291134 0 1 0-52.582267 0Z" fill="#FFFFFF" /><path d="M317.973676 682.744127c-25.914516 0-48.824102 12.981297-62.678833 32.741717a37.822052 37.822052 0 0 0-2.548181 3.958494 75.932577 75.932577 0 0 0-11.306549 39.825339c0 42.205243 34.32832 76.533563 76.533563 76.533563s76.541576-34.32832 76.541576-76.533563-34.344346-76.52555-76.541576-76.52555z m0 129.027686a52.550215 52.550215 0 0 1-48.447485-32.325033c5.513045-0.144237 12.212035-1.602629 19.776446-3.173206 2.692417-0.240394 5.280664-0.745223 7.788779-1.522498 6.562767-1.185946 13.566257-2.13951 20.890273-2.13951 19.32771 0 36.628093 6.514688 48.455497 6.835214a52.598294 52.598294 0 0 1-48.46351 32.325033z" fill="#33363A" /><path d="M285.881024 738.315299m-14.263401 0a14.263401 14.263401 0 1 0 28.526801 0 14.263401 14.263401 0 1 0-28.526801 0Z" fill="#FFFFFF" /><path d="M770.540167 759.27769a64.497817 64.497817 0 0 1-64.513843 64.513843 64.50583 64.50583 0 0 1-64.521856-64.513843 64.50583 64.50583 0 0 1 64.521856-64.513843 64.50583 64.50583 0 0 1 64.513843 64.513843z" fill="#893015" /><path d="M673.941686 738.307285m-26.283121 0a26.283121 26.283121 0 1 0 52.566241 0 26.283121 26.283121 0 1 0-52.566241 0Z" fill="#FFFFFF" /><path d="M706.026324 682.744127c-25.946569 0-48.888207 13.005337-62.734924 32.813835-0.905486 1.209985-1.690774 2.484075-2.44401 3.798232a75.94059 75.94059 0 0 0-11.354628 39.913483c0 42.205243 34.336333 76.533563 76.541576 76.533563s76.533563-34.32832 76.533562-76.533563-34.336333-76.52555-76.541576-76.52555z m0 129.027686a52.566241 52.566241 0 0 1-48.455497-32.325033c5.513045-0.144237 12.212035-1.602629 19.768433-3.173206 2.70043-0.240394 5.29669-0.745223 7.804804-1.522498 6.554754-1.185946 13.566257-2.13951 20.88226-2.13951 19.32771 0 36.628093 6.514688 48.447485 6.835214a52.550215 52.550215 0 0 1-48.447485 32.325033z" fill="#33363A" /><path d="M673.941686 738.315299m-14.263401 0a14.263401 14.263401 0 1 0 28.526801 0 14.263401 14.263401 0 1 0-28.526801 0Z" fill="#FFFFFF" /><path d="M759.54613 846.965553a12.043759 12.043759 0 0 0-16.082385 5.513045c-0.272447 0.56092-28.478723 55.875671-123.658878 54.329133a413.919086 413.919086 0 0 0-6.97945-0.056092c-59.585758 0-87.599718 12.684811-100.797371 24.872807-13.678441-12.716864-43.367149-25.978621-107.8249-24.816715-1.29813 0.024039-2.57222 0.032053-3.838297 0.032053-91.085437 0-118.642648-52.021348-119.860647-54.425291a12.01972 12.01972 0 1 0-21.563377 10.625432c1.378261 2.804601 34.432491 67.839299 141.41601 67.839299 1.394288 0 2.812614-0.008013 4.230942-0.032053 72.695266-1.27409 93.40925 17.31641 95.22022 24.544268-0.136223-0.520855-0.120197-0.825354-0.120197-0.825354l12.308193-1.121841 12.308194 1.121841s0.016026 0.296486-0.120198 0.825354c1.810971-7.219845 22.140324-25.754253 95.236247-24.544268 110.044542 1.826997 144.252665-64.962579 145.638939-67.807246a12.01972 12.01972 0 0 0-5.513045-16.074372z" fill="#33363A" /><path d="M492.227561 889.819861c-3.189232 0-6.370452-1.258064-8.742343-3.766179l-12.01972-12.724877a12.035746 12.035746 0 0 1 0.488802-16.995884 12.035746 12.035746 0 0 1 16.995884 0.488802l12.01972 12.724877a12.035746 12.035746 0 0 1-8.742343 20.273261zM531.772439 889.819861a12.035746 12.035746 0 0 1-8.742343-20.273261l12.01972-12.724877a12.035746 12.035746 0 0 1 16.995884-0.488802c4.823914 4.55948 5.040269 12.17197 0.488802 16.995884l-12.01972 12.724877c-2.371891 2.508115-5.553111 3.766179-8.742343 3.766179z" fill="#33363A" /><path d="M392.88057 664.762626c-2.131497 0-4.271007-0.56092-6.218202-1.746866l-37.453447-22.709257a12.011707 12.011707 0 0 1-4.046639-16.507082 12.003694 12.003694 0 0 1 16.507082-4.046639l37.453447 22.709257a12.011707 12.011707 0 0 1-6.242241 22.300587zM631.11943 664.762626a12.011707 12.011707 0 0 1-6.234228-22.300587l37.453447-22.709257a12.003694 12.003694 0 0 1 16.507082 4.046639c3.445653 5.673308 1.634682 13.069442-4.046639 16.507082l-37.453447 22.709257a11.955615 11.955615 0 0 1-6.226215 1.746866z" fill="#33363A" /></svg>