<?xml version="1.0" standalone="no"?><!DOCTYPE svg PUBLIC "-//W3C//DTD SVG 1.1//EN" "http://www.w3.org/Graphics/SVG/1.1/DTD/svg11.dtd"><svg class="icon" width="200px" height="200.00px" viewBox="0 0 1024 1024" version="1.1" xmlns="http://www.w3.org/2000/svg"><path d="M905.610498 712.51267c0 165.382159-176.220466 299.481206-393.610498 299.481206s-393.610498-134.107046-393.610498-299.481206c0-165.414154 176.220466-363.615185 393.610498-363.615185s393.610498 198.201031 393.610498 363.615185z" fill="#F2D9A7" /><path d="M905.610498 712.51267c0 165.382159-176.220466 299.481206-393.610498 299.481206s-393.610498-134.107046-393.610498-299.481206c0-165.414154 176.220466-279.380347 393.610498-279.380347s393.610498 113.966193 393.610498 279.380347z" fill="#DDC38A" /><path d="M595.818903 710.688955c0 11.158257-37.522137 13.157944-83.810904 13.157944s-83.818903-1.999688-83.818904-13.157944c0-11.13426 37.530136-40.273707 83.818904-40.273707 46.288767-0.007999 83.810905 29.131448 83.810904 40.273707z" fill="#F2D9A7" /><path d="M905.610498 712.51267c0 165.382159-176.220466 299.481206-393.610498 299.481206s-393.610498-134.107046-393.610498-299.481206c0-165.430152 50.088174 146.697079 393.610498 146.697078 343.530323 0 393.610498-312.12723 393.610498-146.697078z" fill="#C6A86D" /><path d="M512 1024c-223.653054 0-405.608624-139.730167-405.608624-311.479331 0-170.133417 180.931729-375.61331 405.608624-375.613311s405.608624 205.479894 405.608624 375.613311c0 171.749164-181.955569 311.479331-405.608624 311.479331z m0-663.10439c-211.39097 0-381.612373 192.353945-381.612373 351.61706 0 158.519231 171.189252 287.483081 381.612373 287.483081s381.612373-128.963849 381.612373-287.483081c0-159.263115-170.221403-351.61706-381.612373-351.61706z" fill="#33363A" /><path d="M382.724199 706.057678a64.389939 64.389939 0 0 1-64.405936 64.397938 64.389939 64.389939 0 0 1-64.397938-64.397938 64.405937 64.405937 0 1 1 128.803874 0z" fill="#6D5C4D" /><path d="M286.291267 685.124949m-26.235901 0a26.235901 26.235901 0 1 0 52.471802 0 26.235901 26.235901 0 1 0-52.471802 0Z" fill="#FFFFFF" /><path d="M318.318263 629.653617c-25.939947 0-48.864365 13.021965-62.678207 32.850867a36.690267 36.690267 0 0 0-2.335635 3.64743 75.828152 75.828152 0 0 0-11.374223 39.913763c0 42.129417 34.274645 76.396063 76.396064 76.396063 42.129417 0 76.404062-34.266646 76.404061-76.396063-0.007999-42.137416-34.282643-76.412061-76.41206-76.41206z m0 128.803874a52.471801 52.471801 0 0 1-48.368443-32.274957c5.511139-0.151976 12.214092-1.607749 19.772911-3.175504a37.434151 37.434151 0 0 0 7.726793-1.511764c6.550976-1.191814 13.549883-2.143665 20.868739-2.143665 19.300984 0 36.570286 6.510983 48.376441 6.830933a52.487799 52.487799 0 0 1-48.376441 32.274957z" fill="#33363A" /><path d="M286.283268 685.124949m-14.229776 0a14.229777 14.229777 0 1 0 28.459553 0 14.229777 14.229777 0 1 0-28.459553 0Z" fill="#FFFFFF" /><path d="M770.079675 706.057678a64.389939 64.389939 0 0 1-64.397938 64.397938 64.413935 64.413935 0 1 1 64.397938-64.397938z" fill="#6D5C4D" /><path d="M673.654741 685.124949m-26.2359 0a26.235901 26.235901 0 1 0 52.471801 0 26.235901 26.235901 0 1 0-52.471801 0Z" fill="#FFFFFF" /><path d="M705.689736 629.653617c-25.987939 0-48.96035 13.069958-62.774192 32.95485a38.154038 38.154038 0 0 0-2.183658 3.423466 75.836151 75.836151 0 0 0-11.454211 40.033744c0 42.129417 34.274645 76.396063 76.412061 76.396063 42.121419 0 76.396063-34.266646 76.396063-76.396063-0.007999-42.137416-34.274645-76.412061-76.396063-76.41206z m0 128.803874a52.487799 52.487799 0 0 1-48.38444-32.274957c5.511139-0.151976 12.214092-1.607749 19.772911-3.175504a37.514138 37.514138 0 0 0 7.734791-1.511764c6.550976-1.183815 13.549883-2.143665 20.868739-2.143665 19.292985 0 36.562287 6.510983 48.368443 6.830933a52.455804 52.455804 0 0 1-48.360444 32.274957z" fill="#33363A" /><path d="M673.654741 685.124949m-14.229776 0a14.229777 14.229777 0 1 0 28.459553 0 14.229777 14.229777 0 1 0-28.459553 0Z" fill="#FFFFFF" /><path d="M332.460053 858.457866a179.547946 110.966661 0 1 0 359.095891 0 179.547946 110.966661 0 1 0-359.095891 0Z" fill="#AF4AD1" /><path d="M691.555944 858.457866c0 61.286424-80.395438 110.966661-179.547945 110.966661-99.152507 0-179.547946-49.680237-179.547946-110.966661 0-61.270426 80.395438-14.669708 179.547946-14.669708 99.152507 0 179.547946-46.600719 179.547945 14.669708z" fill="#923BB7" /><path d="M512.007999 981.422653c-107.407218 0-191.546071-54.01556-191.546071-122.964787 0-68.941228 84.138853-122.948789 191.546071-122.948789s191.546071 54.007561 191.546071 122.948789c0 68.949227-84.138853 122.964787-191.546071 122.964787z m0-221.917326c-92.385565 0-167.54982 44.393064-167.549821 98.952539 0 54.567474 75.164256 98.968536 167.549821 98.968536s167.54982-44.401062 167.54982-98.968536c0-54.559475-75.164256-98.952539-167.54982-98.952539z" fill="#33363A" /><path d="M688.244462 410.463865L512 11.998125 335.779534 410.43187c-3.175504 4.751258-5.039213 9.686486-5.039212 14.78169 0 35.386471 81.155319 64.053992 181.259678 64.053992 100.112357 0 181.267677-28.667521 181.267677-64.053992 0-5.095204-1.85571-9.998438-5.023215-14.749695z" fill="#FFFFFF" /><path d="M424.477675 481.316794c25.947946 5.063209 55.775285 7.950758 87.514326 7.950758 31.74704 0 61.574379-2.887549 87.530324-7.950758-0.327949-1.591751-0.591908-3.1995-1.031839-4.767255L512 11.998125 425.509514 476.517544c-0.439931 1.567755-0.70389 3.191501-1.031839 4.79925z" fill="#D9E7E8" /><path d="M512 501.265677c-93.689361 0-193.257803-26.651836-193.257803-76.052117 0-6.91092 2.167661-13.813842 6.454991-20.516794L501.025715 7.150883a11.998125 11.998125 0 0 1 21.94857 0l175.852523 397.577878c4.279331 6.710951 6.438994 13.597875 6.438994 20.492798 0 49.392282-99.576441 76.044118-193.265802 76.044118z m0-459.608186L346.745821 415.287111c-0.279956 0.6399-0.615904 1.247805-0.999844 1.823715-1.999688 2.983534-3.00753 5.719106-3.00753 8.110733 0 21.740603 64.389939 52.055866 169.261553 52.055866s169.269552-30.315263 169.269552-52.055866c0-2.415623-0.983846-5.063209-2.999532-8.086736a11.366224 11.366224 0 0 1-0.991845-1.815717L512 41.657491z" fill="#33363A" /></svg>