<?xml version="1.0" standalone="no"?><!DOCTYPE svg PUBLIC "-//W3C//DTD SVG 1.1//EN" "http://www.w3.org/Graphics/SVG/1.1/DTD/svg11.dtd"><svg class="icon" width="200px" height="200.00px" viewBox="0 0 1024 1024" version="1.1" xmlns="http://www.w3.org/2000/svg"><path d="M92 329h277.6v523H182c-49.5 0-90-40.5-90-90V329z" fill="#2F9B77" /><path d="M510.6 622.2c0.4 0 0.8 0 1.2-0.1-0.4 0.1-0.8 0.1-1.2 0.1zM519.4 749c-0.3 0-0.7 0.1-1 0.1h-0.1c0.3 0 0.7 0 1.1-0.1zM563.1 687.2h1.5c-0.8 0-1.6 0-2.4-0.1h-0.4c-0.3 0-0.6-0.1-0.8-0.1s-0.4-0.1-0.6-0.1c-0.2 0-0.5-0.1-0.7-0.1-0.4-0.1-0.9-0.2-1.3-0.3-2.3-0.7-4.4-1.8-6.3-3.2-0.7-0.5-1.3-1-1.8-1.6-0.9-0.8-1.7-1.8-2.4-2.8-1.4-2-2.9-3.8-4.6-5.4-0.3-0.3-0.6-0.5-0.8-0.8l-1.8-1.5c-1.3-1-2.6-2-4-2.9-0.6-0.4-1.2-0.7-1.8-1-4.7-2.7-10-4.3-15.4-4.8 11.3 1 21.7 7 28.5 16.5 3.4 4.8 8.6 7.7 14.1 8.3 0.3-0.1 0.6-0.1 1-0.1zM560.5 724.8c-0.1 0-0.2 0-0.3 0.1 0.1 0 0.2-0.1 0.3-0.1zM549.9 730.1c2.9-2.8 6.5-4.5 10.3-5.2-4.9 0.9-9.5 3.6-12.6 8-6.7 9.3-17.1 15.1-28.2 16.1 1.1-0.1 2.3-0.3 3.4-0.5 0.7-0.1 1.5-0.3 2.2-0.5 1.1-0.3 2.2-0.6 3.3-1h0.1c1.4-0.5 2.8-1.1 4.1-1.7 1-0.5 2-1 3-1.6 0.7-0.4 1.3-0.8 1.9-1.2 2.2-1.5 4.3-3.2 6.2-5.2l0.8-0.8 3-3.6c0.5-0.7 1-1.3 1.6-1.9l0.9-0.9zM561.3 724.7c-0.2 0-0.5 0.1-0.7 0.1 0.2 0 0.4 0 0.7-0.1zM562.7 724.6c-0.5 0-0.9 0.1-1.4 0.1 0.4 0 0.9-0.1 1.4-0.1z" fill="#FCF6F6" /><path d="M510.6 329h-141v523h285V329h-144z" fill="#3DC38A" /><path d="M721.3 610a14.6 14.6 0 1 0 29.2 0 14.6 14.6 0 1 0-29.2 0Z" fill="#FCF6F6" /><path d="M756.3 701v9c0 21.5 17.5 39 39 39 12.6 0 24.2-6 31.7-16.3 6.5-8.9 19-10.9 27.9-4.4s10.9 19 4.5 27.9c-14.9 20.6-38.9 32.9-64.1 32.9-43.6 0-79-35.4-79-79v-9c0-43.6 35.4-79 79-79 25.6 0 49.8 12.6 64.7 33.7 6.4 9 4.2 21.5-4.8 27.9s-21.5 4.2-27.9-4.8c-7.4-10.5-19.3-16.7-32-16.7-21.5-0.2-39 17.3-39 38.8zM858 469.4c-1.2 0-2.3-0.3-3.4-0.9 0.2 1.7 0.4 3.5 0.4 5.3s-0.1 3.5-0.4 5.3c1.5-0.8 3.4-1.1 5.2-0.6l13.5 3.6c3.7 1 6 4.8 5 8.6-0.8 3.1-3.7 5.2-6.8 5.2-0.6 0-1.2-0.1-1.8-0.2l-11.5-3.1c2.5 4.9 3.9 10.5 3.9 16.4 0 20.1-16.4 36.5-36.5 36.5H741.4c-17 0-30.9-13.9-30.9-30.9 0-15.2 11-27.8 25.4-30.4 1.2-21.5 18.6-38.8 40.2-39.8l-6.7-6.7c-2.8-2.7-2.8-7.1-0.1-9.9s7.2-2.8 9.9-0.1l9.9 9.8c1.4 1.4 2.1 3.2 2.1 5 2.9-2.2 6-4 9.3-5.4-1.5-0.9-2.8-2.4-3.3-4.2l-3.6-13.5c-1-3.7 1.2-7.6 5-8.6 3.7-1 7.6 1.2 8.6 5l3.6 13.5c0.5 1.9 0.2 3.7-0.7 5.3 1.8-0.2 3.6-0.4 5.4-0.4 1.8 0 3.6 0.1 5.3 0.4-0.9-1.5-1.2-3.4-0.7-5.3l3.6-13.5c1-3.7 4.8-6 8.6-5 3.7 1 6 4.8 5 8.6l-3.6 13.5c-0.5 1.9-1.7 3.3-3.2 4.2 3.3 1.4 6.5 3.2 9.3 5.4 0-1.8 0.7-3.6 2.1-4.9l9.8-9.8c2.7-2.7 7.2-2.7 9.9 0s2.7 7.2 0 9.9l-9.8 9.8c-1.4 1.4-3.1 2-4.9 2 2.2 2.8 4 5.9 5.4 9.3 0.9-1.5 2.3-2.6 4.1-3.1l13.5-3.7c3.7-1 7.6 1.2 8.6 4.9s-1.2 7.6-4.9 8.6l-13.5 3.7c-0.9 0.1-1.5 0.2-2.1 0.2zM533.1 529.4l4.5 16.8c1 3.7-1.2 7.6-5 8.6-0.6 0.2-1.2 0.2-1.8 0.2-3.1 0-5.9-2.1-6.8-5.2l-4.5-16.8c-1-3.7 1.2-7.6 5-8.6 3.7-1 7.6 1.3 8.6 5zM532.6 401.2c3.7 1 6 4.8 5 8.6l-4.5 16.8c-0.8 3.1-3.7 5.2-6.8 5.2-0.6 0-1.2-0.1-1.8-0.2-3.7-1-6-4.8-5-8.6l4.5-16.8c1-3.7 4.9-6 8.6-5zM555.8 512l12.3 12.3c2.7 2.7 2.7 7.2 0 9.9-1.4 1.4-3.2 2-5 2s-3.6-0.7-5-2L546 521.8c-2.7-2.7-2.7-7.2 0-9.9s7.1-2.7 9.8 0.1zM568.2 431.8L555.8 444c-1.4 1.4-3.2 2-4.9 2-1.8 0-3.6-0.7-5-2-2.7-2.7-2.7-7.2 0-9.9l12.3-12.3c2.7-2.7 7.2-2.7 9.9 0 2.8 2.8 2.8 7.2 0.1 10zM588.8 498.6c-0.8 3.1-3.7 5.2-6.8 5.2-0.6 0-1.2-0.1-1.8-0.2l-16.8-4.5c-3.7-1-6-4.8-5-8.6 1-3.7 4.8-6 8.6-5l16.8 4.5c3.7 1 6 4.9 5 8.6zM588.8 457.4c1 3.7-1.2 7.6-5 8.6l-16.8 4.5c-0.6 0.2-1.2 0.2-1.8 0.2-3.1 0-5.9-2.1-6.8-5.2-1-3.7 1.2-7.6 5-8.6l16.8-4.5c3.7-1 7.6 1.3 8.6 5zM622 194h40v41c0 11-9 20-20 20s-20-9-20-20v-41zM792 194v41c0 11-9 20-20 20s-20-9-20-20v-41h40z" fill="#FCF6F6" /><path d="M533.1 529.4l4.5 16.8c1 3.7-1.2 7.6-5 8.6-0.6 0.2-1.2 0.2-1.8 0.2-3.1 0-5.9-2.1-6.8-5.2l-4.5-16.8c-1-3.7 1.2-7.6 5-8.6 3.7-1 7.6 1.3 8.6 5zM519.5 423l4.5-16.8c1-3.7 4.8-6 8.6-5s6 4.8 5 8.6l-4.5 16.8c-0.8 3.1-3.7 5.2-6.8 5.2-0.6 0-1.2-0.1-1.8-0.2-3.7-1-6-4.9-5-8.6zM555.8 512l12.3 12.3c2.7 2.7 2.7 7.2 0 9.9-1.4 1.4-3.2 2-5 2s-3.6-0.7-5-2L546 521.8c-2.7-2.7-2.7-7.2 0-9.9s7.1-2.7 9.8 0.1zM546 444c-2.7-2.7-2.7-7.2 0-9.9l12.3-12.3c2.7-2.7 7.2-2.7 9.9 0s2.7 7.2 0 9.9L555.8 444c-1.4 1.4-3.2 2-4.9 2-1.8 0.1-3.6-0.6-4.9-2zM580.2 503.6l-16.8-4.5c-3.7-1-6-4.8-5-8.6 1-3.7 4.8-6 8.6-5l16.8 4.5c3.7 1 6 4.8 5 8.6-0.8 3.1-3.7 5.2-6.8 5.2-0.6 0-1.2-0.1-1.8-0.2zM563.4 456.9l16.8-4.5c3.7-1 7.6 1.2 8.6 5 1 3.7-1.2 7.6-5 8.6l-16.8 4.5c-0.6 0.2-1.2 0.2-1.8 0.2-3.1 0-5.9-2.1-6.8-5.2-1-3.7 1.3-7.6 5-8.6z" fill="#E2D7D7" /><path d="M622 194h40v41c0 11-9 20-20 20s-20-9-20-20v-41zM792 194v41c0 11-9 20-20 20s-20-9-20-20v-41h40z" fill="#E73F5F" /><path d="M490.9 426.6c0.8 3.1 3.7 5.2 6.8 5.2 0.6 0 1.2-0.1 1.8-0.2 3.7-1 6-4.8 5-8.6l-4.5-16.8c-1-3.7-4.8-5.9-8.6-5-3.7 1-6 4.8-5 8.6l4.5 16.8zM468.2 444c1.4 1.4 3.2 2.1 4.9 2.1s3.6-0.7 4.9-2.1c2.7-2.7 2.7-7.2 0-9.9l-12.3-12.3c-2.7-2.7-7.2-2.7-9.9 0s-2.7 7.2 0 9.9l12.4 12.3zM440.2 466l16.8 4.5c0.6 0.2 1.2 0.2 1.8 0.2 3.1 0 5.9-2.1 6.8-5.2 1-3.7-1.2-7.6-5-8.6l-16.8-4.5c-3.7-1-7.6 1.2-8.6 5-1 3.7 1.3 7.6 5 8.6zM465.6 490.5c-1-3.7-4.8-5.9-8.6-5l-16.8 4.5c-3.7 1-6 4.8-5 8.6 0.8 3.1 3.7 5.2 6.8 5.2 0.6 0 1.2-0.1 1.8-0.2l16.8-4.5c3.7-1 6-4.9 5-8.6zM468.2 512l-12.3 12.3c-2.7 2.7-2.7 7.2 0 9.9 1.4 1.4 3.2 2.1 4.9 2.1 1.8 0 3.6-0.7 4.9-2L478 522c2.7-2.7 2.7-7.2 0-9.9-2.7-2.9-7.1-2.9-9.8-0.1zM499.5 524.4c-3.7-1-7.6 1.2-8.6 5l-4.5 16.8c-1 3.7 1.2 7.6 5 8.6 0.6 0.2 1.2 0.2 1.8 0.2 3.1 0 5.9-2.1 6.8-5.2l4.5-16.8c1-3.7-1.3-7.6-5-8.6zM532.6 554.8c-0.6 0.2-1.2 0.2-1.8 0.2-3.1 0-5.9-2.1-6.8-5.2l-4.5-16.8c-1-3.7 1.2-7.6 5-8.6 3.7-1 7.6 1.2 8.6 5l4.5 16.8c1 3.7-1.3 7.6-5 8.6zM568.2 534.2c-1.4 1.4-3.2 2-5 2s-3.6-0.7-5-2L546 521.8c-2.7-2.7-2.7-7.2 0-9.9s7.2-2.7 9.9 0l12.3 12.3c2.7 2.8 2.7 7.2 0 10zM588.8 498.6c-0.8 3.1-3.7 5.2-6.8 5.2-0.6 0-1.2-0.1-1.8-0.2l-16.8-4.5c-3.7-1-6-4.8-5-8.6 1-3.7 4.8-6 8.6-5l16.8 4.5c3.7 1 6 4.9 5 8.6zM583.8 466l-16.8 4.5c-0.6 0.2-1.2 0.2-1.8 0.2-3.1 0-5.9-2.1-6.8-5.2-1-3.7 1.2-7.6 5-8.6l16.8-4.5c3.7-1 7.6 1.2 8.6 5 1 3.7-1.3 7.6-5 8.6zM568.2 431.8L555.8 444c-1.4 1.4-3.2 2-4.9 2-1.8 0-3.6-0.7-5-2-2.7-2.7-2.7-7.2 0-9.9l12.3-12.3c2.7-2.7 7.2-2.7 9.9 0 2.8 2.8 2.8 7.2 0.1 10zM537.6 409.8l-4.5 16.8c-0.8 3.1-3.7 5.2-6.8 5.2-0.6 0-1.2-0.1-1.8-0.2-3.7-1-6-4.8-5-8.6l4.5-16.8c1-3.7 4.8-6 8.6-5s6 4.9 5 8.6z" fill="#F2B843" /><path d="M553 478c0 22.6-18.4 41-41 41h-1.5c-21.9-0.8-39.5-18.8-39.5-41s17.6-40.2 39.5-41h1.5c22.6 0 41 18.4 41 41z" fill="#EA800C" /><path d="M878.3 490.6c-0.8 3.1-3.7 5.2-6.8 5.2-0.6 0-1.2-0.1-1.8-0.2l-11.5-3.1-2-0.5c-1.8-0.5-3.3-1.6-4.2-3.1-1.1 2.6-3.7 4.3-6.4 4.3-0.9 0-1.7-0.2-2.6-0.5-2.8-1.1-4.4-3.7-4.4-6.5l-47.9-0.1v-26.6c-1.6 0-3.2-0.6-4.5-1.7-2.4-2.1-3-5.5-1.8-8.2h-0.3c-1.8 0-3.6-0.7-4.9-2l-3.2-3.1-6.7-6.7c-2.8-2.7-2.8-7.1-0.1-9.9s7.2-2.8 9.9-0.1l9.9 9.8c1.4 1.4 2.1 3.2 2.1 5 2.9-2.2 6-4 9.3-5.4-1.5-0.9-2.8-2.4-3.3-4.2l-3.6-13.5c-1-3.7 1.2-7.6 5-8.6 3.7-1 7.6 1.2 8.6 5l3.6 13.5c0.5 1.9 0.2 3.7-0.7 5.3 1.8-0.2 3.6-0.4 5.4-0.4 1.8 0 3.6 0.1 5.3 0.4-0.9-1.5-1.2-3.4-0.7-5.3l3.6-13.5c1-3.7 4.8-6 8.6-5 3.7 1 6 4.8 5 8.6l-3.6 13.5c-0.5 1.9-1.7 3.3-3.2 4.2 3.3 1.4 6.5 3.2 9.3 5.4 0-1.8 0.7-3.6 2.1-4.9l9.8-9.8c2.7-2.7 7.2-2.7 9.9 0s2.7 7.2 0 9.9l-9.8 9.8c-1.4 1.4-3.1 2-4.9 2 2.2 2.8 4 5.9 5.4 9.3 0.9-1.5 2.3-2.6 4.1-3.1l13.5-3.7c3.7-1 7.6 1.2 8.6 4.9s-1.2 7.6-4.9 8.6l-13.5 3.7c-0.6 0.2-1.2 0.2-1.8 0.2-1.2 0-2.3-0.3-3.4-0.9 0.2 1.7 0.4 3.5 0.4 5.3s-0.1 3.5-0.4 5.3c1.5-0.8 3.4-1.1 5.2-0.6l13.5 3.6c3.5 0.8 5.8 4.7 4.8 8.4z" fill="#F2B843" /><path d="M265.7 446c-2.8 0-5.6 0.3-8.3 0.9a43.62 43.62 0 0 0-41.6-30.3c-23.4 0-42.5 18.5-43.6 41.6-15.1 2.6-26.6 15.7-26.6 31.5 0 17.6 14.4 32 32 32h45.5c3.9 0 7-3.1 7-7 0-0.6-0.1-1.2-0.2-1.8l57.4-15.1c0.5 2 2 3.8 4 4.7 3.6 1.5 7.7-0.2 9.2-3.7 2-4.8 3-9.9 3-15 0-20.8-17-37.8-37.8-37.8z" fill="#FFFFFF" opacity=".7" /><path d="M288.7 489.5c-1 0-1.9 0.1-2.9 0.2-4.3-10.2-14.5-17.3-26.1-17.3-14.4 0-26.3 10.8-28.1 24.6-9 2.6-15.5 10.9-15.5 20.7 0 11.9 9.6 21.5 21.5 21.5h51.2c13.7 0 24.9-11.2 24.9-25-0.1-13.6-11.4-24.7-25-24.7z" fill="#FFFFFF" /><path d="M456.4 610m-14.6 0a14.6 14.6 0 1 0 29.2 0 14.6 14.6 0 1 0-29.2 0Z" fill="#F2B843" /><path d="M580 756.1c-14.8 20.6-38.8 32.9-64 32.9-1.8 0-3.6-0.1-5.4-0.2C469.5 786 437 751.7 437 710v-9c0-41.8 32.6-76.1 73.6-78.8 1.8-0.1 3.5-0.2 5.4-0.2 25.6 0 49.8 12.6 64.6 33.7 6.4 9 4.2 21.5-4.8 27.9s-21.5 4.2-27.9-4.8c-7.4-10.5-19.3-16.7-31.9-16.7-1.8 0-3.6 0.1-5.4 0.4-19 2.6-33.6 18.9-33.6 38.6v9c0 19.7 14.7 36 33.6 38.6 1.8 0.2 3.5 0.4 5.4 0.4 12.4 0 24.2-6.1 31.6-16.3 6.4-9 18.9-11 27.9-4.6 8.8 6.4 10.9 18.9 4.5 27.9z" fill="#F2B843" /><path d="M735.9 610m-14.6 0a14.6 14.6 0 1 0 29.2 0 14.6 14.6 0 1 0-29.2 0Z" fill="#3F1E01" /><path d="M859.4 756.1c-14.9 20.6-38.9 32.9-64.1 32.9-43.6 0-79-35.4-79-79v-9c0-43.6 35.4-79 79-79 25.6 0 49.8 12.6 64.7 33.7 6.4 9 4.2 21.5-4.8 27.9s-21.5 4.2-27.9-4.8c-7.4-10.5-19.3-16.7-32-16.7-21.5 0-39 17.5-39 39v9c0 21.5 17.5 39 39 39 12.6 0 24.2-6 31.7-16.3 6.5-8.9 19-10.9 27.9-4.4 9 6.3 11 18.8 4.5 27.7z" fill="#3F1E01" /><path d="M177.1 610m-14.6 0a14.6 14.6 0 1 0 29.2 0 14.6 14.6 0 1 0-29.2 0Z" fill="#EA800C" /><path d="M236.5 789c-43.6 0-79-35.4-79-79v-9c0-43.6 35.4-79 79-79 25.6 0 49.8 12.6 64.7 33.7 6.4 9 4.2 21.5-4.8 27.9s-21.5 4.2-27.9-4.8c-7.4-10.5-19.3-16.7-31.9-16.7-21.5 0-39 17.5-39 39v9c0 21.5 17.5 39 39 39 12.4 0 24.2-6.1 31.6-16.3 6.4-9 18.9-11 27.9-4.6s11 18.9 4.6 27.9c-15 20.6-38.9 32.9-64.2 32.9z" fill="#EA800C" /><path d="M862.1 508.9c0 20.1-16.4 36.5-36.5 36.5H741.4c-17 0-30.9-13.9-30.9-30.9 0-15.2 11-27.8 25.4-30.4 1.2-21.5 18.6-38.8 40.2-39.8h1.9c18.5 0 34.4 12 39.9 29 2.6-0.6 5.2-0.8 7.8-0.8 14.2 0 26.6 8.2 32.6 20.1 2.4 4.8 3.8 10.4 3.8 16.3z" fill="#FFFFFF" /><path d="M654.5 329v523H842c49.5 0 90-40.5 90-90V329H654.5z m140.8 420c12.6 0 24.2-6 31.7-16.3 6.5-8.9 19-10.9 27.9-4.4s10.9 19 4.5 27.9c-14.9 20.6-38.9 32.9-64.1 32.9-43.6 0-79-35.4-79-79v-9c0-43.6 35.4-79 79-79 25.6 0 49.8 12.6 64.7 33.7 6.4 9 4.2 21.5-4.8 27.9s-21.5 4.2-27.9-4.8c-7.4-10.5-19.3-16.7-32-16.7-21.5 0-39 17.5-39 39v9c0 21.3 17.5 38.8 39 38.8z m-74-139c0-8.1 6.5-14.6 14.6-14.6s14.6 6.5 14.6 14.6-6.5 14.6-14.6 14.6-14.6-6.5-14.6-14.6zM855 473.8c0 1.8-0.1 3.5-0.4 5.3 1.5-0.8 3.4-1.1 5.2-0.6l13.5 3.6c3.7 1 6 4.8 5 8.6-0.8 3.1-3.7 5.2-6.8 5.2-0.6 0-1.2-0.1-1.8-0.2l-11.5-3.1c2.5 4.9 3.9 10.5 3.9 16.4 0 20.1-16.4 36.5-36.5 36.5H741.4c-17 0-30.9-13.9-30.9-30.9 0-15.2 11-27.8 25.4-30.4 1.2-21.5 18.6-38.8 40.2-39.8l-6.7-6.7c-2.8-2.7-2.8-7.1-0.1-9.9s7.2-2.8 9.9-0.1l9.9 9.8c1.4 1.4 2.1 3.2 2.1 5 2.9-2.2 6-4 9.3-5.4-1.5-0.9-2.8-2.4-3.3-4.2l-3.6-13.5c-1-3.7 1.2-7.6 5-8.6 3.7-1 7.6 1.2 8.6 5l3.6 13.5c0.5 1.9 0.2 3.7-0.7 5.3 1.8-0.2 3.6-0.4 5.4-0.4 1.8 0 3.6 0.1 5.3 0.4-0.9-1.5-1.2-3.4-0.7-5.3l3.6-13.5c1-3.7 4.8-6 8.6-5 3.7 1 6 4.8 5 8.6l-3.6 13.5c-0.5 1.9-1.7 3.3-3.2 4.2 3.3 1.4 6.5 3.2 9.3 5.4 0-1.8 0.7-3.6 2.1-4.9l9.8-9.8c2.7-2.7 7.2-2.7 9.9 0s2.7 7.2 0 9.9l-9.8 9.8c-1.4 1.4-3.1 2-4.9 2 2.2 2.8 4 5.9 5.4 9.3 0.9-1.5 2.3-2.6 4.1-3.1l13.5-3.7c3.7-1 7.6 1.2 8.6 4.9s-1.2 7.6-4.9 8.6l-13.5 3.7c-0.6 0.2-1.2 0.2-1.8 0.2-1.2 0-2.3-0.3-3.4-0.9 0 1.8 0.1 3.5 0.1 5.3z" fill="#2F9B77" /><path d="M721.3 610a14.6 14.6 0 1 0 29.2 0 14.6 14.6 0 1 0-29.2 0Z" fill="#EA800C" /><path d="M756.3 701v9c0 21.5 17.5 39 39 39 12.6 0 24.2-6 31.7-16.3 6.5-8.9 19-10.9 27.9-4.4s10.9 19 4.5 27.9c-14.9 20.6-38.9 32.9-64.1 32.9-43.6 0-79-35.4-79-79v-9c0-43.6 35.4-79 79-79 25.6 0 49.8 12.6 64.7 33.7 6.4 9 4.2 21.5-4.8 27.9s-21.5 4.2-27.9-4.8c-7.4-10.5-19.3-16.7-32-16.7-21.5-0.2-39 17.3-39 38.8z" fill="#EA800C" /><path d="M842 194h-50v41c0 11-9 20-20 20s-20-9-20-20v-41h-90v41c0 11-9 20-20 20s-20-9-20-20v-41H182c-49.5 0-90 40.5-90 90v45h840v-45c0-49.5-40.5-90-90-90z" fill="#F2B843" /><path d="M532 155v80c0 11-9 20-20 20-0.5 0-1 0-1.5-0.1-10.4-0.7-18.5-9.4-18.5-19.9v-80c0-10.6 8.2-19.2 18.5-19.9 0.5 0 1-0.1 1.5-0.1 11 0 20 9 20 20zM382 255c-11 0-20-9-20-20v-80c0-11 9-20 20-20s20 9 20 20v80c0 11-9 20-20 20zM662 155v80c0 11-9 20-20 20s-20-9-20-20v-80c0-11 9-20 20-20s20 9 20 20zM792 155v80c0 11-9 20-20 20s-20-9-20-20v-80c0-11 9-20 20-20s20 9 20 20zM252 255c-11 0-20-9-20-20v-80c0-11 9-20 20-20s20 9 20 20v80c0 11-9 20-20 20z" fill="#EA800C" /><path d="M842 184h-40v-29c0-16.5-13.5-30-30-30s-30 13.5-30 30v29h-70v-29c0-16.5-13.5-30-30-30s-30 13.5-30 30v29h-70v-29c0-16.5-13.5-30-30-30-0.7 0-1.4 0.1-1.7 0.1h-0.4c-15.6 1.1-27.8 14.2-27.8 29.9v29h-70v-29c0-16.5-13.5-30-30-30s-30 13.5-30 30v29h-70v-29c0-16.5-13.5-30-30-30s-30 13.5-30 30v29h-40c-55.1 0-100 44.9-100 100v478c0 55.1 44.9 100 100 100H842c55.1 0 100-44.9 100-100V284c0-55.1-44.9-100-100-100z m-80-29c0-5.5 4.5-10 10-10s10 4.5 10 10v80c0 5.5-4.5 10-10 10s-10-4.5-10-10v-80z m-130 0c0-5.5 4.5-10 10-10s10 4.5 10 10v80c0 5.5-4.5 10-10 10s-10-4.5-10-10v-80z m-130 0c0-5.2 3.9-9.5 9-9.9 0.5 0 0.9-0.1 1.2-0.1 5.4 0.1 9.8 4.6 9.8 10v80c0 5.5-4.5 10-10 10h-0.1c-0.2 0-0.5-0.1-0.7-0.1-5.1-0.3-9.2-4.7-9.2-9.9v-80z m-130 0c0-5.5 4.5-10 10-10s10 4.5 10 10v80c0 5.5-4.5 10-10 10s-10-4.5-10-10v-80z m-130 0c0-5.5 4.5-10 10-10s10 4.5 10 10v80c0 5.5-4.5 10-10 10s-10-4.5-10-10v-80zM102 284c0-44.1 35.9-80 80-80h40v31c0 16.5 13.5 30 30 30s30-13.5 30-30v-31h70v31c0 16.5 13.5 30 30 30s30-13.5 30-30v-31h70v31c0 15.5 12 28.5 27.3 29.8 1.1 0.2 2.1 0.2 2.7 0.2 16.5 0 30-13.5 30-30v-31h70v31c0 16.5 13.5 30 30 30s30-13.5 30-30v-31h70v31c0 16.5 13.5 30 30 30s30-13.5 30-30v-31h40c44.1 0 80 35.9 80 80v35H102v-35z m0 478V339h257.6v503H182c-44.1 0-80-35.9-80-80z m277.6-423h264.9v503H379.6V339zM922 762c0 44.1-35.9 80-80 80H664.6V339H922v423z" fill="#4D3500" /></svg>