<?xml version="1.0" standalone="no"?><!DOCTYPE svg PUBLIC "-//W3C//DTD SVG 1.1//EN" "http://www.w3.org/Graphics/SVG/1.1/DTD/svg11.dtd"><svg class="icon" width="200px" height="200.00px" viewBox="0 0 1024 1024" version="1.1" xmlns="http://www.w3.org/2000/svg"><path d="M578 474.8l-36.7-28.4L652.8 281l36.8-48.8 38.1 30.3L578 474.8z" fill="#EA800C" /><path d="M504.6 366.4L383.2 87.9C379 78.2 369.5 72 359 72H195.6c-5.3 0-9.5 4.3-9.5 9.5v33.8c0 5.3 4.3 9.5 9.5 9.5h146.1l105.2 241.6L501.6 491l54.9-15.3-51.9-109.3z" fill="#2F9B77" /><path d="M817.5 632.1c0 176.6-134.7 319.9-300.9 319.9S215.7 808.8 215.7 632.1c0-38.5 6.4-75.3 18.1-109.4l4.6 2.3 83.9 30.7c27.1 9.9 56.8 9.6 83.7-1l67.5-26.6c27.7-10.9 58.6-10.9 86.3 0l67.5 26.6c26.8 10.5 56.6 10.9 83.7 1l83.9-30.7 4.8-1.6c11.5 33.9 17.8 70.6 17.8 108.7z" fill="#3DC38A" /><path d="M741 419.1H292.3c15.6-18.5 33.1-35.1 52.3-49.4 2.9-2.2 6.5-3.3 10.2-3.3h323.7c3.7 0 7.2 1.1 10.2 3.3 19.2 14.3 36.8 30.9 52.3 49.4z" fill="#F2B843" /><path d="M799.7 523.4l-4.8 1.6-83.9 30.7c-27.1 9.9-56.8 9.6-83.7-1l-67.5-26.6c-27.7-10.9-58.6-10.9-86.3 0L406 554.7c-26.8 10.6-56.6 10.9-83.7 1L238.5 525l-4.6-2.3c13.2-38.6 33.2-73.6 58.4-103.6H741c25.4 30.2 45.5 65.5 58.7 104.3z" fill="#EA800C" /><path d="M817.8 373.8c-3.2 5.7-10.6 7.5-16.1 4l-62.4-40.4c48.6-75 59.6-154.4 25.2-178.8l1.9 1.3c5.9 4 11.4 8.3 16.6 12.9l0.2 0.2v0.1c56.4 50.1 71.4 133.6 34.6 200.7zM762.7 157.3c-36.1-22.7-104.8 19.9-153.8 95.5l-62.4-40.4c-5.5-3.6-6.9-11.1-3-16.3 51.3-67.7 146.7-85.4 219.2-38.8z" fill="#3DC38A" /><path d="M763.1 157.6c36 23.3 25.3 103.8-23.9 179.7l-130.4-84.5c49.3-75.8 118.3-118.5 154.3-95.2z" fill="#F2B843" /><path d="M763.2 157.6z" fill="#F9F7F8" /><path d="M430.5 760m-24 0a24 24 0 1 0 48 0 24 24 0 1 0-48 0Z" fill="#FFFFFF" /><path d="M483.5 658.9m-33.3 0a33.3 33.3 0 1 0 66.6 0 33.3 33.3 0 1 0-66.6 0Z" fill="#FFFFFF" /><path d="M497.5 833m-14 0a14 14 0 1 0 28 0 14 14 0 1 0-28 0Z" fill="#FFFFFF" /><path d="M809.2 520.2c-13.5-39.6-33.8-75.8-60.5-107.5-15.9-19-34.1-36.2-54-51-4.7-3.4-10.2-5.2-16.1-5.2h-4.8l24-34.1 35.7 23.1c0.2 0.1 0.3 0.2 0.5 0.4l62.5 40.4c3.5 2.2 7.5 3.3 11.5 3.3 1.7 0 3.5-0.2 5.2-0.6 5.7-1.4 10.6-5.2 13.4-10.2v-0.1c18.8-34.3 25.5-74.6 18.7-113.3-6.7-38.1-26-73.2-54.6-98.9-0.1-0.2-0.3-0.3-0.5-0.5l-0.2-0.2-0.4-0.4c-5.6-5-11.5-9.6-17.6-13.7l-1-0.7c-0.4-0.3-0.9-0.6-1.3-0.9-0.5-0.5-1.1-0.9-1.8-1.2-37.1-23.8-81.3-32.6-124.6-24.8-43.1 7.7-81.4 31.2-107.9 66.1-3.5 4.6-4.9 10.6-3.9 16.4 1 5.8 4.5 11 9.5 14.3l61.5 39.8c0.3 0.2 0.5 0.4 0.8 0.6l35.3 22.9-48.7 72.4h-78.8L392.4 83.9C386.6 70.6 373.5 62 359 62H195.6c-10.8 0-19.5 8.7-19.5 19.5v33.9c0 10.8 8.7 19.5 19.5 19.5h139.5l96.5 221.5h-76.8c-6 0-11.6 1.8-16.2 5.3-19.6 14.6-37.8 31.7-54 51-26.2 31.2-46.3 66.7-59.7 105.5-0.2 0.4-0.4 0.8-0.6 1.3-12.4 36.1-18.6 74-18.6 112.6 0 88 32.3 170.8 90.8 233.1 58.7 62.4 136.9 96.8 220.1 96.8 83.2 0 161.3-34.4 220.1-96.9 58.6-62.3 90.8-145 90.8-233 0-38.4-6.2-76.1-18.3-111.9zM622.8 250c9.9-14.4 20.6-27.6 31.8-39.2l0.3-0.3c0.6-0.6 1.2-1.3 1.8-1.9l0.9-0.9 1.1-1.1c0.5-0.5 1-1 1.6-1.5l0.3-0.3c11.6-11.3 23.6-20.9 35.6-28.3 25.3-15.6 47.7-19.5 61.5-10.6 0.2 0.1 0.4 0.3 0.7 0.5 0.1 0.1 0.3 0.2 0.4 0.3 1.6 1.1 3 2.4 4.4 3.9l0.3 0.3c0.2 0.2 0.3 0.4 0.5 0.5 0.2 0.3 0.5 0.6 0.7 0.8 8.7 11.1 11.8 30.1 8.6 54-4 29.9-17.1 64.1-37.1 97L701 300.6l-0.1-0.1c-0.3-0.2-0.5-0.4-0.8-0.5l-77.3-50z m202.8 18.8c6 34.2 0.1 69.8-16.5 100.1-0.2 0.3-0.5 0.5-0.8 0.6-0.3 0.1-0.7 0.1-1.1-0.1l-54.1-35c21.3-34.9 35.4-71.5 39.9-104 1.6-11.3 2-21.9 1.2-31.4 16 20.1 26.9 44.2 31.4 69.8zM551.3 203c-0.1-0.4 0-0.7 0.2-0.9 23.4-30.8 57.3-51.6 95.4-58.5 9.1-1.6 18.2-2.4 27.3-2.4 13.1 0 26.1 1.7 38.7 5-8.8 3.1-18.1 7.6-27.6 13.5-14.1 8.7-28.2 20.2-41.6 33.7l-0.9 0.9c-0.5 0.5-1 1-1.5 1.6-0.7 0.7-1.4 1.5-2.1 2.2-0.1 0.1-0.1 0.2-0.2 0.2-11.6 12.2-22.7 25.9-32.9 40.7l-54-35c-0.6-0.3-0.8-0.7-0.8-1z m104.1 91.9l25.5 16.5-31.7 44.9H614l41.4-61.4z m-304.5-174c-1.6-3.6-5.2-6-9.2-6H196.1V82H359c6.5 0 12.4 3.9 15 9.9l115.2 264.5h-35.8L350.9 120.9z m-0.3 256.8c1.1-0.8 2.6-1.3 4.2-1.3h323.6c1.6 0 3 0.4 4.2 1.3 12.7 9.5 24.7 20 35.8 31.4H314.8c11.2-11.5 23.2-22 35.8-31.4zM297 429.1h439.3c21.6 26.4 38.5 56 50.6 88.2l-79.3 29c-24.8 9.1-52 8.7-76.6-0.9l-67.5-26.6c-30.2-11.9-63.4-11.9-93.6 0l-67.5 26.6c-24 9.5-50.6 9.9-75 1.5-0.5-0.2-1.1-0.4-1.6-0.5l-79.3-29c12-32.3 29-61.9 50.5-88.3z m425.1 422.3C667.2 909.8 594.2 942 516.6 942S366 909.8 311.1 851.5C256 792.9 225.7 715 225.7 632.1c0-32.8 4.8-65 14.2-95.9l78.9 28.9c0.9 0.3 1.8 0.7 2.7 1 0.2 0.1 0.4 0.1 0.7 0.2 0.7 0.2 1.4 0.5 2.1 0.7 0.2 0.1 0.5 0.1 0.7 0.2l2.1 0.6c0.2 0.1 0.4 0.1 0.6 0.2 0.7 0.2 1.5 0.4 2.2 0.6 0.2 0 0.3 0.1 0.5 0.1 0.8 0.2 1.6 0.4 2.3 0.6 0.1 0 0.2 0.1 0.3 0.1 0.8 0.2 1.7 0.4 2.5 0.6h0.2c0.9 0.2 1.8 0.4 2.7 0.5h0.1c8 1.6 16.2 2.3 24.3 2.3 15.9 0 31.8-3 46.7-8.9l67.5-26.6c25.5-10 53.5-10 79 0l67.5 26.6h0.1c29.1 11.4 61.3 11.8 90.7 1.1l78.9-28.9c9.4 30.9 14.2 63.1 14.2 95.9 0.1 83-30.2 160.9-85.3 219.4z" fill="#4D3500" /><path d="M430.5 726c-18.7 0-34 15.3-34 34s15.3 34 34 34 34-15.3 34-34-15.3-34-34-34z m0 48c-7.7 0-14-6.3-14-14s6.3-14 14-14 14 6.3 14 14-6.3 14-14 14zM483.5 615.6c-23.9 0-43.3 19.4-43.3 43.3s19.4 43.3 43.3 43.3 43.3-19.4 43.3-43.3-19.4-43.3-43.3-43.3z m0 66.6c-12.8 0-23.3-10.5-23.3-23.3s10.5-23.3 23.3-23.3 23.3 10.5 23.3 23.3-10.5 23.3-23.3 23.3zM497.5 809c-13.2 0-24 10.8-24 24s10.8 24 24 24 24-10.8 24-24-10.8-24-24-24z m0 28c-2.2 0-4-1.8-4-4s1.8-4 4-4 4 1.8 4 4-1.8 4-4 4z" fill="#4D3500" /></svg>