<?xml version="1.0" standalone="no"?><!DOCTYPE svg PUBLIC "-//W3C//DTD SVG 1.1//EN" "http://www.w3.org/Graphics/SVG/1.1/DTD/svg11.dtd"><svg class="icon" width="200px" height="200.00px" viewBox="0 0 1024 1024" version="1.1" xmlns="http://www.w3.org/2000/svg"><path d="M574 342.8m-38.3 0a38.3 38.3 0 1 0 76.6 0 38.3 38.3 0 1 0-76.6 0Z" fill="#F2B843" /><path d="M627 697c15.2-20.7 45.3-294-45-383.3-3-6.1-0.4-13.5 5.7-16.5 6.2-3 13.5-0.5 16.5 5.7C689.8 370.2 719.9 573 705.1 697H627z" fill="#EA800C" /><path d="M617.8 307.4m-38.3 0a38.3 38.3 0 1 0 76.6 0 38.3 38.3 0 1 0-76.6 0Z" fill="#F2B843" /><path d="M608 272.5L461 502.8c-33.6-47.5-37.2-112.5-3.9-164.6 33.2-52.1 93.7-76.2 150.9-65.7z" fill="#3DC38A" /><path d="M742.5 132.3L569.9 299.8c-19.2-47.5-9.1-103.9 29.9-141.8 39.1-37.9 95.8-46.3 142.7-25.7z" fill="#2F9B77" /><path d="M608.7 289.2l-239.6 21.1c15.1-49 58.5-86.4 112.7-91.1 54.2-4.8 103.5 24.4 126.9 70z" fill="#2F9B77" /><path d="M594.7 269.9L408.5 168.4c35-28.6 85.2-34.8 127.3-11.9 42.1 23 64 68.6 58.9 113.4z" fill="#3DC38A" /><path d="M825.5 331.8l-271.4-31.4c28-51 84.9-82.7 146.3-75.6 61.3 7 109.5 51 125.1 107z" fill="#3DC38A" /><path d="M75.3 868.9c0-86.5 104.3-173 233-173s233 86.5 233 173h-466z" fill="#2F9B77" /><path d="M938.2 868.9c0-116.2-130.9-232.3-292.3-232.3S353.5 752.7 353.5 868.9h584.7z" fill="#3DC38A" /><path d="M858.9 701.5c-28.1-23.1-60.4-41.4-95.9-54.3-14.5-5.3-29.3-9.5-44.3-12.8 0.2-51.3-5.5-106.3-16.2-155.9-11.9-54.8-29.5-101.6-51.2-136.3 5.6-5.3 9.7-11.8 12.2-19.1l160.8 18.6c0.4 0 0.8 0.1 1.2 0.1 2.9 0 5.7-1.3 7.6-3.5 2.2-2.5 2.9-6 2-9.2-8.3-29.8-25.1-56.3-48.5-76.7-24-20.9-53.5-33.9-85.1-37.5-9.7-1.1-19.3-1.3-28.9-0.7l76.8-74.6c2.4-2.3 3.5-5.7 2.9-8.9-0.6-3.3-2.8-6-5.8-7.4-52.3-23-112.6-12.1-153.7 27.7-7.2 7-13.6 14.7-19.1 23.1-9.4-10.5-20.6-19.4-33.1-26.2-44.7-24.3-99-19.2-138.4 12.9-2.6 2.1-3.9 5.4-3.6 8.7s2.2 6.3 5.2 7.9l62.5 34c-50.2 9.8-91.2 46.2-106.6 96-1 3.2-0.3 6.6 1.8 9.2 1.9 2.4 4.8 3.7 7.8 3.7h0.9l94.5-8.3c-5.8 6.4-11 13.3-15.8 20.8-17.2 26.9-25.7 57.9-24.7 89.7 1 31 11 60.8 28.9 86 1.9 2.7 4.9 4.2 8.2 4.2h0.2c3.3-0.1 6.4-1.8 8.2-4.6L549 383.9c7.5 4.6 16.1 7.1 25.2 7.1 13.4 0 25.9-5.5 34.8-14.7 27.2 70.9 29.2 175.3 21.8 250.6-34.9 1.5-69.1 8.3-101.8 20.2-35.5 12.9-67.8 31.2-95.9 54.3-3.2 2.6-6.3 5.3-9.4 8.1-35.7-15.5-75.4-23.6-115.1-23.6-63.1 0-123.8 19.9-170.9 56.1-45.8 35.3-72.1 81.5-72.1 126.9 0 5.5 4.5 10 10 10h862.9c5.5 0 10-4.5 10-10-0.3-59.7-32.8-120.7-89.6-167.4z m-226.2-370c-3.3 2.1-7 3.4-10.9 3.9-1-6.4-3.2-12.5-6.5-17.9l27.6 3.2c-2.3 4.4-5.8 8.1-10.2 10.8z m66.6-96.8c27.6 3.2 53.3 14.5 74.3 32.7 16.6 14.5 29.4 32.4 37.5 52.6l-152.7-17.7c-0.4-0.1-0.8-0.2-1.2-0.2-0.4 0-0.8-0.1-1.2-0.1l-65.3-7.6c-1-0.3-2-0.4-2.9-0.3l-5.5-0.6c-0.1 0-0.2-0.1-0.3-0.1-0.7-0.1-1.3-0.2-2-0.2l-8.8-1c5.3-7.5 11.3-14.5 18-20.8 0.5-0.4 1-0.8 1.4-1.3 8.7-8 18.4-14.9 29.1-20.5 8-4.2 16.4-7.6 24.9-10.2 0.5-0.1 0.9-0.2 1.4-0.4 17-4.8 35.1-6.4 53.3-4.3z m-92.5-69.4c31.5-30.5 76.2-41.2 117.4-29l-87 84.4c-9.3 2.9-18.4 6.6-27.1 11.2-2.2 1.2-4.3 2.4-6.5 3.6-2.8-15.7-8.5-30.8-17-44.4 5.5-9.5 12.3-18.2 20.2-25.8z m-75.8 0.1c14.4 7.9 26.4 18.6 35.7 31.9 10.5 15.1 16.8 32.7 18.4 51-1.2 1-2.5 2-3.6 3l-74-40.3c-0.8-0.7-1.8-1.2-2.8-1.5l-77.2-42.1c31.3-18.8 70.6-20 103.5-2z m-48.2 63.8c5.2-0.5 10.3-0.6 15.4-0.4l68.2 37.1c-5.1 5.7-9.9 11.8-14.2 18.2l-60 5.3-108.1 9.5c17.8-39.1 55-66 98.7-69.7zM461.2 484c-24.3-43.9-23-97.5 4.5-140.6 8.5-13.4 19-24.9 31.3-34.4l48.3-4.2s0 0.1 0.1 0.1c1.5 3 4.4 5 7.7 5.3l17.8 2.1-32.1 50.3c-0.6 0.7-1 1.4-1.4 2.2L461.2 484zM574 371c-5.2 0-10.1-1.4-14.4-3.9l29.3-45.9 1.1-1.8c7.6 5.2 12.4 13.9 12.4 23.4v2.1c-0.1 1.8-0.5 3.8-1.1 6.1-0.2 0.6-0.4 1.1-0.6 1.7-4.2 10.9-14.8 18.3-26.7 18.3z m47.8-15.5c4.3-0.3 8.6-1.3 12.6-2.7 20.5 32.6 37.2 77.3 48.6 129.9 10.2 47.1 15.7 99.1 15.8 148-15.9-2.5-31.9-3.8-48.1-4 2.7-28.8 5.6-76.5 1.8-130.4-4-57.6-14.3-104.8-30.7-140.8zM149.6 757.9c43.6-33.5 99.9-52 158.7-52 34.2 0 68.3 6.5 99.4 18.8-38.4 40-61.1 87.2-63.9 134.2h-258c3.6-35.9 26.4-72.2 63.8-101z m391.7 101H363.8c3.4-50.5 32.8-101.8 81.7-142 26.4-21.7 56.6-38.8 90-50.9 35.4-12.8 72.5-19.4 110.4-19.4 37.9 0 75 6.5 110.3 19.4 33.4 12.1 63.6 29.3 90 50.9 48.9 40.2 78.2 91.5 81.6 142H541.3z" fill="#4D3500" /></svg>