<?xml version="1.0" standalone="no"?><!DOCTYPE svg PUBLIC "-//W3C//DTD SVG 1.1//EN" "http://www.w3.org/Graphics/SVG/1.1/DTD/svg11.dtd"><svg class="icon" width="200px" height="200.00px" viewBox="0 0 1024 1024" version="1.1" xmlns="http://www.w3.org/2000/svg"><path d="M72 440.5h880v286.2H72z" fill="#F2B843" /><path d="M72 726.6V834c0 19.8 16 35.8 35.8 35.8h808.5c19.8 0 35.8-16 35.8-35.8V726.6H72zM916.2 297.4H708.7L647 174.1c-6.1-12.1-18.5-19.8-32-19.8H408.9c-13.5 0-25.9 7.7-32 19.8l-61.7 123.3h-64.4v-35.8c0-19.8-16-35.8-35.8-35.8h-35.8c-19.8 0-35.8 16-35.8 35.8v35.8h-35.8c-19.8 0-35.8 16-35.8 35.8v107.3h880V333.1c0.2-19.7-15.8-35.7-35.6-35.7z" fill="#3DC38A" /><path d="M726.6 583.5c0 118.3-95.9 214.6-214.6 214.6-118.8 0-214.6-96.4-214.6-214.6 0-118.3 95.9-214.6 214.6-214.6 118.8 0 214.6 96.4 214.6 214.6z" fill="#EA800C" /><path d="M512 440.5c78.9 0 143.1 64.2 143.1 143.1S590.9 726.7 512 726.7s-143.1-64.2-143.1-143.1S433.1 440.5 512 440.5z" fill="#FFFFFF" /><path d="M773.1 386.8c9.9 0 17.9-8 17.9-17.9s-8-17.9-17.9-17.9-17.9 8-17.9 17.9c0.1 9.9 8.1 17.9 17.9 17.9zM565.7 207.9H458.3c-9.9 0-17.9 8-17.9 17.9s8 17.9 17.9 17.9h107.3c9.9 0 17.9-8 17.9-17.9s-8-17.9-17.8-17.9zM512 744.5c88.8 0 161-72.2 161-161s-72.2-161-161-161-161 72.2-161 161 72.2 161 161 161z m0-286.2c69 0 125.2 56.2 125.2 125.2S581 708.7 512 708.7s-125.2-56.2-125.2-125.2S443 458.3 512 458.3z" fill="#2F9B77" /><path d="M440.5 601.4c9.9 0 17.9-8 17.9-17.9 0-29.6 24.1-53.7 53.7-53.7 9.9 0 17.9-8 17.9-17.9s-8-17.9-17.9-17.9c-49.3 0-89.4 40.1-89.4 89.4-0.1 10 7.9 18 17.8 18z" fill="#3DC38A" /><path d="M844.7 386.8h35.8c9.9 0 17.9-8 17.9-17.9s-8-17.9-17.9-17.9h-35.8c-9.9 0-17.9 8-17.9 17.9s8 17.9 17.9 17.9z" fill="#2F9B77" /><path d="M773.1 396.8c15.4 0 27.9-12.5 27.9-27.9S788.5 341 773.1 341s-27.9 12.5-27.9 27.9v0.1c0.2 15.3 12.7 27.8 27.9 27.8z m0-35.8c4.4 0 7.9 3.5 7.9 7.9s-3.5 7.9-7.9 7.9c-4.3 0-7.8-3.6-7.9-8 0-4.3 3.6-7.8 7.9-7.8zM458.3 253.7h107.3c15.4 0 27.9-12.5 27.9-27.9s-12.5-27.9-27.8-27.9H458.3c-15.4 0-27.9 12.5-27.9 27.9s12.5 27.9 27.9 27.9z m0-35.8h107.4c4.3 0 7.8 3.5 7.8 7.9s-3.5 7.9-7.9 7.9H458.3c-4.4 0-7.9-3.5-7.9-7.9s3.5-7.9 7.9-7.9zM512 754.5c94.3 0 171-76.7 171-171s-76.7-171-171-171-171 76.7-171 171 76.7 171 171 171z m0-322c83.3 0 151 67.7 151 151s-67.7 151-151 151-151-67.7-151-151 67.7-151 151-151z" fill="#4D3500" /><path d="M512 718.7c74.5 0 135.2-60.7 135.2-135.2S586.5 448.3 512 448.3 376.8 509 376.8 583.5 437.5 718.7 512 718.7z m0-250.4c63.5 0 115.2 51.7 115.2 115.2S575.5 698.7 512 698.7 396.8 647 396.8 583.5 448.5 468.3 512 468.3z" fill="#4D3500" /><path d="M468.4 583.5c0-24.1 19.6-43.7 43.7-43.7 15.4 0 27.9-12.5 27.9-27.9S527.5 484 512.1 484c-54.8 0-99.4 44.6-99.4 99.4-0.1 7.5 2.8 14.5 8 19.8 5.3 5.3 12.3 8.2 19.8 8.2 15.4 0 27.9-12.5 27.9-27.9z m-35.7 0s0-0.1 0 0c0-43.9 35.6-79.5 79.4-79.5 4.4 0 7.9 3.5 7.9 7.9s-3.5 7.9-7.9 7.9c-35.1 0-63.7 28.6-63.7 63.7 0 4.4-3.5 7.9-7.9 7.9-2.1 0-4.1-0.8-5.6-2.3-1.4-1.5-2.2-3.5-2.2-5.6zM844.7 396.8h35.8c15.4 0 27.9-12.5 27.9-27.9S895.9 341 880.5 341h-35.8c-15.4 0-27.9 12.5-27.9 27.9s12.5 27.9 27.9 27.9z m0-35.8h35.8c4.4 0 7.9 3.5 7.9 7.9s-3.5 7.9-7.9 7.9h-35.8c-4.4 0-7.9-3.5-7.9-7.9s3.5-7.9 7.9-7.9z" fill="#4D3500" /><path d="M916.5 287.3H715.2l-58.9-117.8c-7.8-15.6-23.5-25.3-40.9-25.3H409.1c-17.4 0-33.1 9.7-40.9 25.3l-58.9 117.8H261v-25.8c0-25.3-20.5-45.8-45.8-45.8h-35.8c-25.3 0-45.8 20.5-45.8 45.8v25.8h-25.8c-25.3 0-45.8 20.5-45.8 45.8V834c0 25.1 20.5 45.7 45.8 45.8h808.4c25.3 0 45.8-20.5 45.8-45.8V442.8c0.2-0.8 0.3-1.6 0.3-2.4V333.1c0-25.3-20.5-45.8-45.8-45.8z m-737.1-51.6h35.8c14.2 0 25.8 11.6 25.8 25.8v25.9h-87.4v-25.9c0-14.2 11.6-25.8 25.8-25.8zM82 450.5h249.1c-27.5 37.3-43.7 83.3-43.7 133 0 49.8 16.3 95.8 43.8 133.1H82V450.5z m430-71.6c112.8 0 204.6 91.8 204.6 204.6S624.8 788.1 512 788.1s-204.6-91.8-204.6-204.6S399.2 378.9 512 378.9zM942 834c0 14.2-11.6 25.8-25.8 25.8H107.9C93.6 859.7 82 848.2 82 834v-97.4h265.8c41 44 99.4 71.5 164.2 71.5s123.1-27.5 164.2-71.5H942V834z m0-117.4H692.8c27.5-37.3 43.8-83.3 43.8-133.1 0-49.7-16.3-95.7-43.7-133H942v266.1z m0.3-286.2H676.2c-41-44-99.4-71.5-164.2-71.5s-123.2 27.6-164.3 71.6H82v-97.4c0-14.2 11.6-25.8 25.8-25.8h34.4c0.4 0.1 0.9 0.1 1.3 0.1h108c0.5 0 0.9 0 1.3-0.1h62.6c3.8 0 7.2-2.1 8.9-5.5L386 178.5c4.4-8.8 13.3-14.3 23.1-14.3h206.2c9.8 0 18.7 5.5 23.1 14.3l61.7 123.3c1.7 3.4 5.2 5.5 8.9 5.5h207.5c14.2 0 25.8 11.6 25.8 25.8v97.3z" fill="#4D3500" /></svg>