<?xml version="1.0" standalone="no"?><!DOCTYPE svg PUBLIC "-//W3C//DTD SVG 1.1//EN" "http://www.w3.org/Graphics/SVG/1.1/DTD/svg11.dtd"><svg class="icon" width="200px" height="200.00px" viewBox="0 0 1024 1024" version="1.1" xmlns="http://www.w3.org/2000/svg"><path d="M332.9 258.8h25.9V311h-25.9v-52.2zM536.3 258.8h25.9V311h-25.9v-52.2z" fill="#2F9B77" /><path d="M923.7 788.5H100.3V398.4c0-56 45.4-101.5 101.5-101.5h465.7c141.5 0 256.3 114.7 256.3 256.3l-0.1 235.3z" fill="#3DC38A" /><path d="M100.3 553.2h823.5v235.2H100.3V553.2z" fill="#2F9B77" /><path d="M84.6 772.8h52v-71.9c0-6.8-5.5-12.4-12.4-12.4H97c-6.8 0-12.4 5.5-12.4 12.4v71.9z" fill="#EA800C" /><path d="M887.4 772.8h52v-53.1c0-17.2-14-31.2-31.2-31.2h-8.4c-6.8 0-12.4 5.5-12.4 12.4v71.9z" fill="#F2B843" /><path d="M916.8 823.7H107.2c-19.5 0-35.2-15.8-35.2-35.2 0-19.5 15.8-35.2 35.2-35.2h809.5c19.5 0 35.2 15.8 35.2 35.2 0.1 19.4-15.7 35.2-35.1 35.2z" fill="#3DC38A" /><path d="M711.9 788.5m-112 0a112 112 0 1 0 224 0 112 112 0 1 0-224 0Z" fill="#EA800C" /><path d="M711.9 788.5m-50.7 0a50.7 50.7 0 1 0 101.4 0 50.7 50.7 0 1 0-101.4 0Z" fill="#FFFFFF" /><path d="M289.5 788.5m-112 0a112 112 0 1 0 224 0 112 112 0 1 0-224 0Z" fill="#EA800C" /><path d="M289.5 788.5m-50.7 0a50.7 50.7 0 1 0 101.4 0 50.7 50.7 0 1 0-101.4 0Z" fill="#FFFFFF" /><path d="M843.2 466.4c-33.8-71.6-105.4-121-188.2-121h-20.7c-14.8 0-26.7 12.3-26.7 27.4v105.7c0 15.1 12 27.4 26.7 27.4h184.9c19.8-0.1 32.6-21.3 24-39.5zM547.6 345.3H429.4c-15.1 0-27.4 12.3-27.4 27.4v105.7c0 15.1 12.3 27.4 27.4 27.4h118.2c15.1 0 27.4-12.3 27.4-27.4V372.7c0-15.1-12.3-27.4-27.4-27.4zM342 345.3h-97.3c-18.5 0-33.6 15-33.6 33.6v99.5c0 15.1 12.3 27.4 27.4 27.4H342c15.1 0 27.4-12.3 27.4-27.4V372.7c0-15.1-12.2-27.4-27.4-27.4z" fill="#F2B843" /><path d="M281.1 123.5c37.8 0 37.8 103.1 0 103.1s-128.6-23.1-128.6-51.5 90.8-51.6 128.6-51.6z" fill="#EA800C" /><path d="M952 192.7c0 47.1-197 75.3-440 75.3S72 239.8 72 192.7s880-47.2 880 0z" fill="#F2B843" /><path d="M949.4 719.7c0-12.7-5.9-24.5-15.6-32.3V553.2c0-146.8-119.5-266.3-266.3-266.3h-95.3v-9.4-0.1c97.9-2 186.1-8.7 252.5-19.5 41.5-6.7 74-14.9 96.5-24.3 27.4-11.4 40.7-24.8 40.7-40.9 0-2.7 0-11.1-16.2-17.6-7-2.8-16.8-5.3-29.8-7.7-23.6-4.3-57.4-8.1-100.7-11.2-79.9-5.7-187.5-8.9-303-8.9-69.5 0-136.2 1.1-195.7 3.3-5.5-23.4-18.5-37.1-35.6-37.1-20 0-51.2 5.8-77.7 14.3-30.3 9.8-49.5 21.2-57.2 34.1-14.7 1.7-27.5 3.5-38.1 5.5-27.6 5.1-46 11.3-46 25.3 0 16.1 13.3 29.5 40.7 40.9 22.6 9.4 55 17.6 96.5 24.3 35.6 5.8 77.4 10.4 123.6 13.8V287H201.8c-61.5 0-111.5 50-111.5 111.5v281c-9.1 2.9-15.7 11.4-15.7 21.4v56.5c-8 8.4-12.5 19.5-12.5 31.2 0 24.9 20.3 45.2 45.2 45.2h68.9c18 45 62 76.8 113.3 76.8s95.3-31.8 113.3-76.8h195.8c18 45 62 76.8 113.3 76.8s95.3-31.8 113.3-76.8h91.5c24.9 0 45.2-20.3 45.2-45.2 0-11.8-4.5-22.9-12.5-31.2v-37.7z m-124.2 23.6c-18-45-62-76.8-113.3-76.8s-95.3 31.8-113.3 76.7H402.8c-18-44.9-62-76.7-113.3-76.7s-95.3 31.8-113.3 76.8h-29.6v-42.5c0-12.4-10-22.4-22.4-22.4h-13.9V563.2h803.4V679c-1.8-0.2-3.6-0.4-5.4-0.4h-8.4c-12.4 0-22.4 10-22.4 22.4v42.3h-52.3zM94.6 700.8c0-1.3 1.1-2.4 2.4-2.4h2c0.4 0.1 0.9 0.1 1.3 0.1s0.9 0 1.3-0.1h22.6c1.3 0 2.4 1.1 2.4 2.4v42.5h-19.3c-4.3 0-8.6 0.6-12.7 1.8v-44.3z m802.9 0.2c0-1.3 1.1-2.4 2.4-2.4h8.4c3.7 0 7.3 1 10.5 2.8 6.5 3.7 10.6 10.7 10.6 18.3v25.4c-1.2-0.3-2.4-0.7-3.6-0.9-2.7-0.6-5.8-0.9-9.1-0.9h-19.2V701zM552.2 286.9h-5.9v-9-0.1c2 0 3.9-0.1 5.9-0.1v9.2z m-183.4 0v-12.4c45 2.3 93.2 3.5 143.2 3.5h14.3v8.9H368.8zM209.4 146.8c24.3-7.9 53.7-13.3 71.6-13.3 7.2 0 12.2 8.3 15.1 17.9-31.6 1.3-60.9 2.9-87.2 4.8-9.8 0.7-19.2 1.4-28 2.2 7.1-3.7 16.5-7.7 28.5-11.6z m-99 68.3c-15.7-6.5-25.8-13.8-28-20 3.4-1.9 13.5-5.8 41.3-10.1 24.7-3.8 58.3-7.1 99.9-9.8 78-5.1 180.4-7.9 288.4-7.9h0.3c107.9 0 210.2 2.8 288 7.9 41.6 2.7 75.2 6 99.9 9.8 27.8 4.3 37.9 8.2 41.3 10.1-2.2 6.2-12.3 13.5-28 20-21.1 8.8-52.1 16.5-92.1 23C742.7 250.9 632.8 258 512 258s-230.7-7.1-309.5-19.9c-40-6.4-70.9-14.2-92.1-23zM342.9 273c2 0.1 3.9 0.2 5.9 0.4v13.5h-5.9V273z m-141.1 33.9h465.7c132.5 0 240.8 105.1 246.1 236.3H110.3V398.4c0-50.5 41-91.5 91.5-91.5z m-94.5 506.8c-13.9 0-25.2-11.3-25.2-25.2 0-7.4 3.3-14.5 9-19.3 4.5-3.8 10.3-5.9 16.2-5.9h62.8c-1.7 8.1-2.6 16.6-2.6 25.2s0.9 17.1 2.6 25.2h-62.8z m182.2 76.8c-44.8 0-83-29.1-96.6-69.3-0.1-0.4-0.2-0.8-0.4-1.2-3.2-9.9-5-20.5-5-31.5 0-10.7 1.7-21 4.7-30.7 0.4-0.8 0.7-1.8 0.9-2.7 13.9-39.9 51.8-68.6 96.4-68.6 56.2 0 102 45.8 102 102 0 11-1.8 21.6-5 31.5-0.2 0.4-0.3 0.8-0.4 1.2-13.6 40.2-51.8 69.3-96.6 69.3z m119.4-76.8c1.7-8.1 2.6-16.6 2.6-25.2 0-8.7-0.9-17.1-2.6-25.3h183.7c-1.7 8.2-2.6 16.6-2.6 25.3 0 8.6 0.9 17.1 2.6 25.2H408.9z m303 76.8c-44.8 0-83-29.1-96.6-69.4-0.1-0.4-0.2-0.8-0.4-1.1-3.2-9.9-5-20.5-5-31.5 0-56.2 45.8-102 102-102 44.5 0 82.5 28.7 96.4 68.6 0.2 1 0.5 1.9 0.9 2.7 3.1 9.7 4.7 20 4.7 30.7 0 11-1.8 21.6-5 31.5-0.2 0.4-0.3 0.8-0.4 1.2-13.6 40.2-51.8 69.3-96.6 69.3z m204.8-76.8h-85.4c1.7-8.1 2.6-16.6 2.6-25.2s-0.9-17.1-2.6-25.2h54.9c0.4 0.1 0.9 0.1 1.3 0.1s0.9 0 1.3-0.1h27.9c1.8 0 3.5 0.2 4.8 0.5h0.2c4.2 0.9 8 2.7 11.2 5.4 5.7 4.8 9 11.8 9 19.3 0 13.9-11.3 25.2-25.2 25.2z" fill="#4D3500" /><path d="M711.9 727.8c-33.5 0-60.7 27.2-60.7 60.7s27.2 60.7 60.7 60.7 60.7-27.2 60.7-60.7-27.2-60.7-60.7-60.7z m0 101.4c-22.4 0-40.7-18.3-40.7-40.7s18.3-40.7 40.7-40.7c22.4 0 40.7 18.3 40.7 40.7s-18.3 40.7-40.7 40.7zM289.5 727.8c-33.5 0-60.7 27.2-60.7 60.7s27.2 60.7 60.7 60.7 60.7-27.2 60.7-60.7-27.2-60.7-60.7-60.7z m0 101.4c-22.4 0-40.7-18.3-40.7-40.7s18.3-40.7 40.7-40.7 40.7 18.3 40.7 40.7-18.3 40.7-40.7 40.7zM634.3 515.9h185c12.5-0.1 24.1-6.5 30.8-17.2 7-11 7.8-24.7 2.2-36.5-17.6-37.4-45.1-69-79.3-91.4-35.2-23.1-76-35.3-118-35.3h-20.7c-20.2 0-36.7 16.8-36.7 37.4v105.7c0 20.5 16.5 37.3 36.7 37.3z m-16.7-143.1c0-9.6 7.5-17.4 16.7-17.4H655c38.1 0 75.1 11.1 107 32 31.1 20.4 56.1 49.2 72.2 83.3 2.7 5.6 2.3 12.1-1 17.3-3.1 5-8.2 7.9-13.9 7.9h-185c-9.2 0-16.7-7.8-16.7-17.4V372.8zM429.4 515.8h118.2c20.6 0 37.4-16.8 37.4-37.4V372.7c0-20.6-16.8-37.4-37.4-37.4H429.4c-20.6 0-37.4 16.8-37.4 37.4v105.7c0 20.6 16.8 37.4 37.4 37.4zM412 372.7c0-9.6 7.8-17.4 17.4-17.4h118.2c9.6 0 17.4 7.8 17.4 17.4v105.7c0 9.6-7.8 17.4-17.4 17.4H429.4c-9.6 0-17.4-7.8-17.4-17.4V372.7zM238.5 515.8H342c20.6 0 37.4-16.8 37.4-37.4V372.7c0-20.6-16.8-37.4-37.4-37.4h-97.3c-24 0-43.6 19.6-43.6 43.6v99.5c0 20.6 16.8 37.4 37.4 37.4z m-17.4-136.9c0-13 10.6-23.6 23.6-23.6H342c9.6 0 17.4 7.8 17.4 17.4v105.7c0 9.6-7.8 17.4-17.4 17.4H238.5c-9.6 0-17.4-7.8-17.4-17.4v-99.5z" fill="#4D3500" /></svg>