<?xml version="1.0" standalone="no"?><!DOCTYPE svg PUBLIC "-//W3C//DTD SVG 1.1//EN" "http://www.w3.org/Graphics/SVG/1.1/DTD/svg11.dtd"><svg class="icon" width="200px" height="200.00px" viewBox="0 0 1024 1024" version="1.1" xmlns="http://www.w3.org/2000/svg"><path d="M252.8 862.9h-73.4c-6.8 0-12.4-5.6-12.4-12.4V134.4c0-6.8 5.6-12.4 12.4-12.4h73.4l5.3 6.8v728.8l-5.3 5.3z" fill="#F2B843" /><path d="M338.5 942l-42.9-18.1-42.8 18.1v-79.1l7.5-5.3h71.3l7 5.3-0.1 79.1z" fill="#EA800C" /><path d="M844.6 327.9h-40.7l-5.3-5.8v-93.3l5.3-7.2h40.7c6.8 0 12.4 5.6 12.4 12.4v81.5c0 6.9-5.6 12.4-12.4 12.4z" fill="#F2B843" /><path d="M844.6 540.5h-40.7l-5.3-7.3v-90.6l5.3-8.4h40.7c6.8 0 12.4 5.6 12.4 12.4v81.5c0 6.8-5.6 12.4-12.4 12.4z" fill="#EA800C" /><path d="M844.6 753h-40.7l-5.3-6.7v-92.1l5.3-7.5h40.7c6.8 0 12.4 5.6 12.4 12.4v81.5c0 6.8-5.6 12.4-12.4 12.4z" fill="#2F9B77" /><path d="M791.8 862.9h-539V122h539.1c6.7 0 12 5.4 12 12v716.8c0 6.7-5.4 12.1-12.1 12.1z" fill="#3DC38A" /><path d="M680.3 661.1H343.7c-14 0-25.5-11.5-25.5-25.5s11.5-25.5 25.5-25.5h336.6c14 0 25.5 11.5 25.5 25.5s-11.5 25.5-25.5 25.5zM680.3 779.8H343.7c-14 0-25.5-11.5-25.5-25.5s11.5-25.5 25.5-25.5h336.6c14 0 25.5 11.5 25.5 25.5s-11.5 25.5-25.5 25.5z" fill="#2F9B77" /><path d="M594.8 511.1c-79.2 45.7-180.5 18.6-226.3-60.6S350 270 429.2 224.2s180.5-18.6 226.3 60.6 18.5 180.6-60.7 226.3z" fill="#3DC38A" /><path d="M523.7 318.1c-1.2 0.3-3.5 0.9-4.5 1.7-1.2 1 0.7 2.3 0 2.9-1.2 1-2.1 2.7-4.7 2.6-5.5-0.3-13.9-7.5-19-10.2 8.1-8.3-4.7-9.6-9.7-9.1-6.5 0.5-17.7 0-23.5 3.2-4.1 2.3-9.5 11.7-12.8 15.5-4.6 5.2-9.1 9.8-12.1 16-10.9 23 5.9 49.4 32.2 46.3 7.3-0.9 14.9-5.5 21.4 0.6 4.8 4.5 2.3 8.7 3.5 13.9 1.1 4.5 6.1 7.3 7.8 11.4 3.3 7.9 1.2 12.9-1.1 20.2-3.1 9.6 4.9 21 8 30.2 1.6 4.7 6.1 17.7 10.7 19.8 7.1 3.2 18.1-6.4 22.4-11.6 3.3-4.1 2.2-8.2 4.4-12 2.4-4.1 5.4-5.3 7.1-10.6 1.8-5.7 3.7-7.1 7.5-11.3 6.2-6.7 5.2-10.6 2.7-18.6-5.1-16.5 13.5-24.2 21.8-36.3 8.7-12.6-8.2-8.4-14.8-12.8-6.8-4.4-9.8-12.9-13.1-19.9s-6-17.5-11.4-23.3c-4.2-4.3-16.9-6.4-22.8-8.6zM609.2 428.8c-2.6 8.9-5.3 17.8-7.9 26.7-1.8 6.2-8.4 26.6-17.5 13.6-3.5-5-0.6-11.4 1.3-16 2.4-5.8-0.9-8.7 0.9-14.1 2-6.2 10-6.4 13.8-10.8 2.7-3 4.3-7.9 6.2-11.5 1 4 2.1 8.1 3.2 12.1z" fill="#F2B843" /><path d="M655.4 284.9c-28.5-49.4-78.7-78.5-131.6-82.4l-21.6 27.2-46.4 16.3-12.5 30.2 19.2 26.9 2-5.7c3.4-9.5 12.4-15.8 22.5-15.8h31.7l36.4 12.8 12.5 12v7.6l17.4 33.4 5.1-1.9c11-4 20.9-10.4 29.2-18.7l-4.2-6.3c-1.4-2 0.1-4.7 2.5-4.7h10.2c3 0 5.8 1.3 7.7 3.6l8.3 9.7c0.8 0.9 1.4 2 1.8 3.1l9.1 25.2 4.4-4.4c2.7-2.7 4.1-6.5 4.2-10.4 0-3.1 1.4-6.1 3.7-8.2l3.4-3c0.8-0.8 1.8-1.4 2.8-1.8-3.6-15.3-9.5-30.4-17.8-44.7zM407.6 291.3l7.9-8.5c5.8-6.2 7.4-15.2 4.2-23-3.4-8.3-10.9-13.6-19.2-14.8-29.2 26.5-47.4 62.2-52.6 100 6.2 5.4 12.6 11.2 12.6 11.7-0.1 1 23.2-2.9 23.2-2.9l-12-17.5 17.2-12.3 18.7-32.7zM423.8 456.4c7.5-2.4 11.6-10.4 9.1-17.9l-2.1-6.6c-0.9-2.9-0.9-5.9 0-8.8 2.7-8.1-2.4-16.8-10.8-18.4l-16.8-3.3-30.6-23.2-25.3 8.2c2.5 21.9 9.4 43.7 21.2 64.1 10.9 18.8 24.9 34.7 41 47.4l7.5-39.3 6.8-2.2z" fill="#2F9B77" /><path d="M844.6 337.9c12.4 0 22.4-10 22.4-22.4V234c0-12.4-10-22.4-22.4-22.4h-30.7V134c0-12.1-9.9-22-22-22H179.4c-12.4 0-22.4 10-22.4 22.4v716.1c0 12.4 10 22.4 22.4 22.4h63.4V942c0 3.4 1.7 6.5 4.5 8.3 2.8 1.9 6.3 2.2 9.4 0.9l38.9-16.5 39 16.5c1.2 0.5 2.6 0.8 3.9 0.8 1.9 0 3.9-0.6 5.5-1.7 2.8-1.9 4.5-5 4.5-8.3v-69.1h443.3c12.2 0 22.1-9.9 22.1-22.1V763h30.7c12.4 0 22.4-10 22.4-22.4v-81.5c0-12.4-10-22.4-22.4-22.4h-30.7v-86.2h30.7c12.4 0 22.4-10 22.4-22.4v-81.5c0-12.4-10-22.4-22.4-22.4h-30.7v-86.3h30.7z m0-106.3c1.3 0 2.4 1.1 2.4 2.4v81.5c0 1.3-1.1 2.4-2.4 2.4h-30.7v-86.3h30.7zM177 850.5V134.4c0-1.3 1.1-2.4 2.4-2.4h63.4v720.9h-63.4c-1.3 0-2.4-1.1-2.4-2.4z m151.5 76.4l-29-12.2c-2.5-1-5.3-1-7.8 0l-28.9 12.2v-54h65.7v54z m465.4-76.1c0 1.2-0.9 2.1-2.1 2.1h-529V132h529.1c1.1 0 2 0.9 2 2v716.8z m50.7-194.1c1.3 0 2.4 1.1 2.4 2.4v81.5c0 1.4-1 2.4-2.4 2.4h-30.7v-86.3h30.7z m0-212.5c1.3 0 2.4 1.1 2.4 2.4v81.5c0 1.3-1.1 2.4-2.4 2.4h-30.7v-86.3h30.7z" fill="#4D3500" /><path d="M680.3 600.1H343.7c-19.6 0-35.5 15.9-35.5 35.5s15.9 35.5 35.5 35.5h336.6c19.6 0 35.5-15.9 35.5-35.5s-15.9-35.5-35.5-35.5z m0 51H343.7c-8.5 0-15.5-7-15.5-15.5s7-15.5 15.5-15.5h336.6c8.5 0 15.5 7 15.5 15.5s-7 15.5-15.5 15.5zM680.3 718.8H343.7c-19.6 0-35.5 15.9-35.5 35.5s15.9 35.5 35.5 35.5h336.6c19.6 0 35.5-15.9 35.5-35.5s-15.9-35.5-35.5-35.5z m0 51H343.7c-8.5 0-15.5-7-15.5-15.5s7-15.5 15.5-15.5h336.6c8.5 0 15.5 7 15.5 15.5s-7 15.5-15.5 15.5zM512.3 543.2c29.8 0 59.9-7.6 87.5-23.5 40.6-23.4 69.7-61.3 81.9-106.7 12.2-45.4 6-92.7-17.5-133.3-23.5-40.6-61.4-69.7-106.7-81.8-45.3-12.1-92.7-5.9-133.3 17.6-40.6 23.5-69.7 61.4-81.9 106.7-12.2 45.3-6 92.7 17.5 133.3 32.6 56.3 91.7 87.7 152.5 87.7zM361.6 327.4c10.8-40.2 36.6-73.7 72.6-94.6 24-13.9 50.6-20.9 77.6-20.9 13.5 0 27.1 1.8 40.5 5.4 40.2 10.8 73.7 36.5 94.6 72.5 20.8 36 26.3 77.9 15.5 118.1-10.8 40.2-36.6 73.7-72.6 94.5-74.3 42.9-169.7 17.3-212.6-56.9-20.8-36-26.4-77.9-15.6-118.1z" fill="#4D3500" /></svg>