<?xml version="1.0" standalone="no"?><!DOCTYPE svg PUBLIC "-//W3C//DTD SVG 1.1//EN" "http://www.w3.org/Graphics/SVG/1.1/DTD/svg11.dtd"><svg class="icon" width="200px" height="200.00px" viewBox="0 0 1024 1024" version="1.1" xmlns="http://www.w3.org/2000/svg"><path d="M834.7 409.3V820c0-32.4 26.3-58.7 58.7-58.7s58.7 26.3 58.7 58.7-26.3 58.7-58.7 58.7H130.7C98.3 878.7 72 852.4 72 820s26.3-58.7 58.7-58.7 58.7 26.3 58.7 58.7V409.3h645.3z" fill="#3DC38A" /><path d="M614.1 459c17.8 7.5 29.9 21.9 29.9 38.4 0 24.3-26.3 44-58.7 44s-58.7-19.7-58.7-44c0-16.5 12.1-30.8 29.9-38.4" fill="#F2B843" /><path d="M189.3 614.7H248c16.2 0 29.3-13.1 29.3-29.3v-41.6c0-18.9 12.1-35.8 30.1-41.7l71.8-23.9c18-6 30.1-22.8 30.1-41.7v-27H468v39.2c0 37.9-24.2 71.5-60.2 83.5L346 552.7c-6 2-10 7.6-10 13.9v18.8c0 16.2 13.1 29.3 29.3 29.3h293.3c16.2 0 29.3-13.1 29.3-29.3v-176h58.7v176c0 16.2 13.1 29.3 29.3 29.3h58.7v58.7h-73.3c-8.1 0-14.7 6.6-14.7 14.7v58.7c0 8.1 6.6 14.7 14.7 14.7h73.3V820h-73.3c-8.1 0-14.7 6.6-14.7 14.7v44H688v-176c0-16.2-13.1-29.3-29.3-29.3h-132c-16.2 0-29.3 13.1-29.3 29.3v176h-58.7V673.3H336v11.6c0 69-20.4 136.4-58.7 193.8H204l13.7-19.1c38.8-54.3 59.7-119.4 59.7-186.2h-88l-0.1-58.7z" fill="#F2B843" /><path d="M72 820c0-32.4 26.3-58.7 58.7-58.7s58.7 26.3 58.7 58.7V409.3c0-32.4-26.3-58.7-58.7-58.7S72 376.9 72 409.3V820zM834.7 820c0-32.4 26.3-58.7 58.7-58.7s58.7 26.3 58.7 58.7V409.3c0-32.4-26.3-58.7-58.7-58.7s-58.7 26.3-58.7 58.7V820z" fill="#2F9B77" /><path d="M585.3 497.3l105.6-140.8c17.1-22.9 26.4-50.6 26.4-79.2 0-72.9-59.1-132-132-132s-132 59.1-132 132c0 28.6 9.3 56.3 26.4 79.2l105.6 140.8z" fill="#EA800C" /><path d="M585.3 262.7m-58.7 0a58.7 58.7 0 1 0 117.4 0 58.7 58.7 0 1 0-117.4 0Z" fill="#FFFFFF" /><path d="M893.4 340.6c-34.5 0-63.1 25.5-68 58.7H671.3l27.6-36.8c18.6-24.9 28.4-54.3 28.4-85.2 0-78.3-63.7-142-142-142s-142 63.7-142 142c0 30.9 9.8 60.3 28.4 85.2l27.6 36.8H198.7c-4.9-33.2-33.5-58.7-68-58.7-37.9 0-68.7 30.8-68.7 68.7V820c0 37.9 30.8 68.7 68.7 68.7h762.7c37.9 0 68.7-30.8 68.7-68.7V409.3c0-37.9-30.8-68.7-68.7-68.7zM761.3 751.5c-2.6 0-4.7-2.1-4.7-4.7v-58.7c0-2.6 2.1-4.7 4.7-4.7h63.4v68.1h-63.4z m63.4-146.8h-48.8c-10.6 0-19.3-8.7-19.3-19.3V419.3h68.1v185.4zM463.3 277.3c0-67.3 54.7-122 122-122s122 54.7 122 122c0 26.5-8.4 51.8-24.4 73.2l-97.6 130.1-97.6-130.1c-16-21.4-24.4-46.7-24.4-73.2zM634 497.4c0 18.4-22.3 34-48.7 34s-48.7-15.6-48.7-34c0-9.8 6.4-19.2 17-25.7l23.7 31.6c1.9 2.5 4.9 4 8 4s6.1-1.5 8-4l23.7-31.6c10.6 6.4 17 15.8 17 25.7z m-92.4-41.7c-15.6 10.2-25 25.4-25 41.7 0 15 7.5 28.9 21.2 39.1 12.8 9.6 29.7 14.9 47.5 14.9s34.7-5.3 47.5-14.9c13.7-10.2 21.2-24.1 21.2-39.1 0-16.4-9.3-31.7-24.9-41.8l27.2-36.3h21.6v166.1c0 10.6-8.7 19.3-19.3 19.3H365.3c-10.6 0-19.3-8.7-19.3-19.3v-18.8c0-2 1.3-3.8 3.1-4.4l61.8-20.5c40.1-13.4 67-50.7 67-93v-29.4h36.3l27.4 36.4z m-342.2-36.4h199.9v17.2c0 14.6-9.3 27.6-23.3 32.2l-71.8 23.9c-22.1 7.3-37 27.8-37 51.2v41.6c0 10.6-8.7 19.3-19.3 19.3h-48.6V419.3zM82 409.3c0-26.9 21.8-48.7 48.7-48.7 26.5 0 48.1 21.2 48.7 47.6 0 0.4-0.1 0.8-0.1 1.1v362.2c-12.4-12.5-29.6-20.2-48.6-20.2h-0.2c-19 0-36.2 7.8-48.6 20.3V409.3zM82 820c0-26.8 21.8-48.7 48.7-48.7 26.8 0 48.6 21.9 48.6 48.7 0 5.5 4.5 10 10 10h0.2c5.5 0 10-4.5 10-10V683.4h67.8c-1.9 61.4-21.8 120.2-57.7 170.4l-10.7 14.9h-68.2c-26.9 0-48.7-21.8-48.7-48.7z m346.7 48.7H295.4C328.6 813.1 346 750 346 684.9v-1.6h82.7v185.4z m249.3 0H507.4v-166c0-10.6 8.7-19.3 19.3-19.3h132c10.6 0 19.3 8.7 19.3 19.3v166z m20 0v-166c0-21.7-17.6-39.3-39.3-39.3h-132c-21.7 0-39.3 17.6-39.3 39.3v166h-38.7V673.3c0-5.5-4.5-10-10-10H336c-5.5 0-10 4.5-10 10v11.6c0 65.5-18.7 128.9-54.1 183.8h-48.4l2.4-3.3c40.3-56.4 61.6-122.8 61.6-192 0-5.5-4.5-10-10-10h-78v-38.7H248c21.7 0 39.3-17.6 39.3-39.3v-41.6c0-14.7 9.3-27.6 23.3-32.2l71.8-23.9c22.1-7.4 36.9-27.9 36.9-51.2v-17H458v29.2c0 33.6-21.4 63.4-53.3 74l-61.8 20.5c-10.1 3.4-16.8 12.8-16.8 23.4v18.8c0 21.7 17.6 39.3 39.3 39.3h293.3c21.7 0 39.3-17.6 39.3-39.3v-166h38.7v166c0 21.7 17.6 39.3 39.3 39.3h48.7v38.7h-63.3c-13.6 0-24.7 11.1-24.7 24.7v58.7c0 13.6 11.1 24.7 24.7 24.7h63.3V810h-63.3c-13.6 0-24.7 11.1-24.7 24.7v34H698z m195.4 0H756.6v-34c0-2.6 2.1-4.7 4.7-4.7H834.8c5.5 0 10-4.5 10-10 0-26.9 21.8-48.7 48.7-48.7 26.9 0 48.7 21.8 48.7 48.7s-21.9 48.7-48.8 48.7z m47.4-98.3c-0.4-0.4-0.8-0.8-1.2-1.1-0.4-0.4-0.8-0.7-1.2-1.1s-0.8-0.7-1.2-1.1c-0.4-0.3-0.9-0.7-1.3-1-0.4-0.3-0.9-0.7-1.3-1-0.4-0.3-0.9-0.6-1.3-0.9-0.5-0.3-0.9-0.7-1.4-1-0.4-0.3-0.9-0.6-1.3-0.9l-1.5-0.9c-0.4-0.3-0.9-0.5-1.3-0.8l-1.5-0.9c-0.5-0.2-0.9-0.5-1.4-0.7-0.5-0.3-1.1-0.6-1.6-0.8-0.5-0.2-0.9-0.4-1.4-0.6-0.5-0.2-1.1-0.5-1.6-0.7-0.5-0.2-1-0.4-1.4-0.6-0.6-0.2-1.1-0.5-1.7-0.7-0.5-0.2-1-0.3-1.5-0.5-0.6-0.2-1.1-0.4-1.7-0.6-0.5-0.2-1-0.3-1.5-0.4-0.6-0.2-1.1-0.3-1.7-0.5-0.5-0.1-1.1-0.3-1.6-0.4-0.6-0.1-1.1-0.3-1.7-0.4-0.6-0.1-1.1-0.2-1.7-0.3-0.6-0.1-1.1-0.2-1.7-0.3-0.6-0.1-1.2-0.2-1.8-0.2-0.5-0.1-1.1-0.1-1.6-0.2-0.8-0.1-1.5-0.1-2.3-0.2-0.4 0-0.8-0.1-1.2-0.1-1.2-0.1-2.4-0.1-3.5-0.1-2.4 0-4.7 0.1-7 0.4-16.2 1.7-30.8 9-41.7 19.9V409.3c0-26.9 21.8-48.7 48.7-48.7 26.9 0 48.7 21.8 48.7 48.7v362.3s-0.1 0-0.1-0.1c-0.7-0.4-1.1-0.8-1.5-1.1z" fill="#4D3500" /><path d="M654 262.7c0-37.9-30.8-68.7-68.7-68.7s-68.7 30.8-68.7 68.7 30.8 68.7 68.7 68.7 68.7-30.8 68.7-68.7z m-117.4 0c0-26.9 21.8-48.7 48.7-48.7s48.7 21.8 48.7 48.7c0 26.9-21.8 48.7-48.7 48.7s-48.7-21.8-48.7-48.7z" fill="#4D3500" /></svg>