<?xml version="1.0" standalone="no"?><!DOCTYPE svg PUBLIC "-//W3C//DTD SVG 1.1//EN" "http://www.w3.org/Graphics/SVG/1.1/DTD/svg11.dtd"><svg class="icon" width="200px" height="200.00px" viewBox="0 0 1024 1024" version="1.1" xmlns="http://www.w3.org/2000/svg"><path d="M258.5 723.4l-124.8-98.3c-6.8-5.2-9.1-14.2-5-20.1 20-29 58.6-38.9 96.4-24.7L338 644.4l-79.5 79zM300.4 765.2l98.5 125.1c5.2 6.8 14.2 9.1 20.1 5l7.4-5.2c24.5-16.9 32.9-49.5 20.9-81.6l-67.7-122.7-79.2 79.4z" fill="#F2B843" /><path d="M292.3 338.7c-15.7-15.7-16.9-40.6-2.9-57.8 20-24.6 45.1-52 60.2-67 20.6-20.6 22.4-18.2 44.4-31.6 3.2-2 7.4-1.5 10.2 1.2l43.6 43.6c2.7 2.7 3.1 6.8 1.2 10.2-13.5 22-11 23.8-31.6 44.4-15 15-42.4 40.1-67 60.2-17.3 13.7-42.3 12.5-58.1-3.2zM685.3 731.7c-15.7-15.7-16.9-40.6-2.9-57.8 20-24.6 45.1-52 60.2-67 20.6-20.6 22.4-18.2 44.4-31.6 3.2-2 7.4-1.5 10.2 1.2l43.6 43.6c2.7 2.7 3.1 6.8 1.2 10.2-13.5 22-11 23.8-31.6 44.4-15 15-42.4 40.1-67 60.2-17.5 13.7-42.4 12.4-58.1-3.2z" fill="#EA800C" /><path d="M488.9 487.1l154-154-477.2-150c-9.9-2.5-19.6-0.1-26.1 6.3l-40.3 40.3c-13.5 13.5-7.7 38.3 11.3 48.4l378.3 209zM536.9 535.1l154-154 149.9 477.1c2.5 9.9 0.1 19.6-6.3 26.1l-40.3 40.3c-13.5 13.5-38.3 7.7-48.4-11.3L536.9 535.1z" fill="#2F9B77" /><path d="M827.6 316.4L568.8 575.1c-43.5 43.4-89.6 83.9-137.9 121l-123.2 94.5c-28.5 21.9-62.4 24.5-80.6 6.3-18.3-18.3-15.5-52.2 6.3-80.6l94.5-123.2c37.1-48.3 77.6-94.5 121-137.9l258.7-258.7c35.4-35.4 76-64.9 119-85.1 36.9-17.4 76.3-28.3 95.3-9.3s8.2 58.4-9.3 95.3c-20.2 42.9-49.7 83.5-85 119z" fill="#3DC38A" /><path d="M849.1 266.7l-8.8 8.8c-8.2 8.2-100-83.6-91.8-91.8l8.8-8.8c5.6-5.6 13.8-7.3 20.4-4.4 33.2 14.7 61.1 42.6 75.8 75.8 2.9 6.7 1.1 14.9-4.4 20.4zM255.1 781.2c-3.1 0-6.3-1.2-8.7-3.6-4.8-4.8-4.8-12.6 0-17.4l107.4-107.4c4.8-4.8 12.6-4.8 17.4 0s4.8 12.6 0 17.4L263.8 777.6c-2.3 2.3-5.5 3.6-8.7 3.6z" fill="#F2B843" /><path d="M834.7 323.5c36.8-37 66.9-79.1 87-121.8C946 150.4 948.4 114.5 929 95c-19.4-19.4-55.2-16.9-106.6 7.3-42.9 20.1-85 50.2-121.8 87.1L585.4 304.6l-138.6-43.5c0.8-1.4 1.6-2.9 2.5-4.5 2.1-3.8 4.5-8.2 8.2-14.1 0.1-0.1 0.1-0.2 0.2-0.3 4.2-7.2 3-16.3-2.8-22.2l-43.6-43.6c-6-6-15.2-7.1-22.4-2.6-5.7 3.5-10 5.8-13.7 7.9-10.6 5.9-16.4 9.1-32.5 25.1-4.6 4.6-10.1 10.3-15.9 16.5l-157.7-49.5c-0.2 0-0.3-0.1-0.5-0.1-13.4-3.5-26.8-0.2-35.7 8.9l-40.3 40.3c-8 7.9-11.6 19.3-9.9 31.1 2 13.9 10.8 26.3 23.4 33.1L426.2 464c-37.7 38.9-73.4 80.2-106.3 123L301 611.7l-71-40.3c-0.5-0.3-1-0.5-1.5-0.7-12.3-4.5-25.3-6.9-37.6-6.9-29.2 0-54.9 12.9-70.5 35.5-7.1 10.3-3.9 25.4 7.1 33.7l98 77-0.1 0.1c-25 32.5-27.2 72-5.4 93.8 10 10 23.7 15 38.8 15 17.8 0 37.4-6.9 55-20.4l0.1-0.1 77.2 97.9c5.4 7.1 13.4 11 21.1 11 4.4 0 8.7-1.2 12.5-3.8 0 0 0.1 0 0.1-0.1l7.3-5.2c28.2-19.5 38.1-57 24.6-93.3-0.2-0.5-0.4-0.9-0.6-1.3l-44.3-80.3L437 704c42.5-32.6 83.8-68.3 123-106.3L736.8 918c6.9 12.8 19.4 21.6 33.3 23.5 1.9 0.3 3.8 0.4 5.6 0.4 9.7 0 18.8-3.6 25.4-10.3l40.2-40.2c9.1-9 12.5-22.4 9-35.8 0-0.2-0.1-0.3-0.1-0.5l-49.5-157.4c6.3-5.9 12.1-11.5 16.8-16.2 15.9-15.9 19.1-21.7 25-32.2 2.1-3.8 4.5-8.1 8.1-14 0.1-0.1 0.1-0.2 0.2-0.4 4.1-7.4 3-16.3-2.9-22.2l-43.6-43.6c-6-6-15.3-7.1-22.4-2.6-6 3.7-10.3 6.1-14.2 8.3-1.6 0.9-3.2 1.8-4.6 2.6l-43.6-138.8 115.2-115.1zM764.4 182c2.6-2.6 6.4-3.6 9.3-2.3 31.1 13.8 56.9 39.6 70.7 70.6 1.3 2.9 0.3 6.7-2.3 9.4l-5.1 5.1c-6.8-4.1-21.7-16-41.7-36-20-20-32-34.9-36-41.7l5.1-5.1z m66.5-61.6c25.8-12.2 47.1-18.4 62.5-18.4 9.5 0 16.8 2.3 21.5 7.1 12.5 12.5 8.5 42.3-11.3 84-10.4 22.1-23.6 44-39.2 65.1 1-5.4 0.5-11-1.7-16-15.8-35.6-45.3-65.1-80.9-80.9-5.1-2.2-10.6-2.7-16-1.7 21-15.5 42.9-28.8 65.1-39.2z m-446.2 78.8c3.5-1.9 7.8-4.3 13.3-7.6l41.6 41.6c-3.5 5.7-5.9 10.1-7.9 13.7-1.7 3.1-3.1 5.6-4.6 8L347.8 230c3.2-3.3 6.2-6.4 8.9-9.1 14-14 18.1-16.2 28-21.7z m-269.1 70.4c-7.1-3.8-12.1-10.9-13.2-18.4-0.5-3.2-0.5-9.4 4.2-14.1l40.4-40.4c3.9-3.9 9.9-5.3 16.2-3.7L327 244.4l99.9 31.3c0.8 0.4 1.7 0.7 2.6 0.8l140.1 44-127.8 127.6-1 1-325.2-179.5z m24.3 347.6c-0.1 0-0.1-0.1-0.2-0.1-2.9-2.2-3.5-5.4-2.8-6.4 11.8-17.1 31.6-26.9 54.1-26.9 9.7 0 20 1.9 29.9 5.4l67.8 38.5-51 66.5-97.8-77z m298.4 195.5c9.9 27.4 2.9 55.1-17.5 69.3l-7.3 5.1c-1.2 0.8-4.3 0.1-6.4-2.8 0-0.1-0.1-0.1-0.1-0.2l-77.1-97.8 66-50.6 42.4 77z m-13.5-124.5l-31.4 24.1-1.2 0.9-82.1 63c-0.2 0.2-0.5 0.3-0.7 0.5-0.1 0.1-0.2 0.2-0.4 0.3l-7.4 5.7c-24.4 18.8-52.8 21.8-67.4 7.2-14.6-14.6-11.6-43 7.2-67.4l94.5-123.2c35-45.5 73.1-89.3 113.5-130.2 0.3-0.2 0.5-0.5 0.7-0.8 2-2 3.9-4 5.9-6l138.2-138.2c0.9-0.6 1.7-1.4 2.3-2.3l118.2-118.2c7.7-7.7 15.7-15.2 23.9-22.2-0.7 2.1-0.9 4.7 0 7.9 3.6 13.5 31 41.9 42.6 53.6 11.6 11.6 40.1 39 53.6 42.6 1.5 0.4 2.8 0.6 4 0.6 1.5 0 2.8-0.3 3.9-0.6-7.1 8.2-14.5 16.2-22.2 24L702.4 427.4c-1 0.7-1.9 1.6-2.6 2.6l-138 138c-1.9 1.9-3.9 3.9-5.9 5.8l-0.9 0.9c-41.3 40.7-85.1 78.8-130.2 113.5z m366.3-103.8l41.7 41.7c-3.5 5.7-5.9 10.1-7.9 13.6-5.3 9.5-7.7 13.8-21.6 27.8-2.8 2.8-5.9 5.8-9.3 9.1l-24.9-79.4c2.5-1.6 5-3 8.2-4.8 3.6-2.1 8.1-4.5 13.8-8zM747.9 596l31.7 101.3L831 860.9c1.6 6.3 0.2 12.4-3.8 16.3l-40.4 40.4c-4.7 4.7-10.8 4.7-14 4.2-7.5-1.1-14.6-6.2-18.5-13.3L574.8 583.2l1-1 127.6-127.5L747.9 596z" fill="#4D3500" /><path d="M346.7 645.7L239.3 753.1c-4.2 4.2-6.5 9.8-6.5 15.8s2.3 11.6 6.5 15.8c4.1 4.2 9.9 6.5 15.8 6.5s11.6-2.4 15.8-6.5l107.4-107.4c4.2-4.2 6.5-9.8 6.5-15.8s-2.3-11.6-6.5-15.8c-8.7-8.7-22.9-8.7-31.6 0z m17.4 17.4L256.7 770.5c-0.4 0.4-1.1 0.7-1.6 0.7-0.2 0-1 0-1.6-0.7-0.9-0.9-0.9-2.4 0-3.3l107.4-107.4c0.4-0.4 1-0.7 1.6-0.7 0.6 0 1.2 0.2 1.6 0.7 0.9 1 0.9 2.4 0 3.3z" fill="#4D3500" /></svg>