<?xml version="1.0" standalone="no"?><!DOCTYPE svg PUBLIC "-//W3C//DTD SVG 1.1//EN" "http://www.w3.org/Graphics/SVG/1.1/DTD/svg11.dtd"><svg class="icon" width="200px" height="200.00px" viewBox="0 0 1024 1024" version="1.1" xmlns="http://www.w3.org/2000/svg"><path d="M489.6 541.1V166l283.5 375.1H489.6" fill="#3DC38A" /><path d="M489.6 101.3l-323.2 491h323.2z" fill="#F2B843" /><path d="M489.6 715.7c-16.3 0-29.6-13.2-29.6-29.6V95c0-16.3 13.2-29.6 29.6-29.6 16.3 0 29.6 13.2 29.6 29.6v591.1c-0.1 16.3-13.3 29.6-29.6 29.6z" fill="#EA800C" /><path d="M489.6 608.4H145.3c-16.3 0-29.6-13.2-29.6-29.6 0-16.3 13.2-29.6 29.6-29.6h344.3c16.3 0 29.6 13.2 29.6 29.6-0.1 16.3-13.3 29.6-29.6 29.6z" fill="#EA800C" /><path d="M783.8 557.2H503.1c-16.3 0-29.6-13.2-29.6-29.6 0-16.3 13.2-29.6 29.6-29.6h280.7c16.3 0 29.6 13.2 29.6 29.6 0 16.3-13.3 29.6-29.6 29.6z" fill="#EA800C" /><path d="M752.4 759.8l-67-88.8c-7.9-10.5-20.3-16.7-33.5-16.7H302c-18.3 0-34.5 11.9-40 29.3l-25 76.2h515.4z" fill="#2F9B77" /><path d="M920.8 704.6c15.6-0.8 26.8 14.8 21.1 29.3l-54.5 138.8-28.6 72.8H133.7L81.5 775c-4.1-13.4 5.5-27 19.4-27.8l143.3-7.5 676.6-35.1z" fill="#3DC38A" /><path d="M802.3 791.8m-27 0a27 27 0 1 0 54 0 27 27 0 1 0-54 0Z" fill="#F2B843" /><path d="M947.5 707.7c-6.3-8.7-16.4-13.6-27.2-13.1l-196.8 10.2-30-39.9c-9.8-12.9-25.3-20.6-41.5-20.6H529.2v-77.1h254.7c21.8 0 39.6-17.8 39.6-39.6S805.7 488 783.9 488h-38.3L529.2 201.7V95c0-21.8-17.8-39.6-39.6-39.6S450 73.2 450 95v48.2L189.3 539.3h-44c-21.8 0-39.6 17.8-39.6 39.6s17.8 39.6 39.6 39.6H450v25.8H302c-22.7 0-42.6 14.6-49.5 36.2l-16.2 49.6-135.9 7.1c-9.7 0.6-18.5 5.5-24.1 13.5-5.6 8-7.1 17.9-4.3 27.2l52.2 170.5c1.3 4.2 5.2 7.1 9.6 7.1h725.1c4.1 0 7.8-2.5 9.3-6.3l28.6-72.8 54.5-138.8c3.8-10 2.4-21.2-3.8-29.9zM720.5 488H529.2V234.9L720.5 488zM450 179.6v359.7H213.3L450 179.6z m20 428.8c0-5.5-4.5-10-10-10-0.5 0-0.9 0-1.3 0.1H145.3c-10.8 0-19.6-8.8-19.6-19.6s8.8-19.6 19.6-19.6H460c5.5 0 10-4.5 10-10V95c0-10.8 8.8-19.6 19.6-19.6s19.6 8.8 19.6 19.6v403c0 5.5 4.5 10 10 10h264.7c10.8 0 19.6 8.8 19.6 19.6s-8.8 19.6-19.6 19.6H519.2c-5.5 0-10 4.5-10 10v87.1H470v-35.9z m-198.5 78.3s0-0.1 0 0c4.3-13.4 16.5-22.4 30.5-22.4h350c9.9 0 19.5 4.8 25.5 12.7l21.9 29.1L257.7 729l13.8-42.3z m661.1 43.5L878.1 869 852 935.5H141.1l-50-163.4c-1-3.4-0.5-7 1.6-9.9 2-2.9 5.3-4.8 8.8-5l141.5-7.4h0.6c0.6 0 1.1-0.1 1.7-0.1l473.6-24.6h0.7l201.7-10.5c4-0.2 7.6 1.5 9.9 4.8 2.3 3.2 2.8 7.2 1.4 10.8z" fill="#4D3500" /><path d="M802.3 754.8c-20.4 0-37 16.6-37 37s16.6 37 37 37 37-16.6 37-37-16.6-37-37-37z m0 54c-9.4 0-17-7.6-17-17s7.6-17 17-17 17 7.6 17 17-7.6 17-17 17z" fill="#4D3500" /></svg>