<?xml version="1.0" standalone="no"?><!DOCTYPE svg PUBLIC "-//W3C//DTD SVG 1.1//EN" "http://www.w3.org/Graphics/SVG/1.1/DTD/svg11.dtd"><svg class="icon" width="200px" height="200.00px" viewBox="0 0 1024 1024" version="1.1" xmlns="http://www.w3.org/2000/svg"><path d="M353.5 280.6c-8 0-14.5-6.4-14.5-14.5v-44.8c0-8 6.4-14.5 14.5-14.5 8 0 14.5 6.4 14.5 14.5v44.8c0 8-6.4 14.5-14.5 14.5z" fill="#2F9B77" /><path d="M325.8 266.1h55.4v67.5h-55.4v-67.5z" fill="#2F9B77" /><path d="M404.1 280.6H302.9c-8 0-14.5-6.4-14.5-14.5 0-8 6.4-14.5 14.5-14.5h101.2c8 0 14.5 6.4 14.5 14.5 0 8-6.4 14.5-14.5 14.5zM619.8 266.1h-73.2c-2.8 0-5.5 1.2-7.3 3.3l-56.8 64.3h147.2v-57.8c-0.1-5.4-4.5-9.8-9.9-9.8z" fill="#3DC38A" /><path d="M669.3 437.7v-94.3c0-5.3-4.4-9.8-9.8-9.8H286.1c-3.5 0-6.8 1.9-8.5 4.9l-57.1 99.2 199.3 13.5 249.5-13.5z" fill="#EA800C" /><path d="M580.1 400.2h-3.9c-8 0-14.5-6.4-14.5-14.5 0-8 6.4-14.5 14.5-14.5h3.9c8 0 14.5 6.4 14.5 14.5s-6.6 14.5-14.5 14.5zM457.2 400.2h-3.9c-8 0-14.5-6.4-14.5-14.5 0-8 6.4-14.5 14.5-14.5h3.9c8 0 14.5 6.4 14.5 14.5 0 8-6.4 14.5-14.5 14.5zM334.5 400.2h-3.9c-8 0-14.5-6.4-14.5-14.5 0-8 6.4-14.5 14.5-14.5h3.9c8 0 14.5 6.4 14.5 14.5 0 8-6.5 14.5-14.5 14.5z" fill="#FFFFFF" /><path d="M823.6 442.1c-1.9-2.7-4.8-4.3-8.1-4.3h-595L179 509.9h-66.5c-10.8 0-19.5 8.7-19.5 19.5v138.2h754.6l59.5-102-83.5-123.5z" fill="#F2B843" /><path d="M990.3 544.1L890 670.1 755.6 773.4c-7.4 9.3-18.9 14.5-30.8 14.5l-635 9.4c-4.3 0 2 7.2 0.7 3.1l-34.9-68.8L32.4 658c-1.5-4.8 1.9-9.8 6.9-10.1 39.9-2.7 93.2-16.6 116.6-38.8 1.9-1.7 4.1-2.6 6.7-2.6h494c2.9 0 5.7-1.3 7.5-3.5l55.9-68c1.9-2.3 4.6-3.5 7.5-3.5h256.6c6.6-0.2 10.3 7.4 6.2 12.6z" fill="#3DC38A" /><path d="M818.7 705c-34.6 16.8-72.5 25.5-111.1 25.5H55.3l25.2 79.9c1.3 4 5 6.9 9.3 6.9h664.3c11.9 0 23.1-5.5 30.5-14.7l104.7-131.7c-24 11.4-49.3 23.7-70.6 34.1z" fill="#2F9B77" /><path d="M268.9 502.7H265c-8 0-14.5-6.4-14.5-14.5s6.4-14.5 14.5-14.5h3.9c8 0 14.5 6.4 14.5 14.5s-6.4 14.5-14.5 14.5zM392.7 502.7h-3.9c-8 0-14.5-6.4-14.5-14.5s6.5-14.4 14.5-14.4h3.9c8 0 14.5 6.4 14.5 14.5s-6.6 14.4-14.5 14.4zM516.4 502.7h-3.9c-8 0-14.5-6.4-14.5-14.5s6.4-14.5 14.5-14.5h3.9c8 0 14.5 6.4 14.5 14.5s-6.6 14.5-14.5 14.5zM640.1 502.7h-3.9c-8 0-14.5-6.4-14.5-14.5s6.4-14.5 14.5-14.5h3.9c8 0 14.5 6.4 14.5 14.5s-6.6 14.5-14.5 14.5z" fill="#FFFFFF" /><path d="M268.9 578.4H265c-8 0-14.5-6.4-14.5-14.5s6.4-14.5 14.5-14.5h3.9c8 0 14.5 6.4 14.5 14.5 0.1 8.1-6.4 14.5-14.5 14.5zM392.7 578.4h-3.9c-8 0-14.5-6.4-14.5-14.5s6.4-14.5 14.5-14.5h3.9c8 0 14.5 6.4 14.5 14.5s-6.6 14.5-14.5 14.5zM516.4 578.4h-3.9c-8 0-14.5-6.4-14.5-14.5s6.4-14.5 14.5-14.5h3.9c8 0 14.5 6.4 14.5 14.5s-6.6 14.5-14.5 14.5zM640.1 578.4h-3.9c-8 0-14.5-6.4-14.5-14.5s6.4-14.5 14.5-14.5h3.9c8 0 14.5 6.4 14.5 14.5s-6.6 14.5-14.5 14.5z" fill="#FFFFFF" /><path d="M576.2 410.2h3.9c13.5 0 24.5-11 24.5-24.5s-11-24.5-24.5-24.5h-3.9c-13.5 0-24.5 11-24.5 24.5s11 24.5 24.5 24.5z m0-29h3.9c2.5 0 4.5 2 4.5 4.5s-2 4.5-4.5 4.5h-3.9c-2.5 0-4.5-2-4.5-4.5s2-4.5 4.5-4.5zM453.3 410.2h3.9c13.5 0 24.5-11 24.5-24.5s-11-24.5-24.5-24.5h-3.9c-13.5 0-24.5 11-24.5 24.5s11 24.5 24.5 24.5z m0-29h3.9c2.5 0 4.5 2 4.5 4.5s-2 4.5-4.5 4.5h-3.9c-2.5 0-4.5-2-4.5-4.5s2-4.5 4.5-4.5zM330.6 410.2h3.9c13.5 0 24.5-11 24.5-24.5s-11-24.5-24.5-24.5h-3.9c-13.5 0-24.5 11-24.5 24.5s11 24.5 24.5 24.5z m0-29h3.9c2.5 0 4.5 2 4.5 4.5s-2 4.5-4.5 4.5h-3.9c-2.5 0-4.5-2-4.5-4.5s2-4.5 4.5-4.5z" fill="#4D3500" /><path d="M1000 531.4c-3-6.1-9.1-9.9-15.9-9.9h-95l-57.3-84.8c-3.7-5.5-9.8-8.8-16.4-8.8H679.5v-84.6c0-10.9-8.9-19.7-19.8-19.7h-20v-47.7-0.2c-0.2-10.8-9.1-19.6-19.9-19.6h-73.2c-5.7 0-11.1 2.5-14.8 6.7l-53.7 60.8h-86.9v-33h12.9c13.5 0 24.5-11 24.5-24.5s-11-24.5-24.5-24.5h-26v-20.3c0-13.5-11-24.5-24.5-24.5s-24.5 11-24.5 24.5v20.3h-26.2c-13.5 0-24.5 11-24.5 24.5s11 24.5 24.5 24.5h12.9v33h-29.7c-7.2 0-13.8 3.8-17.2 10l-57.1 99.1-0.6 1.2-38 66.1h-60.7C96.2 500 83 513.2 83 529.5v101.3c-15.1 3.6-30.5 6-44.2 6.9-5.5 0.3-10.4 3.1-13.5 7.6-3.1 4.5-4 10.2-2.3 15.5l22.5 71.4 0.3 1.2 0.3 1v0.1L71 813.2c2.5 8.4 10 14 18.9 14h664.4c14.8 0 29.1-6.9 38.3-18.5l104.8-131.6c0.2-0.2 0.4-0.5 0.5-0.7l100.2-126 0.1-0.1c4.1-5.5 4.9-12.7 1.8-18.9zM546.7 276.1h73v47.5H504.8l41.9-47.5z m-197.6-54.8c0-2.5 2-4.5 4.5-4.5 2.6 0 4.5 1.9 4.5 4.5v20.3h-9v-20.3z m-50.7 44.8c0-2.5 2-4.5 4.5-4.5h101.2c2.5 0 4.5 2 4.5 4.5s-2 4.5-4.5 4.5H302.9c-2.5 0-4.5-2-4.5-4.5z m37.4 24.5h35.4v33h-35.4v-33z m-49.6 53h194.9c0.5 0.1 0.9 0.1 1.4 0.1h147.2c0.5 0 0.9 0 1.3-0.1h28.5v84.3H237.7l48.5-84.3zM112.5 520H179c3.6 0 6.9-1.9 8.7-5l38.6-67.1h589l49.7 73.6H727.5c-5.8 0-11.2 2.5-15.1 7 0 0.1-0.1 0.1-0.1 0.2l-55.8 67.6H162.6c-5 0-9.6 1.8-13.4 5.1-0.1 0.1-0.2 0.1-0.2 0.2-9.2 8.8-25.3 17-46 23.7v-95.8c0-5.2 4.3-9.5 9.5-9.5z m615.1 21.5zM883 663c-1.9 1.3-3.2 3-3.9 5L776.9 796.3c-5.4 6.8-13.9 10.9-22.7 10.9H90l-24.5-77.4-0.3-1.2-0.3-1v-0.1l-22.1-70c16.2-1.3 34.2-4.4 51.5-8.9 0.8-0.1 1.6-0.3 2.4-0.6 21-5.7 49-15.8 65.9-31.8h494c5.9 0 11.6-2.7 15.2-7.1l55.8-67.6h252L883 663z" fill="#4D3500" /><path d="M265 512.7h3.9c13.5 0 24.5-11 24.5-24.5s-11-24.5-24.5-24.5H265c-13.5 0-24.5 11-24.5 24.5s11 24.5 24.5 24.5z m0-29h3.9c2.5 0 4.5 2 4.5 4.5 0 2.6-1.9 4.5-4.5 4.5H265c-2.5 0-4.5-2-4.5-4.5 0-2.6 1.9-4.5 4.5-4.5zM388.8 512.7h3.9c13.5 0 24.5-10.9 24.5-24.4 0-13.5-11-24.5-24.5-24.5h-3.9c-13.5 0-24.5 10.9-24.5 24.4 0 13.5 11 24.5 24.5 24.5z m0-28.9h3.9c2.5 0 4.5 2 4.5 4.5s-2 4.4-4.5 4.4h-3.9c-2.5 0-4.5-2-4.5-4.5s1.9-4.4 4.5-4.4zM512.5 512.7h3.9c13.5 0 24.5-11 24.5-24.5s-11-24.5-24.5-24.5h-3.9c-13.5 0-24.5 11-24.5 24.5s11 24.5 24.5 24.5z m0-29h3.9c2.5 0 4.5 2 4.5 4.5s-2 4.5-4.5 4.5h-3.9c-2.5 0-4.5-2-4.5-4.5 0-2.6 1.9-4.5 4.5-4.5zM636.2 512.7h3.9c13.5 0 24.5-11 24.5-24.5s-11-24.5-24.5-24.5h-3.9c-13.5 0-24.5 11-24.5 24.5s11 24.5 24.5 24.5z m0-29h3.9c2.5 0 4.5 2 4.5 4.5s-2 4.5-4.5 4.5h-3.9c-2.5 0-4.5-2-4.5-4.5 0-2.6 1.9-4.5 4.5-4.5zM265 588.4h3.9c6.7 0 12.9-2.6 17.5-7.3 4.6-4.6 7-10.8 7-17.3 0-13.5-11-24.4-24.5-24.4H265c-13.5 0-24.5 11-24.5 24.5s11 24.5 24.5 24.5z m0-29h3.9c2.5 0 4.5 2 4.5 4.5v0.1c0 1.5-0.6 2.5-1.2 3-0.8 0.9-2 1.3-3.3 1.3H265c-2.5 0-4.5-2-4.5-4.5s1.9-4.4 4.5-4.4zM388.8 588.4h3.9c13.5 0 24.5-11 24.5-24.5s-11-24.5-24.5-24.5h-3.9c-13.5 0-24.5 11-24.5 24.5s11 24.5 24.5 24.5z m0-29h3.9c2.5 0 4.5 2 4.5 4.5s-2 4.5-4.5 4.5h-3.9c-2.5 0-4.5-2-4.5-4.5 0-2.6 1.9-4.5 4.5-4.5zM512.5 588.4h3.9c13.5 0 24.5-11 24.5-24.5s-11-24.5-24.5-24.5h-3.9c-13.5 0-24.5 11-24.5 24.5s11 24.5 24.5 24.5z m0-29h3.9c2.5 0 4.5 2 4.5 4.5s-2 4.5-4.5 4.5h-3.9c-2.5 0-4.5-2-4.5-4.5 0-2.6 1.9-4.5 4.5-4.5zM636.2 588.4h3.9c13.5 0 24.5-11 24.5-24.5s-11-24.5-24.5-24.5h-3.9c-13.5 0-24.5 11-24.5 24.5s11 24.5 24.5 24.5z m0-29h3.9c2.5 0 4.5 2 4.5 4.5s-2 4.5-4.5 4.5h-3.9c-2.5 0-4.5-2-4.5-4.5 0-2.6 1.9-4.5 4.5-4.5z" fill="#4D3500" /></svg>