<?xml version="1.0" standalone="no"?><!DOCTYPE svg PUBLIC "-//W3C//DTD SVG 1.1//EN" "http://www.w3.org/Graphics/SVG/1.1/DTD/svg11.dtd"><svg class="icon" width="200px" height="200.00px" viewBox="0 0 1024 1024" version="1.1" xmlns="http://www.w3.org/2000/svg"><path d="M732 893c-210.4 121.5-479.5 49.4-601-161S81.6 252.5 292 131s479.5-49.4 601 161 49.4 479.5-161 601z" fill="#3DC38A" /><path d="M543 380.4c-3.2 0.7-9.3 2.3-12 4.4-3.3 2.7 1.9 6.1 0 7.6-3.3 2.6-5.6 7.3-12.6 6.9-14.6-0.9-37-19.8-50.4-27 21.5-22.1-12.5-25.5-25.8-24.3-17.2 1.4-46.9-0.1-62.4 8.6-10.8 6.1-25.2 31.2-33.9 41.2-12.1 13.9-24.2 26-32.1 42.6-28.9 61.1 15.6 131.2 85.4 123 19.4-2.3 39.7-14.5 56.9 1.6 12.7 11.9 6 23 9.3 36.8 2.9 12 16.1 19.3 20.7 30.3 8.8 21.1 3.2 34.2-3 53.6-8.2 25.5 13.1 55.7 21.3 80.3 4.2 12.4 16.3 47.1 28.3 52.5 18.8 8.5 48.2-17.1 59.4-30.8 8.8-10.8 5.9-21.7 11.8-31.8 6.4-10.9 14.4-14.2 18.9-28.2 4.8-15.2 9.8-18.9 20-30 16.4-17.8 13.8-28.2 7.3-49.3-13.6-43.8 35.8-64.3 58-96.5 23.2-33.6-21.7-22.4-39.2-33.9-18.1-11.8-26-34.3-34.7-52.9s-15.9-46.6-30.4-61.9c-11.2-11.6-45-17-60.8-22.8zM770.1 674.4c-7 23.6-14 47.3-21 70.9-4.9 16.5-22.2 70.6-46.6 36-9.2-13.2-1.7-30.4 3.4-42.5 6.5-15.3-2.3-23 2.3-37.4 5.2-16.6 26.6-17.1 36.7-28.8 7.1-8.1 11.4-21.1 16.6-30.6 2.9 10.8 5.8 21.6 8.6 32.4z" fill="#F2B843" /><path d="M893 292C817.2 160.8 684 83.4 543.5 73.2L486 145.4l-123.3 43.2-33.1 80.2 51 71.5 5.4-15.1c9.1-25.2 33-42.1 59.8-42.1h84.1l96.7 34 33.3 31.8V369l46.3 88.7 13.5-5c29.1-10.7 55.5-27.7 77.5-49.6L786 386.3c-3.6-5.3 0.3-12.5 6.7-12.5h27c7.9 0 15.4 3.5 20.5 9.5l22 25.8c2.1 2.5 3.7 5.3 4.8 8.3l24.3 66.9 11.6-11.6c7.3-7.3 11-17.2 11.2-27.6 0.1-8.3 3.7-16.2 9.9-21.7l8.9-7.9c2.2-2 4.7-3.6 7.4-4.8-9.7-40.6-25.3-80.6-47.3-118.7zM234.8 309.2l21-22.5c15.3-16.4 19.7-40.3 11.1-61.1-9.1-22-28.9-36.2-50.9-39.2C138.4 256.8 90.1 351.6 76.2 452c16.4 14.4 33.6 29.7 33.5 31.1-0.2 2.6 61.6-7.8 61.6-7.8l-31.8-46.6 45.6-32.6 49.7-86.9zM277.6 747.6c19.8-6.4 30.7-27.7 24.2-47.6l-5.7-17.4c-2.5-7.6-2.5-15.8 0-23.4 7.1-21.6-6.4-44.5-28.6-48.8l-44.5-8.7-81.2-61.7-67.1 21.8C81.4 620 99.8 677.9 131 732c28.9 50 66.1 92.2 108.8 125.8l20-104.4 17.8-5.8z" fill="#2F9B77" /><path d="M958.6 456.4c-2-15.9-4.8-31.6-8.4-47.1 0-0.3-0.1-0.6-0.2-0.8-0.8-3.3-1.6-6.6-2.5-9.9l-1.5-5.7c0-0.2-0.1-0.3-0.1-0.5-9.3-33.8-22.6-66.4-39.8-97.5-0.2-0.4-0.5-0.9-0.7-1.3-1.2-2.2-2.4-4.4-3.7-6.5-1.6-2.8-3.3-5.6-4.9-8.3-0.5-0.9-1-1.7-1.6-2.6-1.5-2.4-3-4.8-4.5-7.1-0.9-1.5-1.9-2.9-2.8-4.4-0.5-0.8-1.1-1.7-1.7-2.5-28-42-62.4-78.6-102.7-109.1-46.4-35.1-98.6-60.5-155-75.6s-114.3-19.2-172.1-12c-59.8 7.4-116.8 26.6-169.4 57s-97.7 70.1-134 118.2c-35.1 46.4-60.5 98.6-75.6 155C62.8 450.1 58.5 506 64.7 561.8c0 0.4 0 0.7 0.1 1.1 1.9 16.3 4.6 32.4 8.2 48.2 0.1 0.5 0.2 1 0.3 1.4 0.3 1.1 0.5 2.2 0.8 3.3 0.2 0.9 0.4 1.8 0.7 2.8 0.2 0.7 0.3 1.4 0.5 2.1 0.3 1.3 0.7 2.6 1 3.9 0.1 0.4 0.2 0.7 0.3 1 0.4 1.7 0.9 3.3 1.3 5v0.1c10.1 36.9 25 72.4 44.4 106.1 0.1 0.2 0.3 0.5 0.4 0.7 1.7 2.9 3.4 5.8 5.2 8.7 1.3 2.1 2.7 4.3 4 6.4 0.6 0.9 1.2 1.9 1.8 2.9 1.4 2.3 2.9 4.5 4.4 6.7 0.5 0.8 1 1.6 1.6 2.4 1.5 2.2 3.1 4.5 4.6 6.7 0.5 0.8 1 1.5 1.6 2.3 1.6 2.2 3.2 4.4 4.7 6.5 0.6 0.8 1.1 1.5 1.7 2.3l4.8 6.3c0.6 0.8 1.2 1.6 1.8 2.3 1.6 2 3.2 4 4.9 6 0.7 0.8 1.3 1.6 2 2.4l4.8 5.7c0.7 0.9 1.5 1.7 2.2 2.6l4.8 5.4c0.8 0.9 1.7 1.9 2.5 2.8 1.5 1.7 3.1 3.4 4.7 5 1 1 1.9 2 2.9 3.1 1.5 1.5 3 3.1 4.5 4.6l3.4 3.4c1.4 1.4 2.8 2.8 4.2 4.1 1.3 1.2 2.6 2.5 3.9 3.7l3.9 3.6c1.5 1.4 3.1 2.8 4.6 4.1 1.1 1 2.2 2 3.4 3 1.8 1.6 3.6 3.1 5.4 4.7 0.9 0.8 1.8 1.5 2.7 2.3l6.6 5.4 1.8 1.5c0.5 0.4 1 0.8 1.6 1.3 0.2 0.2 0.5 0.4 0.8 0.5 2.1 1.6 4.1 3.2 6.2 4.8 46.4 35.1 98.6 60.5 155 75.6 38.4 10.3 77.4 15.4 116.6 15.4 18.5 0 37-1.1 55.5-3.4 59.8-7.4 116.8-26.6 169.4-57 52.6-30.4 97.7-70.1 134-118.2 35.1-46.4 60.5-98.6 75.6-155s19-114.3 11.8-172z m-165.9-92.6c-6.7 0-12.8 3.7-16 9.6-3.1 5.9-2.7 13 0.9 18.4l6.5 9.8c-19.8 18.2-43.1 32.5-68 41.7l-5.2 1.9-41.1-78.7v-17.6c0-2.7-1.1-5.3-3.1-7.2l-33.3-31.8c-1-1-2.2-1.7-3.6-2.2l-96.7-34a9.6 9.6 0 0 0-3.3-0.6h-84.1c-29.9 0-56.9 18.3-68.1 45.9L341 267.5l29.3-70.9 119.1-41.7c1.8-0.6 3.3-1.7 4.5-3.2l54.2-68c131.1 11.1 249.2 81.2 321.7 189.8 0.5 0.8 1 1.5 1.5 2.3 0.9 1.4 1.8 2.7 2.7 4.1 1.4 2.2 2.9 4.5 4.3 6.8 0.5 0.8 1 1.6 1.4 2.4 1.6 2.6 3.2 5.3 4.8 8v0.1c1.1 1.9 2.2 3.8 3.3 5.8 0.3 0.5 0.5 0.9 0.8 1.4 1 1.8 1.9 3.5 2.9 5.3 0.1 0.2 0.2 0.4 0.3 0.5 14.9 28 26.7 57.5 35.1 88.1 0.1 0.4 0.2 0.9 0.4 1.3 0.3 1.3 0.7 2.5 1 3.8 0.2 0.9 0.5 1.8 0.7 2.6-0.9 0.7-1.8 1.4-2.6 2.1l-8.9 7.9c-8.3 7.4-13.1 17.9-13.3 29-0.2 8.2-3.1 15.5-8.3 20.7l-0.5 0.5-19-52.2c-1.5-4.1-3.7-7.9-6.6-11.3l-22-25.8c-7-8.3-17.3-13-28.1-13h-27z m-334.6 10c0.5 3.1 2.4 5.8 5.1 7.3 3.7 2 8.5 5.2 13.6 8.6 13.2 8.8 28.1 18.8 40.9 19.6 9.8 0.6 15.2-4.8 18-7.7 0.5-0.5 1-1.1 1.4-1.3 1.3-1 4.4-4 4.2-9.1 0.4-0.1 0.7-0.2 1.1-0.3 4.6 1.5 10.1 3 15.8 4.5 13.7 3.7 32.4 8.7 38.2 14.8 8.8 9.3 15.2 25.7 20.8 40.2 2.6 6.8 5.1 13.2 7.8 19 1.2 2.6 2.4 5.3 3.7 8.2 7.8 17.4 16.7 37.2 34.6 48.9 7.6 5 17.7 6.5 26.6 7.9 4.5 0.7 11.8 1.8 14.5 3.2-0.3 1.2-1.3 3.9-4.6 8.8-6.3 9.1-15.5 17.7-24.5 26.1-21.6 20.1-46.1 42.9-34.8 79 6 19.6 7.9 25.5-5.1 39.6-1.4 1.5-2.7 2.9-3.9 4.1-7.8 8.3-13.5 14.3-18.3 29.6-2.1 6.5-5 9.8-8.9 14.2-2.9 3.2-6.1 6.9-9.1 12-3.4 5.8-4.5 11.5-5.6 16.6-1.1 5.4-1.9 9.7-5.4 13.9-12 14.7-36.6 33-47.6 28-0.3-0.2-8.7-4.5-22.9-46.5-2.4-7.3-5.8-14.8-9.4-22.6-8.2-18.1-16.6-36.8-11.9-51.5 0.5-1.5 1-3 1.4-4.4 5.8-17.8 10.8-33.2 1.3-56.1-2.7-6.5-7.4-11.7-11.6-16.3-3.9-4.3-7.7-8.4-8.6-12.5-0.8-3.5-0.8-7.1-0.8-10.9 0.1-8.9 0.2-20-11.4-30.9-8.9-8.3-18.4-10.9-27.7-10.9-8.1 0-16.1 2-23.2 3.7-4.9 1.2-9.6 2.4-14 2.9-28.1 3.3-53.2-7.4-68.9-29.3-16.3-22.7-18.7-53.2-6.3-79.5 6-12.6 15-22.8 24.6-33.6 2-2.2 4-4.5 6-6.8 3.3-3.7 7-9.1 11-14.7 6-8.5 15.1-21.4 20.3-24.4 9.7-5.4 28.6-6.1 43.8-6.6 5.2-0.2 10.2-0.4 14.6-0.7 8.1-0.7 17.9 0.8 21.4 2.7-0.5 0.9-1.6 2.5-3.7 4.6-2 2.4-3 5.5-2.5 8.6z m-280.6 15.4l-43.8 31.3c-4.4 3.2-5.5 9.3-2.4 13.8l22.9 33.6c-16.5 2.6-32.4 4.8-39.5 5.4-2.1-2.2-5-4.8-8.8-8.3-5.6-5.1-12.7-11.4-19-17 14.6-96.4 61.3-185.1 132.3-251 17.4 3.8 31.6 15.6 38.5 32.3 7.1 17.1 3.5 36.9-9.2 50.5l-21 22.5c-0.5 0.6-1 1.2-1.4 1.9l-48.6 85z m109.1 296.5l5.7 17.4c2.3 7.1 1.7 14.6-1.6 21.2-3.4 6.6-9.1 11.5-16.1 13.8l-17.8 5.8c-3.5 1.1-6 4-6.7 7.6l-16.8 87.9c-1.4-1.2-2.8-2.3-4.1-3.5-0.6-0.6-1.3-1.1-1.9-1.7-2.2-1.9-4.3-3.9-6.5-5.8-0.4-0.3-0.8-0.7-1.1-1-2.4-2.2-4.7-4.4-7.1-6.7-1.1-1-2.1-2.1-3.2-3.2l-3.7-3.7c-1.2-1.3-2.5-2.5-3.7-3.8-1-1.1-2-2.1-3.1-3.2l-3.9-4.2-2.7-3c-1.3-1.5-2.7-3-4-4.5-0.8-0.9-1.5-1.7-2.3-2.6-1.4-1.6-2.8-3.3-4.2-4.9-0.4-0.5-0.7-0.9-1.1-1.4-3.4-4.1-6.8-8.4-10-12.6-0.1-0.2-0.3-0.3-0.4-0.5-1.3-1.7-2.6-3.5-3.9-5.2-0.7-0.9-1.4-1.8-2-2.8-1.2-1.6-2.3-3.2-3.5-4.9-0.8-1.1-1.6-2.2-2.3-3.3-1.1-1.5-2.1-3.1-3.2-4.7-0.9-1.3-1.7-2.5-2.5-3.8-1-1.5-1.9-2.9-2.9-4.4-1-1.5-1.9-3.1-2.9-4.6-0.8-1.3-1.6-2.5-2.3-3.8-1.7-2.8-3.4-5.7-5.1-8.5-19.4-33.7-34.1-69.2-43.8-106.2-0.1-0.3-0.2-0.6-0.2-1l-0.9-3.6c-0.2-0.7-0.3-1.4-0.5-2.1-0.2-0.8-0.4-1.7-0.6-2.5-0.3-1.1-0.5-2.2-0.8-3.3-0.1-0.4-0.2-0.8-0.3-1.3-2.8-12.6-5.1-25.3-6.8-38.2l54.2-17.6 77 58.5c1.2 0.9 2.6 1.6 4.1 1.9l44.5 8.7c7.8 1.5 14.5 6.3 18.6 13.2 4 6.9 4.9 15.1 2.4 22.7-3.2 9.5-3.2 19.7 0 29.4z m640.7-62.5c-14.4 54-38.8 103.8-72.3 148.2-34.7 45.9-77.8 83.9-128 112.9-50.3 29-104.7 47.3-161.8 54.4-55.2 6.8-110.5 3-164.4-11.5-54-14.3-103.8-38.7-148.2-72.2-0.6-0.5-1.2-0.9-1.8-1.4l17.7-92.5 12.2-4c12.1-3.9 22-12.3 27.8-23.7 5.8-11.4 6.8-24.3 2.8-36.5l-5.7-17.4c-1.8-5.6-1.8-11.5 0-17.2 4.3-13 2.8-27.3-4.2-39.1-6.9-11.8-18.6-20.1-32-22.7l-42.2-8.3-79.3-60.2c-2.6-2-6-2.6-9.1-1.5l-55.2 17.9c-2.2-25.5-2-51 0.3-76.3 9.4 8.4 15.1 13.7 17.1 15.8 0.5 1 1.2 1.9 2.1 2.7 2.4 2.2 5.1 2.9 9 2.9 2.5 0 5.6-0.3 9.4-0.7 5.3-0.6 12.5-1.6 21.4-2.9 15-2.2 30-4.7 30.1-4.8 3.4-0.6 6.2-2.8 7.5-5.9 1.3-3.1 1-6.7-0.9-9.6l-26.3-38.5 37.6-26.9c1.2-0.8 2.1-1.9 2.9-3.2l49.1-85.9 20.2-21.7c18-19.3 23.1-47.4 13-71.7-7.5-18.2-21.9-32.4-39.6-40 18.8-15.6 39-29.7 60.5-42.1 50.3-29 104.7-47.3 161.8-54.4 17.7-2.2 35.4-3.3 53-3.3 3.9 0 7.9 0.1 11.8 0.2L480 136.9l-120.6 42.2c-2.7 0.9-4.8 3-5.9 5.6L320.4 265c-1.3 3.2-0.9 6.8 1.1 9.6l51 71.5c0.6 0.8 1.2 1.5 2 2.1-9 5.3-17.8 17.9-26.4 30-3.7 5.2-7.1 10.1-9.7 13.1-2 2.2-3.9 4.4-5.8 6.6-10.1 11.3-20.5 23.1-27.8 38.3-15.6 32.9-12.5 71.1 8.1 99.7 19.8 27.6 52.5 41.6 87.5 37.5 5.7-0.7 11.2-2 16.5-3.4 15.1-3.8 24.1-5.5 32.4 2.3 5.2 4.9 5.1 8.6 5.1 16.1 0 4.6-0.1 9.8 1.3 15.7 2.2 9.1 8.1 15.6 13.3 21.3 3.3 3.7 6.5 7.2 7.9 10.5 6.7 16 3.5 25.9-1.8 42.2l-1.5 4.5c-7.1 22.1 3.4 45.3 12.7 65.9 3.3 7.4 6.5 14.3 8.6 20.7 12 35.3 22.3 53.3 33.7 58.4 4 1.8 8.1 2.6 12.3 2.6 23.7 0 49.6-24.8 58.9-36.2 6.6-8 8.2-16.1 9.5-22.7 0.8-4 1.5-7.5 3.2-10.4 2-3.4 4.3-6 6.8-8.8 4.5-5.1 9.6-10.9 13-21.4 3.5-10.9 6.5-14.2 13.8-21.9 1.2-1.3 2.6-2.7 4-4.3 19.7-21.4 16.5-36.4 9.5-59-7.1-23 6.5-37.2 29.4-58.5 9.7-9.1 19.8-18.4 27.3-29.4 5-7.3 11.2-18.1 6.8-28.2-4.7-11-17.6-13-30.1-14.9-6.9-1.1-14.8-2.3-18.7-4.9-13-8.5-20.3-24.7-27.3-40.3-1.3-2.8-2.5-5.7-3.8-8.5-2.4-5.2-4.8-11.3-7.3-17.8-6.3-16.2-13.3-34.6-25-46.8-9.8-10.1-29.8-15.5-47.5-20.2-6.6-1.8-12.8-3.4-17.1-5-1.8-0.7-3.7-0.8-5.6-0.4-7.3 1.6-12.7 3.7-16 6.3l-0.2 0.2c-1.9 1.6-5.6 5.5-4.6 11.9-0.4 0.4-0.6 0.4-1.1 0.3-7.4-0.5-21.1-9.6-31-16.2-1.9-1.3-3.7-2.5-5.5-3.7 3.7-7.2 2.7-13 0.8-17-8.2-17.2-40.6-14.5-41.9-14.4-3.9 0.3-8.6 0.5-13.6 0.7-11.7 0.4-25.4 0.9-37.3 3.6l4.9-13.7c7.7-21.2 27.9-35.5 50.4-35.5H528l93.1 32.7 28.6 27.4V369c0 1.6 0.4 3.2 1.1 4.6l46.3 88.7c2.3 4.5 7.6 6.5 12.3 4.8l13.5-5c30.1-11.1 58.1-29 81.1-51.9 3.4-3.4 3.9-8.7 1.3-12.6l-9.2-13.8h23.3c5 0 9.7 2.2 12.9 6l22 25.7c1.3 1.6 2.4 3.4 3.1 5.3l24.3 66.9c1.2 3.2 3.9 5.6 7.2 6.3 0.7 0.2 1.4 0.2 2.2 0.2 2.6 0 5.2-1 7.1-2.9l11.6-11.6c8.9-8.9 13.9-21.1 14.1-34.5 0.1-5.5 2.4-10.7 6.5-14.3l3.2-2.8c2 10.2 3.7 20.4 5 30.7 7 55.2 3.2 110.5-11.3 164.4z" fill="#4D3500" /><path d="M771.2 639.4c-1.1-3.9-4.4-6.8-8.5-7.3s-8 1.5-10 5.1c-1.9 3.5-3.6 7.3-5.3 10.9-3.1 6.7-6.2 13.6-10.1 17.9-2.8 3.2-7.8 5.6-13 8.2-9.5 4.6-21.3 10.3-25.6 24.1-2.9 8.9-1.8 16-1 21.7 0.8 5.6 1.4 9.2-1 14.8l-0.2 0.6c-5.4 12.7-14.3 34-2.1 51.6 8.8 12.4 17.5 15.6 24.1 15.6 1.2 0 2.3-0.1 3.4-0.3 14.9-2.4 26.6-19.7 36.9-54.2 3.5-11.8 7-23.6 10.5-35.5l10.5-35.4c0.5-1.7 0.5-3.6 0.1-5.4-3-10.9-5.9-21.8-8.7-32.4zM750 707l-10.5 35.4c-11.3 38.2-20.8 40.2-20.9 40.2-0.7 0.1-3.5-0.9-7.9-7-5.9-8.5-0.3-21.7 4.2-32.3l0.2-0.6c4.6-10.7 3.4-18.9 2.4-25.5-0.7-4.8-1.2-8.2 0.2-12.8 1.7-5.4 6.9-8.1 15.3-12.1 6.5-3.2 14-6.7 19.4-13.1 2.4-2.7 4.4-5.7 6.3-8.9 0.3 1.3 0.7 2.6 1 3.9-3.2 10.9-6.5 21.9-9.7 32.8z" fill="#4D3500" /></svg>