<?xml version="1.0" standalone="no"?><!DOCTYPE svg PUBLIC "-//W3C//DTD SVG 1.1//EN" "http://www.w3.org/Graphics/SVG/1.1/DTD/svg11.dtd"><svg class="icon" width="200px" height="200.00px" viewBox="0 0 1024 1024" version="1.1" xmlns="http://www.w3.org/2000/svg"><path d="M961.2981 80.350848c56.540812 77.655372 68.381652 183.557084 21.299072 274.729946-47.066536 91.220996-140.228916 142.884281-236.311395 141.817322-56.53279-77.687461-68.37363-183.557084-21.291049-274.762035 47.066536-91.188907 140.220894-142.868236 236.303372-141.785233z" fill="#3662CE" /><path d="M746.285777 496.898116c-56.53279-77.687461-68.37363-183.557084-21.291049-274.762035 47.066536-91.188907 140.220894-142.868236 236.303372-141.785233" fill="#6892FC" /><path d="M749.29412 508.947534l-3.144721-0.016044a12.033374 12.033374 0 0 1-9.59461-4.949728c-61.56274-84.594618-70.082369-194.70801-22.25372-287.364989 47.82865-92.648956 142.507235-149.350213 247.133409-148.291277 3.802546 0.048133 7.356403 1.877206 9.59461 4.949728 61.578785 84.578573 70.106436 194.683944 22.261742 287.3329-47.33127 91.710353-140.613984 148.33941-243.99671 148.33941z m205.786737-416.563312c-93.042046 1.147182-176.698061 52.553755-219.400493 135.271166-42.702433 82.725434-36.156277 180.701163 16.814634 257.209354 93.058091-1.163226 176.722128-52.585844 219.408516-135.295233 42.718477-82.725434 36.164299-180.701163-16.822657-257.185287z" fill="#33363A" /><path d="M919.967472 177.556442c34.784473 47.788539 42.084719 112.969313 13.100333 169.092968-28.96032 56.1397-86.303357 87.963963-145.4514 87.290094-34.784473-47.804583-42.084719-112.985358-13.100333-169.109013 28.968342-56.1397 86.303357-87.947918 145.4514-87.274049z" fill="#EFA3CC" /><path d="M787.616405 433.939504c-34.784473-47.804583-42.084719-112.985358-13.100333-169.109013 28.96032-56.1397 86.303357-87.947918 145.4514-87.274049" fill="#CE86AF" /><path d="M789.517678 445.9809l-2.037651-0.008022a12.025352 12.025352 0 0 1-9.59461-4.949728c-38.931975-53.50038-44.314905-123.133503-14.063003-181.711967 30.235857-58.60253 90.081836-94.646496 156.273414-93.780093a12.033374 12.033374 0 0 1 9.59461 4.949728c38.931975 53.492358 44.314905 123.109436 14.063003 181.695922-29.914967 58.000862-88.886521 93.80416-154.235763 93.80416zM913.734185 189.637949c-54.567339 1.540272-103.422837 32.048886-128.524455 80.711849-25.125685 48.638897-21.692162 106.134357 8.639963 151.516221 54.567339-1.540272 103.414815-32.056908 128.524454-80.727894 25.125685-48.646919 21.700184-106.142379-8.639962-151.500176z" fill="#33363A" /><path d="M62.7019 80.350848C6.16911 158.00622-5.679752 263.907932 41.402828 355.080794c47.066536 91.220996 140.228916 142.884281 236.319417 141.817322 56.53279-77.687461 68.37363-183.557084 21.29105-274.762035-47.074558-91.188907-140.228916-142.868236-236.311395-141.785233z" fill="#3662CE" /><path d="M277.722245 496.898116c56.53279-77.687461 68.37363-183.557084 21.29105-274.762035-47.074558-91.188907-140.228916-142.868236-236.311395-141.785233" fill="#6892FC" /><path d="M274.713902 508.947534c-103.390748 0-196.681484-56.621035-244.004732-148.347432-47.836672-92.648956-39.309021-202.754326 22.261742-287.3329a12.057441 12.057441 0 0 1 9.59461-4.949728l3.184832-0.016044c103.350637 0 196.609284 56.60499 243.948577 148.307321 47.82865 92.665001 39.292977 202.770371-22.25372 287.364989a12.033374 12.033374 0 0 1-9.59461 4.949727 205.209135 205.209135 0 0 1-3.136699 0.024067zM68.911121 92.384222C15.940209 168.868346 9.378009 266.844075 52.096486 349.561487c42.678366 82.725434 126.358447 134.140029 219.416538 135.303255 52.962889-76.500168 59.517067-174.48392 16.814635-257.209354C245.625226 144.945999 161.937122 93.539426 68.911121 92.384222z" fill="#33363A" /><path d="M104.032528 177.556442C69.232011 225.34498 61.947808 290.525755 90.932195 346.64941c28.952297 56.1397 86.303357 87.963963 145.435356 87.290094 34.800517-47.804583 42.084719-112.985358 13.116377-169.109013-28.968342-56.1397-86.311379-87.947918-145.4514-87.274049z" fill="#EFA3CC" /><path d="M236.367551 433.939504c34.800517-47.804583 42.084719-112.985358 13.116377-169.109013-28.968342-56.1397-86.311379-87.947918-145.4514-87.274049" fill="#CE86AF" /><path d="M234.466278 445.9809c-65.349242 0-124.304751-35.803298-154.227741-93.812182-30.259924-58.594508-24.868973-128.219609 14.063002-181.695922a12.057441 12.057441 0 0 1 9.59461-4.949728c65.782443-0.633758 126.029535 35.185585 156.273415 93.788115 30.251902 58.60253 24.852928 128.219609-14.079047 181.703945a12.057441 12.057441 0 0 1-9.586588 4.949728c-0.673869 0.016044-1.363782 0.016044-2.037651 0.016044zM110.273838 189.637949c-30.340147 45.349775-33.773669 102.837213-8.639963 151.492154 25.101618 48.670986 73.949093 79.187622 128.50841 80.727894 30.340147-45.357797 33.773669-102.853257 8.656007-151.508199-25.117662-48.654941-73.97316-79.171577-128.524454-80.711849z" fill="#33363A" /><path d="M906.770872 643.304164c0 165.868025-176.746195 300.361033-394.766861 300.361032-218.028689 0-394.766861-134.50103-394.766861-300.361032 0-165.900114 176.738172-364.683427 394.766861-364.683427 218.020667 0 394.766861 198.783313 394.766861 364.683427z" fill="#6892FC" /><path d="M906.770872 643.304164c0 165.868025-176.746195 300.361033-394.766861 300.361032-218.028689 0-394.766861-134.50103-394.766861-300.361032 0-165.900114 176.738172-280.20112 394.766861-280.20112 218.020667 0 394.766861 114.301007 394.766861 280.20112z" fill="#4F74E8" /><path d="M906.770872 643.304164c0 165.868025-176.746195 300.361033-394.766861 300.361032-218.028689 0-394.766861-134.50103-394.766861-300.361032 0-165.916158 50.227302 147.12805 394.766861 147.12805s394.766861-313.044209 394.766861-147.12805z" fill="#3662CE" /><path d="M512.004011 955.69857c-224.31011 0-406.800235-140.140671-406.800235-312.394406 0-170.633241 181.455255-376.716801 406.800235-376.716801s406.800235 206.08356 406.800235 376.716801c0 172.253735-182.490125 312.394406-406.800235 312.394406z m0-665.044459c-212.012002 0-382.733487 192.919049-382.733487 352.650053 0 158.984935 171.692178 288.327659 382.733487 288.327659s382.733487-129.342724 382.733488-288.327659c0-159.731004-170.729508-352.650053-382.733488-352.650053z" fill="#33363A" /><path d="M590.710298 525.521501c0 16.581989-35.241741 7.268158-78.706287 7.268158s-78.714309 9.305809-78.714309-7.268158c0-16.557922 35.241741-30.003212 78.714309-30.003212s78.706287 13.44529 78.706287 30.003212z" fill="#6892FC" /><path d="M731.163837 774.933229c0 46.882024-38.009417 84.891441-84.891441 84.891441H393.058122c-46.882024 0-84.891441-38.009417-84.891441-84.891441V626.377218c0-46.882024 38.009417-84.891441 84.891441-84.891441H646.272396c46.882024 0 84.891441 38.009417 84.891441 84.891441v148.556011z" fill="#33363A" /><path d="M393.058122 691.229081c-46.673446 0-84.53044 37.696549-84.859352 84.297794 0.328912 46.601246 38.185906 84.297795 84.859352 84.297795H646.272396c46.673446 0 84.53044-37.696549 84.859352-84.297795-0.328912-46.601246-38.185906-84.297795-84.859352-84.297794H393.058122z" fill="#702252" /><path d="M487.56824 555.685158l-41.595362 90.924173-41.58734-90.924173" fill="#FFFFFF" /><path d="M634.94498 555.685158l-41.595362 90.924173-41.58734-90.924173" fill="#FFFFFF" /><path d="M592.611571 843.266748l41.595362-90.924173 41.603385 90.924173" fill="#FFFFFF" /><path d="M363.520201 843.266748L405.123585 752.342575l41.595362 90.924173" fill="#FFFFFF" /><path d="M646.272396 529.452403H393.058122c-53.444224 0-96.924815 43.480591-96.924815 96.924815v148.556011c0 53.444224 43.480591 96.924815 96.924815 96.924815H646.272396c53.444224 0 96.924815-43.480591 96.924815-96.924815V626.377218c0-53.444224-43.480591-96.924815-96.924815-96.924815z m-23.569368 24.066748l-29.345388 64.161949-29.345387-64.161949h58.690775z m-147.384762 0l-29.345388 64.161949-29.345388-64.161949h58.690776zM393.058122 847.791296a72.601355 72.601355 0 0 1-17.376192-2.182052l29.441655-64.34646 30.436413 66.528512h-42.501876z m253.214274 0h-42.501876l30.436413-66.528512 29.441655 64.34646a72.601355 72.601355 0 0 1-17.376192 2.182052z m72.858067-72.858067c0 25.623064-13.324956 48.14954-33.380579 61.145583L645.149281 747.336692a12.033374 12.033374 0 0 0-21.884696 0l-41.603384 90.924172a11.953151 11.953151 0 0 0-0.168467 9.530432H457.837784a11.953151 11.953151 0 0 0-0.168467-9.530432l-41.603384-90.924172a12.033374 12.033374 0 0 0-21.884696 0l-40.600603 88.74212c-20.055623-12.996044-33.380579-35.522519-33.380579-61.145583V626.377218c0-40.006957 32.417909-72.561244 72.360688-72.834-0.425179 2.334475-0.176489 4.821372 0.882447 7.139801l41.595362 90.924173a12.033374 12.033374 0 0 0 21.884696 0l41.595362-90.924173a11.953151 11.953151 0 0 0 0.874425-7.17189h40.55247a11.953151 11.953151 0 0 0 0.874425 7.17189L582.415292 651.607192a12.033374 12.033374 0 0 0 21.884696 0l41.595362-90.924173c1.066959-2.326452 1.307627-4.805327 0.882448-7.139801 39.942779 0.272756 72.360688 32.827044 72.360688 72.834v148.556011z" fill="#33363A" /></svg>